<?xml version="1.0" encoding="utf-8" standalone="no"?>
<!DOCTYPE svg PUBLIC "-//W3C//DTD SVG 1.1//EN"
  "http://www.w3.org/Graphics/SVG/1.1/DTD/svg11.dtd">
<svg height="595.44pt" version="1.1" viewBox="0 0 842.4 595.44" width="842.4pt" xmlns="http://www.w3.org/2000/svg" xmlns:xlink="http://www.w3.org/1999/xlink">
 <metadata>
  <rdf:RDF xmlns:cc="http://creativecommons.org/ns#" xmlns:dc="http://purl.org/dc/elements/1.1/" xmlns:rdf="http://www.w3.org/1999/02/22-rdf-syntax-ns#">
   <cc:Work>
    <dc:type rdf:resource="http://purl.org/dc/dcmitype/StillImage"/>
    <dc:date>2022-07-08T19:24:30.851943</dc:date>
    <dc:format>image/svg+xml</dc:format>
    <dc:creator>
     <cc:Agent>
      <dc:title>Matplotlib v3.4.3, https://matplotlib.org/</dc:title>
     </cc:Agent>
    </dc:creator>
   </cc:Work>
  </rdf:RDF>
 </metadata>
 <defs>
  <style type="text/css">*{stroke-linecap:butt;stroke-linejoin:round;}</style>
 </defs>
 <g id="figure_1">
  <g id="patch_1">
   <path d="M 0 595.44 
L 842.4 595.44 
L 842.4 0 
L 0 0 
z
" style="fill:#ffffff;"/>
  </g>
  <g id="axes_1">
   <g id="patch_2">
    <path d="M 182.96 545.98 
L 829.44 545.98 
L 829.44 12.96 
L 182.96 12.96 
z
" style="fill:#eaeaf2;"/>
   </g>
   <g id="matplotlib.axis_1">
    <g id="xtick_1">
     <g id="line2d_1">
      <path clip-path="url(#pf2e87ff715)" d="M 182.96 545.98 
L 182.96 12.96 
" style="fill:none;stroke:#ffffff;stroke-linecap:round;"/>
     </g>
     <g id="text_1">
      <!-- 0 -->
      <g style="fill:#262626;" transform="translate(179.460625 563.838281)scale(0.11 -0.11)">
       <defs>
        <path d="M 2034 4250 
Q 1547 4250 1301 3770 
Q 1056 3291 1056 2328 
Q 1056 1369 1301 889 
Q 1547 409 2034 409 
Q 2525 409 2770 889 
Q 3016 1369 3016 2328 
Q 3016 3291 2770 3770 
Q 2525 4250 2034 4250 
z
M 2034 4750 
Q 2819 4750 3233 4129 
Q 3647 3509 3647 2328 
Q 3647 1150 3233 529 
Q 2819 -91 2034 -91 
Q 1250 -91 836 529 
Q 422 1150 422 2328 
Q 422 3509 836 4129 
Q 1250 4750 2034 4750 
z
" id="DejaVuSans-30" transform="scale(0.015625)"/>
       </defs>
       <use xlink:href="#DejaVuSans-30"/>
      </g>
     </g>
    </g>
    <g id="xtick_2">
     <g id="line2d_2">
      <path clip-path="url(#pf2e87ff715)" d="M 270.916463 545.98 
L 270.916463 12.96 
" style="fill:none;stroke:#ffffff;stroke-linecap:round;"/>
     </g>
     <g id="text_2">
      <!-- 1 -->
      <g style="fill:#262626;" transform="translate(267.417088 563.838281)scale(0.11 -0.11)">
       <defs>
        <path d="M 794 531 
L 1825 531 
L 1825 4091 
L 703 3866 
L 703 4441 
L 1819 4666 
L 2450 4666 
L 2450 531 
L 3481 531 
L 3481 0 
L 794 0 
L 794 531 
z
" id="DejaVuSans-31" transform="scale(0.015625)"/>
       </defs>
       <use xlink:href="#DejaVuSans-31"/>
      </g>
     </g>
    </g>
    <g id="xtick_3">
     <g id="line2d_3">
      <path clip-path="url(#pf2e87ff715)" d="M 358.872925 545.98 
L 358.872925 12.96 
" style="fill:none;stroke:#ffffff;stroke-linecap:round;"/>
     </g>
     <g id="text_3">
      <!-- 2 -->
      <g style="fill:#262626;" transform="translate(355.37355 563.838281)scale(0.11 -0.11)">
       <defs>
        <path d="M 1228 531 
L 3431 531 
L 3431 0 
L 469 0 
L 469 531 
Q 828 903 1448 1529 
Q 2069 2156 2228 2338 
Q 2531 2678 2651 2914 
Q 2772 3150 2772 3378 
Q 2772 3750 2511 3984 
Q 2250 4219 1831 4219 
Q 1534 4219 1204 4116 
Q 875 4013 500 3803 
L 500 4441 
Q 881 4594 1212 4672 
Q 1544 4750 1819 4750 
Q 2544 4750 2975 4387 
Q 3406 4025 3406 3419 
Q 3406 3131 3298 2873 
Q 3191 2616 2906 2266 
Q 2828 2175 2409 1742 
Q 1991 1309 1228 531 
z
" id="DejaVuSans-32" transform="scale(0.015625)"/>
       </defs>
       <use xlink:href="#DejaVuSans-32"/>
      </g>
     </g>
    </g>
    <g id="xtick_4">
     <g id="line2d_4">
      <path clip-path="url(#pf2e87ff715)" d="M 446.829388 545.98 
L 446.829388 12.96 
" style="fill:none;stroke:#ffffff;stroke-linecap:round;"/>
     </g>
     <g id="text_4">
      <!-- 3 -->
      <g style="fill:#262626;" transform="translate(443.330013 563.838281)scale(0.11 -0.11)">
       <defs>
        <path d="M 2597 2516 
Q 3050 2419 3304 2112 
Q 3559 1806 3559 1356 
Q 3559 666 3084 287 
Q 2609 -91 1734 -91 
Q 1441 -91 1130 -33 
Q 819 25 488 141 
L 488 750 
Q 750 597 1062 519 
Q 1375 441 1716 441 
Q 2309 441 2620 675 
Q 2931 909 2931 1356 
Q 2931 1769 2642 2001 
Q 2353 2234 1838 2234 
L 1294 2234 
L 1294 2753 
L 1863 2753 
Q 2328 2753 2575 2939 
Q 2822 3125 2822 3475 
Q 2822 3834 2567 4026 
Q 2313 4219 1838 4219 
Q 1578 4219 1281 4162 
Q 984 4106 628 3988 
L 628 4550 
Q 988 4650 1302 4700 
Q 1616 4750 1894 4750 
Q 2613 4750 3031 4423 
Q 3450 4097 3450 3541 
Q 3450 3153 3228 2886 
Q 3006 2619 2597 2516 
z
" id="DejaVuSans-33" transform="scale(0.015625)"/>
       </defs>
       <use xlink:href="#DejaVuSans-33"/>
      </g>
     </g>
    </g>
    <g id="xtick_5">
     <g id="line2d_5">
      <path clip-path="url(#pf2e87ff715)" d="M 534.78585 545.98 
L 534.78585 12.96 
" style="fill:none;stroke:#ffffff;stroke-linecap:round;"/>
     </g>
     <g id="text_5">
      <!-- 4 -->
      <g style="fill:#262626;" transform="translate(531.286475 563.838281)scale(0.11 -0.11)">
       <defs>
        <path d="M 2419 4116 
L 825 1625 
L 2419 1625 
L 2419 4116 
z
M 2253 4666 
L 3047 4666 
L 3047 1625 
L 3713 1625 
L 3713 1100 
L 3047 1100 
L 3047 0 
L 2419 0 
L 2419 1100 
L 313 1100 
L 313 1709 
L 2253 4666 
z
" id="DejaVuSans-34" transform="scale(0.015625)"/>
       </defs>
       <use xlink:href="#DejaVuSans-34"/>
      </g>
     </g>
    </g>
    <g id="xtick_6">
     <g id="line2d_6">
      <path clip-path="url(#pf2e87ff715)" d="M 622.742313 545.98 
L 622.742313 12.96 
" style="fill:none;stroke:#ffffff;stroke-linecap:round;"/>
     </g>
     <g id="text_6">
      <!-- 5 -->
      <g style="fill:#262626;" transform="translate(619.242938 563.838281)scale(0.11 -0.11)">
       <defs>
        <path d="M 691 4666 
L 3169 4666 
L 3169 4134 
L 1269 4134 
L 1269 2991 
Q 1406 3038 1543 3061 
Q 1681 3084 1819 3084 
Q 2600 3084 3056 2656 
Q 3513 2228 3513 1497 
Q 3513 744 3044 326 
Q 2575 -91 1722 -91 
Q 1428 -91 1123 -41 
Q 819 9 494 109 
L 494 744 
Q 775 591 1075 516 
Q 1375 441 1709 441 
Q 2250 441 2565 725 
Q 2881 1009 2881 1497 
Q 2881 1984 2565 2268 
Q 2250 2553 1709 2553 
Q 1456 2553 1204 2497 
Q 953 2441 691 2322 
L 691 4666 
z
" id="DejaVuSans-35" transform="scale(0.015625)"/>
       </defs>
       <use xlink:href="#DejaVuSans-35"/>
      </g>
     </g>
    </g>
    <g id="xtick_7">
     <g id="line2d_7">
      <path clip-path="url(#pf2e87ff715)" d="M 710.698776 545.98 
L 710.698776 12.96 
" style="fill:none;stroke:#ffffff;stroke-linecap:round;"/>
     </g>
     <g id="text_7">
      <!-- 6 -->
      <g style="fill:#262626;" transform="translate(707.199401 563.838281)scale(0.11 -0.11)">
       <defs>
        <path d="M 2113 2584 
Q 1688 2584 1439 2293 
Q 1191 2003 1191 1497 
Q 1191 994 1439 701 
Q 1688 409 2113 409 
Q 2538 409 2786 701 
Q 3034 994 3034 1497 
Q 3034 2003 2786 2293 
Q 2538 2584 2113 2584 
z
M 3366 4563 
L 3366 3988 
Q 3128 4100 2886 4159 
Q 2644 4219 2406 4219 
Q 1781 4219 1451 3797 
Q 1122 3375 1075 2522 
Q 1259 2794 1537 2939 
Q 1816 3084 2150 3084 
Q 2853 3084 3261 2657 
Q 3669 2231 3669 1497 
Q 3669 778 3244 343 
Q 2819 -91 2113 -91 
Q 1303 -91 875 529 
Q 447 1150 447 2328 
Q 447 3434 972 4092 
Q 1497 4750 2381 4750 
Q 2619 4750 2861 4703 
Q 3103 4656 3366 4563 
z
" id="DejaVuSans-36" transform="scale(0.015625)"/>
       </defs>
       <use xlink:href="#DejaVuSans-36"/>
      </g>
     </g>
    </g>
    <g id="xtick_8">
     <g id="line2d_8">
      <path clip-path="url(#pf2e87ff715)" d="M 798.655238 545.98 
L 798.655238 12.96 
" style="fill:none;stroke:#ffffff;stroke-linecap:round;"/>
     </g>
     <g id="text_8">
      <!-- 7 -->
      <g style="fill:#262626;" transform="translate(795.155863 563.838281)scale(0.11 -0.11)">
       <defs>
        <path d="M 525 4666 
L 3525 4666 
L 3525 4397 
L 1831 0 
L 1172 0 
L 2766 4134 
L 525 4134 
L 525 4666 
z
" id="DejaVuSans-37" transform="scale(0.015625)"/>
       </defs>
       <use xlink:href="#DejaVuSans-37"/>
      </g>
     </g>
    </g>
    <g id="text_9">
     <!-- mandat de conseiller -->
     <g style="fill:#262626;" transform="translate(442.974063 579.244062)scale(0.12 -0.12)">
      <defs>
       <path d="M 3328 2828 
Q 3544 3216 3844 3400 
Q 4144 3584 4550 3584 
Q 5097 3584 5394 3201 
Q 5691 2819 5691 2113 
L 5691 0 
L 5113 0 
L 5113 2094 
Q 5113 2597 4934 2840 
Q 4756 3084 4391 3084 
Q 3944 3084 3684 2787 
Q 3425 2491 3425 1978 
L 3425 0 
L 2847 0 
L 2847 2094 
Q 2847 2600 2669 2842 
Q 2491 3084 2119 3084 
Q 1678 3084 1418 2786 
Q 1159 2488 1159 1978 
L 1159 0 
L 581 0 
L 581 3500 
L 1159 3500 
L 1159 2956 
Q 1356 3278 1631 3431 
Q 1906 3584 2284 3584 
Q 2666 3584 2933 3390 
Q 3200 3197 3328 2828 
z
" id="DejaVuSans-6d" transform="scale(0.015625)"/>
       <path d="M 2194 1759 
Q 1497 1759 1228 1600 
Q 959 1441 959 1056 
Q 959 750 1161 570 
Q 1363 391 1709 391 
Q 2188 391 2477 730 
Q 2766 1069 2766 1631 
L 2766 1759 
L 2194 1759 
z
M 3341 1997 
L 3341 0 
L 2766 0 
L 2766 531 
Q 2569 213 2275 61 
Q 1981 -91 1556 -91 
Q 1019 -91 701 211 
Q 384 513 384 1019 
Q 384 1609 779 1909 
Q 1175 2209 1959 2209 
L 2766 2209 
L 2766 2266 
Q 2766 2663 2505 2880 
Q 2244 3097 1772 3097 
Q 1472 3097 1187 3025 
Q 903 2953 641 2809 
L 641 3341 
Q 956 3463 1253 3523 
Q 1550 3584 1831 3584 
Q 2591 3584 2966 3190 
Q 3341 2797 3341 1997 
z
" id="DejaVuSans-61" transform="scale(0.015625)"/>
       <path d="M 3513 2113 
L 3513 0 
L 2938 0 
L 2938 2094 
Q 2938 2591 2744 2837 
Q 2550 3084 2163 3084 
Q 1697 3084 1428 2787 
Q 1159 2491 1159 1978 
L 1159 0 
L 581 0 
L 581 3500 
L 1159 3500 
L 1159 2956 
Q 1366 3272 1645 3428 
Q 1925 3584 2291 3584 
Q 2894 3584 3203 3211 
Q 3513 2838 3513 2113 
z
" id="DejaVuSans-6e" transform="scale(0.015625)"/>
       <path d="M 2906 2969 
L 2906 4863 
L 3481 4863 
L 3481 0 
L 2906 0 
L 2906 525 
Q 2725 213 2448 61 
Q 2172 -91 1784 -91 
Q 1150 -91 751 415 
Q 353 922 353 1747 
Q 353 2572 751 3078 
Q 1150 3584 1784 3584 
Q 2172 3584 2448 3432 
Q 2725 3281 2906 2969 
z
M 947 1747 
Q 947 1113 1208 752 
Q 1469 391 1925 391 
Q 2381 391 2643 752 
Q 2906 1113 2906 1747 
Q 2906 2381 2643 2742 
Q 2381 3103 1925 3103 
Q 1469 3103 1208 2742 
Q 947 2381 947 1747 
z
" id="DejaVuSans-64" transform="scale(0.015625)"/>
       <path d="M 1172 4494 
L 1172 3500 
L 2356 3500 
L 2356 3053 
L 1172 3053 
L 1172 1153 
Q 1172 725 1289 603 
Q 1406 481 1766 481 
L 2356 481 
L 2356 0 
L 1766 0 
Q 1100 0 847 248 
Q 594 497 594 1153 
L 594 3053 
L 172 3053 
L 172 3500 
L 594 3500 
L 594 4494 
L 1172 4494 
z
" id="DejaVuSans-74" transform="scale(0.015625)"/>
       <path id="DejaVuSans-20" transform="scale(0.015625)"/>
       <path d="M 3597 1894 
L 3597 1613 
L 953 1613 
Q 991 1019 1311 708 
Q 1631 397 2203 397 
Q 2534 397 2845 478 
Q 3156 559 3463 722 
L 3463 178 
Q 3153 47 2828 -22 
Q 2503 -91 2169 -91 
Q 1331 -91 842 396 
Q 353 884 353 1716 
Q 353 2575 817 3079 
Q 1281 3584 2069 3584 
Q 2775 3584 3186 3129 
Q 3597 2675 3597 1894 
z
M 3022 2063 
Q 3016 2534 2758 2815 
Q 2500 3097 2075 3097 
Q 1594 3097 1305 2825 
Q 1016 2553 972 2059 
L 3022 2063 
z
" id="DejaVuSans-65" transform="scale(0.015625)"/>
       <path d="M 3122 3366 
L 3122 2828 
Q 2878 2963 2633 3030 
Q 2388 3097 2138 3097 
Q 1578 3097 1268 2742 
Q 959 2388 959 1747 
Q 959 1106 1268 751 
Q 1578 397 2138 397 
Q 2388 397 2633 464 
Q 2878 531 3122 666 
L 3122 134 
Q 2881 22 2623 -34 
Q 2366 -91 2075 -91 
Q 1284 -91 818 406 
Q 353 903 353 1747 
Q 353 2603 823 3093 
Q 1294 3584 2113 3584 
Q 2378 3584 2631 3529 
Q 2884 3475 3122 3366 
z
" id="DejaVuSans-63" transform="scale(0.015625)"/>
       <path d="M 1959 3097 
Q 1497 3097 1228 2736 
Q 959 2375 959 1747 
Q 959 1119 1226 758 
Q 1494 397 1959 397 
Q 2419 397 2687 759 
Q 2956 1122 2956 1747 
Q 2956 2369 2687 2733 
Q 2419 3097 1959 3097 
z
M 1959 3584 
Q 2709 3584 3137 3096 
Q 3566 2609 3566 1747 
Q 3566 888 3137 398 
Q 2709 -91 1959 -91 
Q 1206 -91 779 398 
Q 353 888 353 1747 
Q 353 2609 779 3096 
Q 1206 3584 1959 3584 
z
" id="DejaVuSans-6f" transform="scale(0.015625)"/>
       <path d="M 2834 3397 
L 2834 2853 
Q 2591 2978 2328 3040 
Q 2066 3103 1784 3103 
Q 1356 3103 1142 2972 
Q 928 2841 928 2578 
Q 928 2378 1081 2264 
Q 1234 2150 1697 2047 
L 1894 2003 
Q 2506 1872 2764 1633 
Q 3022 1394 3022 966 
Q 3022 478 2636 193 
Q 2250 -91 1575 -91 
Q 1294 -91 989 -36 
Q 684 19 347 128 
L 347 722 
Q 666 556 975 473 
Q 1284 391 1588 391 
Q 1994 391 2212 530 
Q 2431 669 2431 922 
Q 2431 1156 2273 1281 
Q 2116 1406 1581 1522 
L 1381 1569 
Q 847 1681 609 1914 
Q 372 2147 372 2553 
Q 372 3047 722 3315 
Q 1072 3584 1716 3584 
Q 2034 3584 2315 3537 
Q 2597 3491 2834 3397 
z
" id="DejaVuSans-73" transform="scale(0.015625)"/>
       <path d="M 603 3500 
L 1178 3500 
L 1178 0 
L 603 0 
L 603 3500 
z
M 603 4863 
L 1178 4863 
L 1178 4134 
L 603 4134 
L 603 4863 
z
" id="DejaVuSans-69" transform="scale(0.015625)"/>
       <path d="M 603 4863 
L 1178 4863 
L 1178 0 
L 603 0 
L 603 4863 
z
" id="DejaVuSans-6c" transform="scale(0.015625)"/>
       <path d="M 2631 2963 
Q 2534 3019 2420 3045 
Q 2306 3072 2169 3072 
Q 1681 3072 1420 2755 
Q 1159 2438 1159 1844 
L 1159 0 
L 581 0 
L 581 3500 
L 1159 3500 
L 1159 2956 
Q 1341 3275 1631 3429 
Q 1922 3584 2338 3584 
Q 2397 3584 2469 3576 
Q 2541 3569 2628 3553 
L 2631 2963 
z
" id="DejaVuSans-72" transform="scale(0.015625)"/>
      </defs>
      <use xlink:href="#DejaVuSans-6d"/>
      <use x="97.412109" xlink:href="#DejaVuSans-61"/>
      <use x="158.691406" xlink:href="#DejaVuSans-6e"/>
      <use x="222.070312" xlink:href="#DejaVuSans-64"/>
      <use x="285.546875" xlink:href="#DejaVuSans-61"/>
      <use x="346.826172" xlink:href="#DejaVuSans-74"/>
      <use x="386.035156" xlink:href="#DejaVuSans-20"/>
      <use x="417.822266" xlink:href="#DejaVuSans-64"/>
      <use x="481.298828" xlink:href="#DejaVuSans-65"/>
      <use x="542.822266" xlink:href="#DejaVuSans-20"/>
      <use x="574.609375" xlink:href="#DejaVuSans-63"/>
      <use x="629.589844" xlink:href="#DejaVuSans-6f"/>
      <use x="690.771484" xlink:href="#DejaVuSans-6e"/>
      <use x="754.150391" xlink:href="#DejaVuSans-73"/>
      <use x="806.25" xlink:href="#DejaVuSans-65"/>
      <use x="867.773438" xlink:href="#DejaVuSans-69"/>
      <use x="895.556641" xlink:href="#DejaVuSans-6c"/>
      <use x="923.339844" xlink:href="#DejaVuSans-6c"/>
      <use x="951.123047" xlink:href="#DejaVuSans-65"/>
      <use x="1012.646484" xlink:href="#DejaVuSans-72"/>
     </g>
    </g>
   </g>
   <g id="matplotlib.axis_2">
    <g id="ytick_1">
     <g id="text_10">
      <!-- renner, diebolt -->
      <g style="fill:#262626;" transform="translate(92.302344 36.175569)scale(0.11 -0.11)">
       <defs>
        <path d="M 750 794 
L 1409 794 
L 1409 256 
L 897 -744 
L 494 -744 
L 750 256 
L 750 794 
z
" id="DejaVuSans-2c" transform="scale(0.015625)"/>
        <path d="M 3116 1747 
Q 3116 2381 2855 2742 
Q 2594 3103 2138 3103 
Q 1681 3103 1420 2742 
Q 1159 2381 1159 1747 
Q 1159 1113 1420 752 
Q 1681 391 2138 391 
Q 2594 391 2855 752 
Q 3116 1113 3116 1747 
z
M 1159 2969 
Q 1341 3281 1617 3432 
Q 1894 3584 2278 3584 
Q 2916 3584 3314 3078 
Q 3713 2572 3713 1747 
Q 3713 922 3314 415 
Q 2916 -91 2278 -91 
Q 1894 -91 1617 61 
Q 1341 213 1159 525 
L 1159 0 
L 581 0 
L 581 4863 
L 1159 4863 
L 1159 2969 
z
" id="DejaVuSans-62" transform="scale(0.015625)"/>
       </defs>
       <use xlink:href="#DejaVuSans-72"/>
       <use x="38.863281" xlink:href="#DejaVuSans-65"/>
       <use x="100.386719" xlink:href="#DejaVuSans-6e"/>
       <use x="163.765625" xlink:href="#DejaVuSans-6e"/>
       <use x="227.144531" xlink:href="#DejaVuSans-65"/>
       <use x="288.667969" xlink:href="#DejaVuSans-72"/>
       <use x="329.78125" xlink:href="#DejaVuSans-2c"/>
       <use x="361.568359" xlink:href="#DejaVuSans-20"/>
       <use x="393.355469" xlink:href="#DejaVuSans-64"/>
       <use x="456.832031" xlink:href="#DejaVuSans-69"/>
       <use x="484.615234" xlink:href="#DejaVuSans-65"/>
       <use x="546.138672" xlink:href="#DejaVuSans-62"/>
       <use x="609.615234" xlink:href="#DejaVuSans-6f"/>
       <use x="670.796875" xlink:href="#DejaVuSans-6c"/>
       <use x="698.580078" xlink:href="#DejaVuSans-74"/>
      </g>
     </g>
    </g>
    <g id="ytick_2">
     <g id="text_11">
      <!-- koch, johanns, der alte -->
      <g style="fill:#262626;" transform="translate(47.93625 74.248426)scale(0.11 -0.11)">
       <defs>
        <path d="M 581 4863 
L 1159 4863 
L 1159 1991 
L 2875 3500 
L 3609 3500 
L 1753 1863 
L 3688 0 
L 2938 0 
L 1159 1709 
L 1159 0 
L 581 0 
L 581 4863 
z
" id="DejaVuSans-6b" transform="scale(0.015625)"/>
        <path d="M 3513 2113 
L 3513 0 
L 2938 0 
L 2938 2094 
Q 2938 2591 2744 2837 
Q 2550 3084 2163 3084 
Q 1697 3084 1428 2787 
Q 1159 2491 1159 1978 
L 1159 0 
L 581 0 
L 581 4863 
L 1159 4863 
L 1159 2956 
Q 1366 3272 1645 3428 
Q 1925 3584 2291 3584 
Q 2894 3584 3203 3211 
Q 3513 2838 3513 2113 
z
" id="DejaVuSans-68" transform="scale(0.015625)"/>
        <path d="M 603 3500 
L 1178 3500 
L 1178 -63 
Q 1178 -731 923 -1031 
Q 669 -1331 103 -1331 
L -116 -1331 
L -116 -844 
L 38 -844 
Q 366 -844 484 -692 
Q 603 -541 603 -63 
L 603 3500 
z
M 603 4863 
L 1178 4863 
L 1178 4134 
L 603 4134 
L 603 4863 
z
" id="DejaVuSans-6a" transform="scale(0.015625)"/>
       </defs>
       <use xlink:href="#DejaVuSans-6b"/>
       <use x="54.285156" xlink:href="#DejaVuSans-6f"/>
       <use x="115.466797" xlink:href="#DejaVuSans-63"/>
       <use x="170.447266" xlink:href="#DejaVuSans-68"/>
       <use x="233.826172" xlink:href="#DejaVuSans-2c"/>
       <use x="265.613281" xlink:href="#DejaVuSans-20"/>
       <use x="297.400391" xlink:href="#DejaVuSans-6a"/>
       <use x="325.183594" xlink:href="#DejaVuSans-6f"/>
       <use x="386.365234" xlink:href="#DejaVuSans-68"/>
       <use x="449.744141" xlink:href="#DejaVuSans-61"/>
       <use x="511.023438" xlink:href="#DejaVuSans-6e"/>
       <use x="574.402344" xlink:href="#DejaVuSans-6e"/>
       <use x="637.78125" xlink:href="#DejaVuSans-73"/>
       <use x="689.880859" xlink:href="#DejaVuSans-2c"/>
       <use x="721.667969" xlink:href="#DejaVuSans-20"/>
       <use x="753.455078" xlink:href="#DejaVuSans-64"/>
       <use x="816.931641" xlink:href="#DejaVuSans-65"/>
       <use x="878.455078" xlink:href="#DejaVuSans-72"/>
       <use x="919.568359" xlink:href="#DejaVuSans-20"/>
       <use x="951.355469" xlink:href="#DejaVuSans-61"/>
       <use x="1012.634766" xlink:href="#DejaVuSans-6c"/>
       <use x="1040.417969" xlink:href="#DejaVuSans-74"/>
       <use x="1079.626953" xlink:href="#DejaVuSans-65"/>
      </g>
     </g>
    </g>
    <g id="ytick_3">
     <g id="text_12">
      <!-- girbaden, johanns -->
      <g style="fill:#262626;" transform="translate(74.288125 112.321283)scale(0.11 -0.11)">
       <defs>
        <path d="M 2906 1791 
Q 2906 2416 2648 2759 
Q 2391 3103 1925 3103 
Q 1463 3103 1205 2759 
Q 947 2416 947 1791 
Q 947 1169 1205 825 
Q 1463 481 1925 481 
Q 2391 481 2648 825 
Q 2906 1169 2906 1791 
z
M 3481 434 
Q 3481 -459 3084 -895 
Q 2688 -1331 1869 -1331 
Q 1566 -1331 1297 -1286 
Q 1028 -1241 775 -1147 
L 775 -588 
Q 1028 -725 1275 -790 
Q 1522 -856 1778 -856 
Q 2344 -856 2625 -561 
Q 2906 -266 2906 331 
L 2906 616 
Q 2728 306 2450 153 
Q 2172 0 1784 0 
Q 1141 0 747 490 
Q 353 981 353 1791 
Q 353 2603 747 3093 
Q 1141 3584 1784 3584 
Q 2172 3584 2450 3431 
Q 2728 3278 2906 2969 
L 2906 3500 
L 3481 3500 
L 3481 434 
z
" id="DejaVuSans-67" transform="scale(0.015625)"/>
       </defs>
       <use xlink:href="#DejaVuSans-67"/>
       <use x="63.476562" xlink:href="#DejaVuSans-69"/>
       <use x="91.259766" xlink:href="#DejaVuSans-72"/>
       <use x="132.373047" xlink:href="#DejaVuSans-62"/>
       <use x="195.849609" xlink:href="#DejaVuSans-61"/>
       <use x="257.128906" xlink:href="#DejaVuSans-64"/>
       <use x="320.605469" xlink:href="#DejaVuSans-65"/>
       <use x="382.128906" xlink:href="#DejaVuSans-6e"/>
       <use x="445.507812" xlink:href="#DejaVuSans-2c"/>
       <use x="477.294922" xlink:href="#DejaVuSans-20"/>
       <use x="509.082031" xlink:href="#DejaVuSans-6a"/>
       <use x="536.865234" xlink:href="#DejaVuSans-6f"/>
       <use x="598.046875" xlink:href="#DejaVuSans-68"/>
       <use x="661.425781" xlink:href="#DejaVuSans-61"/>
       <use x="722.705078" xlink:href="#DejaVuSans-6e"/>
       <use x="786.083984" xlink:href="#DejaVuSans-6e"/>
       <use x="849.462891" xlink:href="#DejaVuSans-73"/>
      </g>
     </g>
    </g>
    <g id="ytick_4">
     <g id="text_13">
      <!-- hebnagel, johanns -->
      <g style="fill:#262626;" transform="translate(72.05375 150.394141)scale(0.11 -0.11)">
       <use xlink:href="#DejaVuSans-68"/>
       <use x="63.378906" xlink:href="#DejaVuSans-65"/>
       <use x="124.902344" xlink:href="#DejaVuSans-62"/>
       <use x="188.378906" xlink:href="#DejaVuSans-6e"/>
       <use x="251.757812" xlink:href="#DejaVuSans-61"/>
       <use x="313.037109" xlink:href="#DejaVuSans-67"/>
       <use x="376.513672" xlink:href="#DejaVuSans-65"/>
       <use x="438.037109" xlink:href="#DejaVuSans-6c"/>
       <use x="465.820312" xlink:href="#DejaVuSans-2c"/>
       <use x="497.607422" xlink:href="#DejaVuSans-20"/>
       <use x="529.394531" xlink:href="#DejaVuSans-6a"/>
       <use x="557.177734" xlink:href="#DejaVuSans-6f"/>
       <use x="618.359375" xlink:href="#DejaVuSans-68"/>
       <use x="681.738281" xlink:href="#DejaVuSans-61"/>
       <use x="743.017578" xlink:href="#DejaVuSans-6e"/>
       <use x="806.396484" xlink:href="#DejaVuSans-6e"/>
       <use x="869.775391" xlink:href="#DejaVuSans-73"/>
      </g>
     </g>
    </g>
    <g id="ytick_5">
     <g id="text_14">
      <!-- könig, claus -->
      <g style="fill:#262626;" transform="translate(108.209375 188.466998)scale(0.11 -0.11)">
       <defs>
        <path d="M 1959 3097 
Q 1497 3097 1228 2736 
Q 959 2375 959 1747 
Q 959 1119 1226 758 
Q 1494 397 1959 397 
Q 2419 397 2687 759 
Q 2956 1122 2956 1747 
Q 2956 2369 2687 2733 
Q 2419 3097 1959 3097 
z
M 1959 3584 
Q 2709 3584 3137 3096 
Q 3566 2609 3566 1747 
Q 3566 888 3137 398 
Q 2709 -91 1959 -91 
Q 1206 -91 779 398 
Q 353 888 353 1747 
Q 353 2609 779 3096 
Q 1206 3584 1959 3584 
z
M 2253 4850 
L 2888 4850 
L 2888 4219 
L 2253 4219 
L 2253 4850 
z
M 1031 4850 
L 1666 4850 
L 1666 4219 
L 1031 4219 
L 1031 4850 
z
" id="DejaVuSans-f6" transform="scale(0.015625)"/>
        <path d="M 544 1381 
L 544 3500 
L 1119 3500 
L 1119 1403 
Q 1119 906 1312 657 
Q 1506 409 1894 409 
Q 2359 409 2629 706 
Q 2900 1003 2900 1516 
L 2900 3500 
L 3475 3500 
L 3475 0 
L 2900 0 
L 2900 538 
Q 2691 219 2414 64 
Q 2138 -91 1772 -91 
Q 1169 -91 856 284 
Q 544 659 544 1381 
z
M 1991 3584 
L 1991 3584 
z
" id="DejaVuSans-75" transform="scale(0.015625)"/>
       </defs>
       <use xlink:href="#DejaVuSans-6b"/>
       <use x="54.285156" xlink:href="#DejaVuSans-f6"/>
       <use x="115.466797" xlink:href="#DejaVuSans-6e"/>
       <use x="178.845703" xlink:href="#DejaVuSans-69"/>
       <use x="206.628906" xlink:href="#DejaVuSans-67"/>
       <use x="270.105469" xlink:href="#DejaVuSans-2c"/>
       <use x="301.892578" xlink:href="#DejaVuSans-20"/>
       <use x="333.679688" xlink:href="#DejaVuSans-63"/>
       <use x="388.660156" xlink:href="#DejaVuSans-6c"/>
       <use x="416.443359" xlink:href="#DejaVuSans-61"/>
       <use x="477.722656" xlink:href="#DejaVuSans-75"/>
       <use x="541.101562" xlink:href="#DejaVuSans-73"/>
      </g>
     </g>
    </g>
    <g id="ytick_6">
     <g id="text_15">
      <!-- spiegel, johanns -->
      <g style="fill:#262626;" transform="translate(83.950938 226.539855)scale(0.11 -0.11)">
       <defs>
        <path d="M 1159 525 
L 1159 -1331 
L 581 -1331 
L 581 3500 
L 1159 3500 
L 1159 2969 
Q 1341 3281 1617 3432 
Q 1894 3584 2278 3584 
Q 2916 3584 3314 3078 
Q 3713 2572 3713 1747 
Q 3713 922 3314 415 
Q 2916 -91 2278 -91 
Q 1894 -91 1617 61 
Q 1341 213 1159 525 
z
M 3116 1747 
Q 3116 2381 2855 2742 
Q 2594 3103 2138 3103 
Q 1681 3103 1420 2742 
Q 1159 2381 1159 1747 
Q 1159 1113 1420 752 
Q 1681 391 2138 391 
Q 2594 391 2855 752 
Q 3116 1113 3116 1747 
z
" id="DejaVuSans-70" transform="scale(0.015625)"/>
       </defs>
       <use xlink:href="#DejaVuSans-73"/>
       <use x="52.099609" xlink:href="#DejaVuSans-70"/>
       <use x="115.576172" xlink:href="#DejaVuSans-69"/>
       <use x="143.359375" xlink:href="#DejaVuSans-65"/>
       <use x="204.882812" xlink:href="#DejaVuSans-67"/>
       <use x="268.359375" xlink:href="#DejaVuSans-65"/>
       <use x="329.882812" xlink:href="#DejaVuSans-6c"/>
       <use x="357.666016" xlink:href="#DejaVuSans-2c"/>
       <use x="389.453125" xlink:href="#DejaVuSans-20"/>
       <use x="421.240234" xlink:href="#DejaVuSans-6a"/>
       <use x="449.023438" xlink:href="#DejaVuSans-6f"/>
       <use x="510.205078" xlink:href="#DejaVuSans-68"/>
       <use x="573.583984" xlink:href="#DejaVuSans-61"/>
       <use x="634.863281" xlink:href="#DejaVuSans-6e"/>
       <use x="698.242188" xlink:href="#DejaVuSans-6e"/>
       <use x="761.621094" xlink:href="#DejaVuSans-73"/>
      </g>
     </g>
    </g>
    <g id="ytick_7">
     <g id="text_16">
      <!-- koch, johanns, der junge -->
      <g style="fill:#262626;" transform="translate(38.06375 264.612712)scale(0.11 -0.11)">
       <use xlink:href="#DejaVuSans-6b"/>
       <use x="54.285156" xlink:href="#DejaVuSans-6f"/>
       <use x="115.466797" xlink:href="#DejaVuSans-63"/>
       <use x="170.447266" xlink:href="#DejaVuSans-68"/>
       <use x="233.826172" xlink:href="#DejaVuSans-2c"/>
       <use x="265.613281" xlink:href="#DejaVuSans-20"/>
       <use x="297.400391" xlink:href="#DejaVuSans-6a"/>
       <use x="325.183594" xlink:href="#DejaVuSans-6f"/>
       <use x="386.365234" xlink:href="#DejaVuSans-68"/>
       <use x="449.744141" xlink:href="#DejaVuSans-61"/>
       <use x="511.023438" xlink:href="#DejaVuSans-6e"/>
       <use x="574.402344" xlink:href="#DejaVuSans-6e"/>
       <use x="637.78125" xlink:href="#DejaVuSans-73"/>
       <use x="689.880859" xlink:href="#DejaVuSans-2c"/>
       <use x="721.667969" xlink:href="#DejaVuSans-20"/>
       <use x="753.455078" xlink:href="#DejaVuSans-64"/>
       <use x="816.931641" xlink:href="#DejaVuSans-65"/>
       <use x="878.455078" xlink:href="#DejaVuSans-72"/>
       <use x="919.568359" xlink:href="#DejaVuSans-20"/>
       <use x="951.355469" xlink:href="#DejaVuSans-6a"/>
       <use x="979.138672" xlink:href="#DejaVuSans-75"/>
       <use x="1042.517578" xlink:href="#DejaVuSans-6e"/>
       <use x="1105.896484" xlink:href="#DejaVuSans-67"/>
       <use x="1169.373047" xlink:href="#DejaVuSans-65"/>
      </g>
     </g>
    </g>
    <g id="ytick_8">
     <g id="text_17">
      <!-- kork, von, peter -->
      <g style="fill:#262626;" transform="translate(86.315938 302.685569)scale(0.11 -0.11)">
       <defs>
        <path d="M 191 3500 
L 800 3500 
L 1894 563 
L 2988 3500 
L 3597 3500 
L 2284 0 
L 1503 0 
L 191 3500 
z
" id="DejaVuSans-76" transform="scale(0.015625)"/>
       </defs>
       <use xlink:href="#DejaVuSans-6b"/>
       <use x="54.285156" xlink:href="#DejaVuSans-6f"/>
       <use x="115.466797" xlink:href="#DejaVuSans-72"/>
       <use x="156.580078" xlink:href="#DejaVuSans-6b"/>
       <use x="214.490234" xlink:href="#DejaVuSans-2c"/>
       <use x="246.277344" xlink:href="#DejaVuSans-20"/>
       <use x="278.064453" xlink:href="#DejaVuSans-76"/>
       <use x="337.244141" xlink:href="#DejaVuSans-6f"/>
       <use x="398.425781" xlink:href="#DejaVuSans-6e"/>
       <use x="461.804688" xlink:href="#DejaVuSans-2c"/>
       <use x="493.591797" xlink:href="#DejaVuSans-20"/>
       <use x="525.378906" xlink:href="#DejaVuSans-70"/>
       <use x="588.855469" xlink:href="#DejaVuSans-65"/>
       <use x="650.378906" xlink:href="#DejaVuSans-74"/>
       <use x="689.587891" xlink:href="#DejaVuSans-65"/>
       <use x="751.111328" xlink:href="#DejaVuSans-72"/>
      </g>
     </g>
    </g>
    <g id="ytick_9">
     <g id="text_18">
      <!-- wile, von, johanns -->
      <g style="fill:#262626;" transform="translate(74.215938 340.758426)scale(0.11 -0.11)">
       <defs>
        <path d="M 269 3500 
L 844 3500 
L 1563 769 
L 2278 3500 
L 2956 3500 
L 3675 769 
L 4391 3500 
L 4966 3500 
L 4050 0 
L 3372 0 
L 2619 2869 
L 1863 0 
L 1184 0 
L 269 3500 
z
" id="DejaVuSans-77" transform="scale(0.015625)"/>
       </defs>
       <use xlink:href="#DejaVuSans-77"/>
       <use x="81.787109" xlink:href="#DejaVuSans-69"/>
       <use x="109.570312" xlink:href="#DejaVuSans-6c"/>
       <use x="137.353516" xlink:href="#DejaVuSans-65"/>
       <use x="198.876953" xlink:href="#DejaVuSans-2c"/>
       <use x="230.664062" xlink:href="#DejaVuSans-20"/>
       <use x="262.451172" xlink:href="#DejaVuSans-76"/>
       <use x="321.630859" xlink:href="#DejaVuSans-6f"/>
       <use x="382.8125" xlink:href="#DejaVuSans-6e"/>
       <use x="446.191406" xlink:href="#DejaVuSans-2c"/>
       <use x="477.978516" xlink:href="#DejaVuSans-20"/>
       <use x="509.765625" xlink:href="#DejaVuSans-6a"/>
       <use x="537.548828" xlink:href="#DejaVuSans-6f"/>
       <use x="598.730469" xlink:href="#DejaVuSans-68"/>
       <use x="662.109375" xlink:href="#DejaVuSans-61"/>
       <use x="723.388672" xlink:href="#DejaVuSans-6e"/>
       <use x="786.767578" xlink:href="#DejaVuSans-6e"/>
       <use x="850.146484" xlink:href="#DejaVuSans-73"/>
      </g>
     </g>
    </g>
    <g id="ytick_10">
     <g id="text_19">
      <!-- thann, von, johanns -->
      <g style="fill:#262626;" transform="translate(64.125156 378.831283)scale(0.11 -0.11)">
       <use xlink:href="#DejaVuSans-74"/>
       <use x="39.208984" xlink:href="#DejaVuSans-68"/>
       <use x="102.587891" xlink:href="#DejaVuSans-61"/>
       <use x="163.867188" xlink:href="#DejaVuSans-6e"/>
       <use x="227.246094" xlink:href="#DejaVuSans-6e"/>
       <use x="290.625" xlink:href="#DejaVuSans-2c"/>
       <use x="322.412109" xlink:href="#DejaVuSans-20"/>
       <use x="354.199219" xlink:href="#DejaVuSans-76"/>
       <use x="413.378906" xlink:href="#DejaVuSans-6f"/>
       <use x="474.560547" xlink:href="#DejaVuSans-6e"/>
       <use x="537.939453" xlink:href="#DejaVuSans-2c"/>
       <use x="569.726562" xlink:href="#DejaVuSans-20"/>
       <use x="601.513672" xlink:href="#DejaVuSans-6a"/>
       <use x="629.296875" xlink:href="#DejaVuSans-6f"/>
       <use x="690.478516" xlink:href="#DejaVuSans-68"/>
       <use x="753.857422" xlink:href="#DejaVuSans-61"/>
       <use x="815.136719" xlink:href="#DejaVuSans-6e"/>
       <use x="878.515625" xlink:href="#DejaVuSans-6e"/>
       <use x="941.894531" xlink:href="#DejaVuSans-73"/>
      </g>
     </g>
    </g>
    <g id="ytick_11">
     <g id="text_20">
      <!-- morung, johanns -->
      <g style="fill:#262626;" transform="translate(80.403438 416.904141)scale(0.11 -0.11)">
       <use xlink:href="#DejaVuSans-6d"/>
       <use x="97.412109" xlink:href="#DejaVuSans-6f"/>
       <use x="158.59375" xlink:href="#DejaVuSans-72"/>
       <use x="199.707031" xlink:href="#DejaVuSans-75"/>
       <use x="263.085938" xlink:href="#DejaVuSans-6e"/>
       <use x="326.464844" xlink:href="#DejaVuSans-67"/>
       <use x="389.941406" xlink:href="#DejaVuSans-2c"/>
       <use x="421.728516" xlink:href="#DejaVuSans-20"/>
       <use x="453.515625" xlink:href="#DejaVuSans-6a"/>
       <use x="481.298828" xlink:href="#DejaVuSans-6f"/>
       <use x="542.480469" xlink:href="#DejaVuSans-68"/>
       <use x="605.859375" xlink:href="#DejaVuSans-61"/>
       <use x="667.138672" xlink:href="#DejaVuSans-6e"/>
       <use x="730.517578" xlink:href="#DejaVuSans-6e"/>
       <use x="793.896484" xlink:href="#DejaVuSans-73"/>
      </g>
     </g>
    </g>
    <g id="ytick_12">
     <g id="text_21">
      <!-- wildersinn, johanns -->
      <g style="fill:#262626;" transform="translate(67.18625 454.976998)scale(0.11 -0.11)">
       <use xlink:href="#DejaVuSans-77"/>
       <use x="81.787109" xlink:href="#DejaVuSans-69"/>
       <use x="109.570312" xlink:href="#DejaVuSans-6c"/>
       <use x="137.353516" xlink:href="#DejaVuSans-64"/>
       <use x="200.830078" xlink:href="#DejaVuSans-65"/>
       <use x="262.353516" xlink:href="#DejaVuSans-72"/>
       <use x="303.466797" xlink:href="#DejaVuSans-73"/>
       <use x="355.566406" xlink:href="#DejaVuSans-69"/>
       <use x="383.349609" xlink:href="#DejaVuSans-6e"/>
       <use x="446.728516" xlink:href="#DejaVuSans-6e"/>
       <use x="510.107422" xlink:href="#DejaVuSans-2c"/>
       <use x="541.894531" xlink:href="#DejaVuSans-20"/>
       <use x="573.681641" xlink:href="#DejaVuSans-6a"/>
       <use x="601.464844" xlink:href="#DejaVuSans-6f"/>
       <use x="662.646484" xlink:href="#DejaVuSans-68"/>
       <use x="726.025391" xlink:href="#DejaVuSans-61"/>
       <use x="787.304688" xlink:href="#DejaVuSans-6e"/>
       <use x="850.683594" xlink:href="#DejaVuSans-6e"/>
       <use x="914.0625" xlink:href="#DejaVuSans-73"/>
      </g>
     </g>
    </g>
    <g id="ytick_13">
     <g id="text_22">
      <!-- schlettstadt, von, johanns -->
      <g style="fill:#262626;" transform="translate(30.814063 493.049855)scale(0.11 -0.11)">
       <use xlink:href="#DejaVuSans-73"/>
       <use x="52.099609" xlink:href="#DejaVuSans-63"/>
       <use x="107.080078" xlink:href="#DejaVuSans-68"/>
       <use x="170.458984" xlink:href="#DejaVuSans-6c"/>
       <use x="198.242188" xlink:href="#DejaVuSans-65"/>
       <use x="259.765625" xlink:href="#DejaVuSans-74"/>
       <use x="298.974609" xlink:href="#DejaVuSans-74"/>
       <use x="338.183594" xlink:href="#DejaVuSans-73"/>
       <use x="390.283203" xlink:href="#DejaVuSans-74"/>
       <use x="429.492188" xlink:href="#DejaVuSans-61"/>
       <use x="490.771484" xlink:href="#DejaVuSans-64"/>
       <use x="554.248047" xlink:href="#DejaVuSans-74"/>
       <use x="593.457031" xlink:href="#DejaVuSans-2c"/>
       <use x="625.244141" xlink:href="#DejaVuSans-20"/>
       <use x="657.03125" xlink:href="#DejaVuSans-76"/>
       <use x="716.210938" xlink:href="#DejaVuSans-6f"/>
       <use x="777.392578" xlink:href="#DejaVuSans-6e"/>
       <use x="840.771484" xlink:href="#DejaVuSans-2c"/>
       <use x="872.558594" xlink:href="#DejaVuSans-20"/>
       <use x="904.345703" xlink:href="#DejaVuSans-6a"/>
       <use x="932.128906" xlink:href="#DejaVuSans-6f"/>
       <use x="993.310547" xlink:href="#DejaVuSans-68"/>
       <use x="1056.689453" xlink:href="#DejaVuSans-61"/>
       <use x="1117.96875" xlink:href="#DejaVuSans-6e"/>
       <use x="1181.347656" xlink:href="#DejaVuSans-6e"/>
       <use x="1244.726562" xlink:href="#DejaVuSans-73"/>
      </g>
     </g>
    </g>
    <g id="ytick_14">
     <g id="text_23">
      <!-- lütolt, michel -->
      <g style="fill:#262626;" transform="translate(101.415156 531.122712)scale(0.11 -0.11)">
       <defs>
        <path d="M 544 1381 
L 544 3500 
L 1119 3500 
L 1119 1403 
Q 1119 906 1312 657 
Q 1506 409 1894 409 
Q 2359 409 2629 706 
Q 2900 1003 2900 1516 
L 2900 3500 
L 3475 3500 
L 3475 0 
L 2900 0 
L 2900 538 
Q 2691 219 2414 64 
Q 2138 -91 1772 -91 
Q 1169 -91 856 284 
Q 544 659 544 1381 
z
M 1991 3584 
L 1991 3584 
z
M 2278 4850 
L 2913 4850 
L 2913 4219 
L 2278 4219 
L 2278 4850 
z
M 1056 4850 
L 1691 4850 
L 1691 4219 
L 1056 4219 
L 1056 4850 
z
" id="DejaVuSans-fc" transform="scale(0.015625)"/>
       </defs>
       <use xlink:href="#DejaVuSans-6c"/>
       <use x="27.783203" xlink:href="#DejaVuSans-fc"/>
       <use x="91.162109" xlink:href="#DejaVuSans-74"/>
       <use x="130.371094" xlink:href="#DejaVuSans-6f"/>
       <use x="191.552734" xlink:href="#DejaVuSans-6c"/>
       <use x="219.335938" xlink:href="#DejaVuSans-74"/>
       <use x="258.544922" xlink:href="#DejaVuSans-2c"/>
       <use x="290.332031" xlink:href="#DejaVuSans-20"/>
       <use x="322.119141" xlink:href="#DejaVuSans-6d"/>
       <use x="419.53125" xlink:href="#DejaVuSans-69"/>
       <use x="447.314453" xlink:href="#DejaVuSans-63"/>
       <use x="502.294922" xlink:href="#DejaVuSans-68"/>
       <use x="565.673828" xlink:href="#DejaVuSans-65"/>
       <use x="627.197266" xlink:href="#DejaVuSans-6c"/>
      </g>
     </g>
    </g>
    <g id="text_24">
     <!-- id -->
     <g style="fill:#262626;" transform="translate(24.318438 284.945937)rotate(-90)scale(0.12 -0.12)">
      <use xlink:href="#DejaVuSans-69"/>
      <use x="27.783203" xlink:href="#DejaVuSans-64"/>
     </g>
    </g>
   </g>
   <g id="patch_3">
    <path clip-path="url(#pf2e87ff715)" d="M 182.96 16.767286 
L 710.698776 16.767286 
L 710.698776 31.996429 
L 182.96 31.996429 
z
" style="fill:#5875a4;stroke:#ffffff;stroke-linejoin:miter;"/>
   </g>
   <g id="patch_4">
    <path clip-path="url(#pf2e87ff715)" d="M 182.96 54.840143 
L 358.872925 54.840143 
L 358.872925 70.069286 
L 182.96 70.069286 
z
" style="fill:#5875a4;stroke:#ffffff;stroke-linejoin:miter;"/>
   </g>
   <g id="patch_5">
    <path clip-path="url(#pf2e87ff715)" d="M 182.96 92.913 
L 270.916463 92.913 
L 270.916463 108.142143 
L 182.96 108.142143 
z
" style="fill:#5875a4;stroke:#ffffff;stroke-linejoin:miter;"/>
   </g>
   <g id="patch_6">
    <path clip-path="url(#pf2e87ff715)" d="M 182.96 130.985857 
L 270.916463 130.985857 
L 270.916463 146.215 
L 182.96 146.215 
z
" style="fill:#5875a4;stroke:#ffffff;stroke-linejoin:miter;"/>
   </g>
   <g id="patch_7">
    <path clip-path="url(#pf2e87ff715)" d="M 182.96 169.058714 
L 358.872925 169.058714 
L 358.872925 184.287857 
L 182.96 184.287857 
z
" style="fill:#5875a4;stroke:#ffffff;stroke-linejoin:miter;"/>
   </g>
   <g id="patch_8">
    <path clip-path="url(#pf2e87ff715)" d="M 182.96 207.131571 
L 358.872925 207.131571 
L 358.872925 222.360714 
L 182.96 222.360714 
z
" style="fill:#5875a4;stroke:#ffffff;stroke-linejoin:miter;"/>
   </g>
   <g id="patch_9">
    <path clip-path="url(#pf2e87ff715)" d="M 182.96 245.204429 
L 270.916463 245.204429 
L 270.916463 260.433571 
L 182.96 260.433571 
z
" style="fill:#5875a4;stroke:#ffffff;stroke-linejoin:miter;"/>
   </g>
   <g id="patch_10">
    <path clip-path="url(#pf2e87ff715)" d="M 182.96 283.277286 
L 270.916463 283.277286 
L 270.916463 298.506429 
L 182.96 298.506429 
z
" style="fill:#5875a4;stroke:#ffffff;stroke-linejoin:miter;"/>
   </g>
   <g id="patch_11">
    <path clip-path="url(#pf2e87ff715)" d="M 182.96 321.350143 
L 182.96 321.350143 
L 182.96 336.579286 
L 182.96 336.579286 
z
" style="fill:#5875a4;stroke:#ffffff;stroke-linejoin:miter;"/>
   </g>
   <g id="patch_12">
    <path clip-path="url(#pf2e87ff715)" d="M 182.96 359.423 
L 182.96 359.423 
L 182.96 374.652143 
L 182.96 374.652143 
z
" style="fill:#5875a4;stroke:#ffffff;stroke-linejoin:miter;"/>
   </g>
   <g id="patch_13">
    <path clip-path="url(#pf2e87ff715)" d="M 182.96 397.495857 
L 182.96 397.495857 
L 182.96 412.725 
L 182.96 412.725 
z
" style="fill:#5875a4;stroke:#ffffff;stroke-linejoin:miter;"/>
   </g>
   <g id="patch_14">
    <path clip-path="url(#pf2e87ff715)" d="M 182.96 435.568714 
L 182.96 435.568714 
L 182.96 450.797857 
L 182.96 450.797857 
z
" style="fill:#5875a4;stroke:#ffffff;stroke-linejoin:miter;"/>
   </g>
   <g id="patch_15">
    <path clip-path="url(#pf2e87ff715)" d="M 182.96 473.641571 
L 182.96 473.641571 
L 182.96 488.870714 
L 182.96 488.870714 
z
" style="fill:#5875a4;stroke:#ffffff;stroke-linejoin:miter;"/>
   </g>
   <g id="patch_16">
    <path clip-path="url(#pf2e87ff715)" d="M 182.96 511.714429 
L 182.96 511.714429 
L 182.96 526.943571 
L 182.96 526.943571 
z
" style="fill:#5875a4;stroke:#ffffff;stroke-linejoin:miter;"/>
   </g>
   <g id="patch_17">
    <path clip-path="url(#pf2e87ff715)" d="M 182.96 31.996429 
L 182.96 31.996429 
L 182.96 47.225571 
L 182.96 47.225571 
z
" style="fill:#cc8963;stroke:#ffffff;stroke-linejoin:miter;"/>
   </g>
   <g id="patch_18">
    <path clip-path="url(#pf2e87ff715)" d="M 182.96 70.069286 
L 182.96 70.069286 
L 182.96 85.298429 
L 182.96 85.298429 
z
" style="fill:#cc8963;stroke:#ffffff;stroke-linejoin:miter;"/>
   </g>
   <g id="patch_19">
    <path clip-path="url(#pf2e87ff715)" d="M 182.96 108.142143 
L 182.96 108.142143 
L 182.96 123.371286 
L 182.96 123.371286 
z
" style="fill:#cc8963;stroke:#ffffff;stroke-linejoin:miter;"/>
   </g>
   <g id="patch_20">
    <path clip-path="url(#pf2e87ff715)" d="M 182.96 146.215 
L 182.96 146.215 
L 182.96 161.444143 
L 182.96 161.444143 
z
" style="fill:#cc8963;stroke:#ffffff;stroke-linejoin:miter;"/>
   </g>
   <g id="patch_21">
    <path clip-path="url(#pf2e87ff715)" d="M 182.96 184.287857 
L 182.96 184.287857 
L 182.96 199.517 
L 182.96 199.517 
z
" style="fill:#cc8963;stroke:#ffffff;stroke-linejoin:miter;"/>
   </g>
   <g id="patch_22">
    <path clip-path="url(#pf2e87ff715)" d="M 182.96 222.360714 
L 710.698776 222.360714 
L 710.698776 237.589857 
L 182.96 237.589857 
z
" style="fill:#cc8963;stroke:#ffffff;stroke-linejoin:miter;"/>
   </g>
   <g id="patch_23">
    <path clip-path="url(#pf2e87ff715)" d="M 182.96 260.433571 
L 270.916463 260.433571 
L 270.916463 275.662714 
L 182.96 275.662714 
z
" style="fill:#cc8963;stroke:#ffffff;stroke-linejoin:miter;"/>
   </g>
   <g id="patch_24">
    <path clip-path="url(#pf2e87ff715)" d="M 182.96 298.506429 
L 798.655238 298.506429 
L 798.655238 313.735571 
L 182.96 313.735571 
z
" style="fill:#cc8963;stroke:#ffffff;stroke-linejoin:miter;"/>
   </g>
   <g id="patch_25">
    <path clip-path="url(#pf2e87ff715)" d="M 182.96 336.579286 
L 446.829388 336.579286 
L 446.829388 351.808429 
L 182.96 351.808429 
z
" style="fill:#cc8963;stroke:#ffffff;stroke-linejoin:miter;"/>
   </g>
   <g id="patch_26">
    <path clip-path="url(#pf2e87ff715)" d="M 182.96 374.652143 
L 270.916463 374.652143 
L 270.916463 389.881286 
L 182.96 389.881286 
z
" style="fill:#cc8963;stroke:#ffffff;stroke-linejoin:miter;"/>
   </g>
   <g id="patch_27">
    <path clip-path="url(#pf2e87ff715)" d="M 182.96 412.725 
L 182.96 412.725 
L 182.96 427.954143 
L 182.96 427.954143 
z
" style="fill:#cc8963;stroke:#ffffff;stroke-linejoin:miter;"/>
   </g>
   <g id="patch_28">
    <path clip-path="url(#pf2e87ff715)" d="M 182.96 450.797857 
L 182.96 450.797857 
L 182.96 466.027 
L 182.96 466.027 
z
" style="fill:#cc8963;stroke:#ffffff;stroke-linejoin:miter;"/>
   </g>
   <g id="patch_29">
    <path clip-path="url(#pf2e87ff715)" d="M 182.96 488.870714 
L 182.96 488.870714 
L 182.96 504.099857 
L 182.96 504.099857 
z
" style="fill:#cc8963;stroke:#ffffff;stroke-linejoin:miter;"/>
   </g>
   <g id="patch_30">
    <path clip-path="url(#pf2e87ff715)" d="M 182.96 526.943571 
L 182.96 526.943571 
L 182.96 542.172714 
L 182.96 542.172714 
z
" style="fill:#cc8963;stroke:#ffffff;stroke-linejoin:miter;"/>
   </g>
   <g id="line2d_9">
    <path clip-path="url(#pf2e87ff715)" style="fill:none;stroke:#424242;stroke-linecap:round;stroke-width:2.7;"/>
   </g>
   <g id="line2d_10">
    <path clip-path="url(#pf2e87ff715)" style="fill:none;stroke:#424242;stroke-linecap:round;stroke-width:2.7;"/>
   </g>
   <g id="line2d_11">
    <path clip-path="url(#pf2e87ff715)" style="fill:none;stroke:#424242;stroke-linecap:round;stroke-width:2.7;"/>
   </g>
   <g id="line2d_12">
    <path clip-path="url(#pf2e87ff715)" style="fill:none;stroke:#424242;stroke-linecap:round;stroke-width:2.7;"/>
   </g>
   <g id="line2d_13">
    <path clip-path="url(#pf2e87ff715)" style="fill:none;stroke:#424242;stroke-linecap:round;stroke-width:2.7;"/>
   </g>
   <g id="line2d_14">
    <path clip-path="url(#pf2e87ff715)" style="fill:none;stroke:#424242;stroke-linecap:round;stroke-width:2.7;"/>
   </g>
   <g id="line2d_15">
    <path clip-path="url(#pf2e87ff715)" style="fill:none;stroke:#424242;stroke-linecap:round;stroke-width:2.7;"/>
   </g>
   <g id="line2d_16">
    <path clip-path="url(#pf2e87ff715)" style="fill:none;stroke:#424242;stroke-linecap:round;stroke-width:2.7;"/>
   </g>
   <g id="line2d_17">
    <path clip-path="url(#pf2e87ff715)" style="fill:none;stroke:#424242;stroke-linecap:round;stroke-width:2.7;"/>
   </g>
   <g id="line2d_18">
    <path clip-path="url(#pf2e87ff715)" style="fill:none;stroke:#424242;stroke-linecap:round;stroke-width:2.7;"/>
   </g>
   <g id="line2d_19">
    <path clip-path="url(#pf2e87ff715)" style="fill:none;stroke:#424242;stroke-linecap:round;stroke-width:2.7;"/>
   </g>
   <g id="line2d_20">
    <path clip-path="url(#pf2e87ff715)" style="fill:none;stroke:#424242;stroke-linecap:round;stroke-width:2.7;"/>
   </g>
   <g id="line2d_21">
    <path clip-path="url(#pf2e87ff715)" style="fill:none;stroke:#424242;stroke-linecap:round;stroke-width:2.7;"/>
   </g>
   <g id="line2d_22">
    <path clip-path="url(#pf2e87ff715)" style="fill:none;stroke:#424242;stroke-linecap:round;stroke-width:2.7;"/>
   </g>
   <g id="line2d_23">
    <path clip-path="url(#pf2e87ff715)" style="fill:none;stroke:#424242;stroke-linecap:round;stroke-width:2.7;"/>
   </g>
   <g id="line2d_24">
    <path clip-path="url(#pf2e87ff715)" style="fill:none;stroke:#424242;stroke-linecap:round;stroke-width:2.7;"/>
   </g>
   <g id="line2d_25">
    <path clip-path="url(#pf2e87ff715)" style="fill:none;stroke:#424242;stroke-linecap:round;stroke-width:2.7;"/>
   </g>
   <g id="line2d_26">
    <path clip-path="url(#pf2e87ff715)" style="fill:none;stroke:#424242;stroke-linecap:round;stroke-width:2.7;"/>
   </g>
   <g id="line2d_27">
    <path clip-path="url(#pf2e87ff715)" style="fill:none;stroke:#424242;stroke-linecap:round;stroke-width:2.7;"/>
   </g>
   <g id="line2d_28">
    <path clip-path="url(#pf2e87ff715)" style="fill:none;stroke:#424242;stroke-linecap:round;stroke-width:2.7;"/>
   </g>
   <g id="line2d_29">
    <path clip-path="url(#pf2e87ff715)" style="fill:none;stroke:#424242;stroke-linecap:round;stroke-width:2.7;"/>
   </g>
   <g id="line2d_30">
    <path clip-path="url(#pf2e87ff715)" style="fill:none;stroke:#424242;stroke-linecap:round;stroke-width:2.7;"/>
   </g>
   <g id="line2d_31">
    <path clip-path="url(#pf2e87ff715)" style="fill:none;stroke:#424242;stroke-linecap:round;stroke-width:2.7;"/>
   </g>
   <g id="line2d_32">
    <path clip-path="url(#pf2e87ff715)" style="fill:none;stroke:#424242;stroke-linecap:round;stroke-width:2.7;"/>
   </g>
   <g id="line2d_33">
    <path clip-path="url(#pf2e87ff715)" style="fill:none;stroke:#424242;stroke-linecap:round;stroke-width:2.7;"/>
   </g>
   <g id="line2d_34">
    <path clip-path="url(#pf2e87ff715)" style="fill:none;stroke:#424242;stroke-linecap:round;stroke-width:2.7;"/>
   </g>
   <g id="line2d_35">
    <path clip-path="url(#pf2e87ff715)" style="fill:none;stroke:#424242;stroke-linecap:round;stroke-width:2.7;"/>
   </g>
   <g id="line2d_36">
    <path clip-path="url(#pf2e87ff715)" style="fill:none;stroke:#424242;stroke-linecap:round;stroke-width:2.7;"/>
   </g>
   <g id="patch_31">
    <path d="M 182.96 545.98 
L 182.96 12.96 
" style="fill:none;stroke:#ffffff;stroke-linecap:square;stroke-linejoin:miter;stroke-width:1.25;"/>
   </g>
   <g id="patch_32">
    <path d="M 829.44 545.98 
L 829.44 12.96 
" style="fill:none;stroke:#ffffff;stroke-linecap:square;stroke-linejoin:miter;stroke-width:1.25;"/>
   </g>
   <g id="patch_33">
    <path d="M 182.96 545.98 
L 829.44 545.98 
" style="fill:none;stroke:#ffffff;stroke-linecap:square;stroke-linejoin:miter;stroke-width:1.25;"/>
   </g>
   <g id="patch_34">
    <path d="M 182.96 12.96 
L 829.44 12.96 
" style="fill:none;stroke:#ffffff;stroke-linecap:square;stroke-linejoin:miter;stroke-width:1.25;"/>
   </g>
   <g id="legend_1">
    <g id="patch_35">
     <path d="M 190.66 540.48 
L 364.030313 540.48 
Q 366.230313 540.48 366.230313 538.28 
L 366.230313 489.054375 
Q 366.230313 486.854375 364.030313 486.854375 
L 190.66 486.854375 
Q 188.46 486.854375 188.46 489.054375 
L 188.46 538.28 
Q 188.46 540.48 190.66 540.48 
z
" style="fill:#eaeaf2;opacity:0.8;stroke:#cccccc;stroke-linejoin:miter;"/>
    </g>
    <g id="text_25">
     <!-- époque -->
     <g style="fill:#262626;" transform="translate(254.869531 500.8525)scale(0.12 -0.12)">
      <defs>
       <path d="M 3597 1894 
L 3597 1613 
L 953 1613 
Q 991 1019 1311 708 
Q 1631 397 2203 397 
Q 2534 397 2845 478 
Q 3156 559 3463 722 
L 3463 178 
Q 3153 47 2828 -22 
Q 2503 -91 2169 -91 
Q 1331 -91 842 396 
Q 353 884 353 1716 
Q 353 2575 817 3079 
Q 1281 3584 2069 3584 
Q 2775 3584 3186 3129 
Q 3597 2675 3597 1894 
z
M 3022 2063 
Q 3016 2534 2758 2815 
Q 2500 3097 2075 3097 
Q 1594 3097 1305 2825 
Q 1016 2553 972 2059 
L 3022 2063 
z
M 2469 5119 
L 3091 5119 
L 2072 3944 
L 1594 3944 
L 2469 5119 
z
" id="DejaVuSans-e9" transform="scale(0.015625)"/>
       <path d="M 947 1747 
Q 947 1113 1208 752 
Q 1469 391 1925 391 
Q 2381 391 2643 752 
Q 2906 1113 2906 1747 
Q 2906 2381 2643 2742 
Q 2381 3103 1925 3103 
Q 1469 3103 1208 2742 
Q 947 2381 947 1747 
z
M 2906 525 
Q 2725 213 2448 61 
Q 2172 -91 1784 -91 
Q 1150 -91 751 415 
Q 353 922 353 1747 
Q 353 2572 751 3078 
Q 1150 3584 1784 3584 
Q 2172 3584 2448 3432 
Q 2725 3281 2906 2969 
L 2906 3500 
L 3481 3500 
L 3481 -1331 
L 2906 -1331 
L 2906 525 
z
" id="DejaVuSans-71" transform="scale(0.015625)"/>
      </defs>
      <use xlink:href="#DejaVuSans-e9"/>
      <use x="61.523438" xlink:href="#DejaVuSans-70"/>
      <use x="125" xlink:href="#DejaVuSans-6f"/>
      <use x="186.181641" xlink:href="#DejaVuSans-71"/>
      <use x="249.658203" xlink:href="#DejaVuSans-75"/>
      <use x="313.037109" xlink:href="#DejaVuSans-65"/>
     </g>
    </g>
    <g id="patch_36">
     <path d="M 192.86 517.206406 
L 214.86 517.206406 
L 214.86 509.506406 
L 192.86 509.506406 
z
" style="fill:#5875a4;stroke:#ffffff;stroke-linejoin:miter;"/>
    </g>
    <g id="text_26">
     <!-- avant 1444 (1444 inclus) -->
     <g style="fill:#262626;" transform="translate(223.66 517.206406)scale(0.11 -0.11)">
      <defs>
       <path d="M 1984 4856 
Q 1566 4138 1362 3434 
Q 1159 2731 1159 2009 
Q 1159 1288 1364 580 
Q 1569 -128 1984 -844 
L 1484 -844 
Q 1016 -109 783 600 
Q 550 1309 550 2009 
Q 550 2706 781 3412 
Q 1013 4119 1484 4856 
L 1984 4856 
z
" id="DejaVuSans-28" transform="scale(0.015625)"/>
       <path d="M 513 4856 
L 1013 4856 
Q 1481 4119 1714 3412 
Q 1947 2706 1947 2009 
Q 1947 1309 1714 600 
Q 1481 -109 1013 -844 
L 513 -844 
Q 928 -128 1133 580 
Q 1338 1288 1338 2009 
Q 1338 2731 1133 3434 
Q 928 4138 513 4856 
z
" id="DejaVuSans-29" transform="scale(0.015625)"/>
      </defs>
      <use xlink:href="#DejaVuSans-61"/>
      <use x="61.279297" xlink:href="#DejaVuSans-76"/>
      <use x="120.458984" xlink:href="#DejaVuSans-61"/>
      <use x="181.738281" xlink:href="#DejaVuSans-6e"/>
      <use x="245.117188" xlink:href="#DejaVuSans-74"/>
      <use x="284.326172" xlink:href="#DejaVuSans-20"/>
      <use x="316.113281" xlink:href="#DejaVuSans-31"/>
      <use x="379.736328" xlink:href="#DejaVuSans-34"/>
      <use x="443.359375" xlink:href="#DejaVuSans-34"/>
      <use x="506.982422" xlink:href="#DejaVuSans-34"/>
      <use x="570.605469" xlink:href="#DejaVuSans-20"/>
      <use x="602.392578" xlink:href="#DejaVuSans-28"/>
      <use x="641.40625" xlink:href="#DejaVuSans-31"/>
      <use x="705.029297" xlink:href="#DejaVuSans-34"/>
      <use x="768.652344" xlink:href="#DejaVuSans-34"/>
      <use x="832.275391" xlink:href="#DejaVuSans-34"/>
      <use x="895.898438" xlink:href="#DejaVuSans-20"/>
      <use x="927.685547" xlink:href="#DejaVuSans-69"/>
      <use x="955.46875" xlink:href="#DejaVuSans-6e"/>
      <use x="1018.847656" xlink:href="#DejaVuSans-63"/>
      <use x="1073.828125" xlink:href="#DejaVuSans-6c"/>
      <use x="1101.611328" xlink:href="#DejaVuSans-75"/>
      <use x="1164.990234" xlink:href="#DejaVuSans-73"/>
      <use x="1217.089844" xlink:href="#DejaVuSans-29"/>
     </g>
    </g>
    <g id="patch_37">
     <path d="M 192.86 533.792344 
L 214.86 533.792344 
L 214.86 526.092344 
L 192.86 526.092344 
z
" style="fill:#cc8963;stroke:#ffffff;stroke-linejoin:miter;"/>
    </g>
    <g id="text_27">
     <!-- après 1444 -->
     <g style="fill:#262626;" transform="translate(223.66 533.792344)scale(0.11 -0.11)">
      <defs>
       <path d="M 3597 1894 
L 3597 1613 
L 953 1613 
Q 991 1019 1311 708 
Q 1631 397 2203 397 
Q 2534 397 2845 478 
Q 3156 559 3463 722 
L 3463 178 
Q 3153 47 2828 -22 
Q 2503 -91 2169 -91 
Q 1331 -91 842 396 
Q 353 884 353 1716 
Q 353 2575 817 3079 
Q 1281 3584 2069 3584 
Q 2775 3584 3186 3129 
Q 3597 2675 3597 1894 
z
M 3022 2063 
Q 3016 2534 2758 2815 
Q 2500 3097 2075 3097 
Q 1594 3097 1305 2825 
Q 1016 2553 972 2059 
L 3022 2063 
z
M 1581 5119 
L 2463 3950 
L 1984 3950 
L 966 5119 
L 1581 5119 
z
" id="DejaVuSans-e8" transform="scale(0.015625)"/>
      </defs>
      <use xlink:href="#DejaVuSans-61"/>
      <use x="61.279297" xlink:href="#DejaVuSans-70"/>
      <use x="124.755859" xlink:href="#DejaVuSans-72"/>
      <use x="163.619141" xlink:href="#DejaVuSans-e8"/>
      <use x="225.142578" xlink:href="#DejaVuSans-73"/>
      <use x="277.242188" xlink:href="#DejaVuSans-20"/>
      <use x="309.029297" xlink:href="#DejaVuSans-31"/>
      <use x="372.652344" xlink:href="#DejaVuSans-34"/>
      <use x="436.275391" xlink:href="#DejaVuSans-34"/>
      <use x="499.898438" xlink:href="#DejaVuSans-34"/>
     </g>
    </g>
   </g>
  </g>
 </g>
 <defs>
  <clipPath id="pf2e87ff715">
   <rect height="533.02" width="646.48" x="182.96" y="12.96"/>
  </clipPath>
 </defs>
</svg>
