<?xml version="1.0" encoding="utf-8" standalone="no"?>
<!DOCTYPE svg PUBLIC "-//W3C//DTD SVG 1.1//EN"
  "http://www.w3.org/Graphics/SVG/1.1/DTD/svg11.dtd">
<svg height="683.398125pt" version="1.1" viewBox="0 0 645.34 683.398125" width="645.34pt" xmlns="http://www.w3.org/2000/svg" xmlns:xlink="http://www.w3.org/1999/xlink">
 <metadata>
  <rdf:RDF xmlns:cc="http://creativecommons.org/ns#" xmlns:dc="http://purl.org/dc/elements/1.1/" xmlns:rdf="http://www.w3.org/1999/02/22-rdf-syntax-ns#">
   <cc:Work>
    <dc:type rdf:resource="http://purl.org/dc/dcmitype/StillImage"/>
    <dc:date>2022-07-19T17:34:18.113211</dc:date>
    <dc:format>image/svg+xml</dc:format>
    <dc:creator>
     <cc:Agent>
      <dc:title>Matplotlib v3.4.3, https://matplotlib.org/</dc:title>
     </cc:Agent>
    </dc:creator>
   </cc:Work>
  </rdf:RDF>
 </metadata>
 <defs>
  <style type="text/css">*{stroke-linecap:butt;stroke-linejoin:round;}</style>
 </defs>
 <g id="figure_1">
  <g id="patch_1">
   <path d="M 0 683.398125 
L 645.34 683.398125 
L 645.34 0 
L 0 0 
z
" style="fill:none;"/>
  </g>
  <g id="axes_1">
   <g id="patch_2">
    <path d="M 247.54 659.52 
L 638.14 659.52 
L 638.14 7.2 
L 247.54 7.2 
z
" style="fill:#ffffff;"/>
   </g>
   <g id="matplotlib.axis_1">
    <g id="xtick_1">
     <g id="line2d_1">
      <defs>
       <path d="M 0 0 
L 0 3.5 
" id="mc394019a75" style="stroke:#000000;stroke-width:0.8;"/>
      </defs>
      <g>
       <use style="stroke:#000000;stroke-width:0.8;" x="247.54" xlink:href="#mc394019a75" y="659.52"/>
      </g>
     </g>
     <g id="text_1">
      <!-- 0 -->
      <g transform="translate(244.35875 674.118438)scale(0.1 -0.1)">
       <defs>
        <path d="M 2034 4250 
Q 1547 4250 1301 3770 
Q 1056 3291 1056 2328 
Q 1056 1369 1301 889 
Q 1547 409 2034 409 
Q 2525 409 2770 889 
Q 3016 1369 3016 2328 
Q 3016 3291 2770 3770 
Q 2525 4250 2034 4250 
z
M 2034 4750 
Q 2819 4750 3233 4129 
Q 3647 3509 3647 2328 
Q 3647 1150 3233 529 
Q 2819 -91 2034 -91 
Q 1250 -91 836 529 
Q 422 1150 422 2328 
Q 422 3509 836 4129 
Q 1250 4750 2034 4750 
z
" id="DejaVuSans-30" transform="scale(0.015625)"/>
       </defs>
       <use xlink:href="#DejaVuSans-30"/>
      </g>
     </g>
    </g>
    <g id="xtick_2">
     <g id="line2d_2">
      <g>
       <use style="stroke:#000000;stroke-width:0.8;" x="327.213509" xlink:href="#mc394019a75" y="659.52"/>
      </g>
     </g>
     <g id="text_2">
      <!-- 5 -->
      <g transform="translate(324.032259 674.118438)scale(0.1 -0.1)">
       <defs>
        <path d="M 691 4666 
L 3169 4666 
L 3169 4134 
L 1269 4134 
L 1269 2991 
Q 1406 3038 1543 3061 
Q 1681 3084 1819 3084 
Q 2600 3084 3056 2656 
Q 3513 2228 3513 1497 
Q 3513 744 3044 326 
Q 2575 -91 1722 -91 
Q 1428 -91 1123 -41 
Q 819 9 494 109 
L 494 744 
Q 775 591 1075 516 
Q 1375 441 1709 441 
Q 2250 441 2565 725 
Q 2881 1009 2881 1497 
Q 2881 1984 2565 2268 
Q 2250 2553 1709 2553 
Q 1456 2553 1204 2497 
Q 953 2441 691 2322 
L 691 4666 
z
" id="DejaVuSans-35" transform="scale(0.015625)"/>
       </defs>
       <use xlink:href="#DejaVuSans-35"/>
      </g>
     </g>
    </g>
    <g id="xtick_3">
     <g id="line2d_3">
      <g>
       <use style="stroke:#000000;stroke-width:0.8;" x="406.887018" xlink:href="#mc394019a75" y="659.52"/>
      </g>
     </g>
     <g id="text_3">
      <!-- 10 -->
      <g transform="translate(400.524518 674.118438)scale(0.1 -0.1)">
       <defs>
        <path d="M 794 531 
L 1825 531 
L 1825 4091 
L 703 3866 
L 703 4441 
L 1819 4666 
L 2450 4666 
L 2450 531 
L 3481 531 
L 3481 0 
L 794 0 
L 794 531 
z
" id="DejaVuSans-31" transform="scale(0.015625)"/>
       </defs>
       <use xlink:href="#DejaVuSans-31"/>
       <use x="63.623047" xlink:href="#DejaVuSans-30"/>
      </g>
     </g>
    </g>
    <g id="xtick_4">
     <g id="line2d_4">
      <g>
       <use style="stroke:#000000;stroke-width:0.8;" x="486.560527" xlink:href="#mc394019a75" y="659.52"/>
      </g>
     </g>
     <g id="text_4">
      <!-- 15 -->
      <g transform="translate(480.198027 674.118438)scale(0.1 -0.1)">
       <use xlink:href="#DejaVuSans-31"/>
       <use x="63.623047" xlink:href="#DejaVuSans-35"/>
      </g>
     </g>
    </g>
    <g id="xtick_5">
     <g id="line2d_5">
      <g>
       <use style="stroke:#000000;stroke-width:0.8;" x="566.234035" xlink:href="#mc394019a75" y="659.52"/>
      </g>
     </g>
     <g id="text_5">
      <!-- 20 -->
      <g transform="translate(559.871535 674.118438)scale(0.1 -0.1)">
       <defs>
        <path d="M 1228 531 
L 3431 531 
L 3431 0 
L 469 0 
L 469 531 
Q 828 903 1448 1529 
Q 2069 2156 2228 2338 
Q 2531 2678 2651 2914 
Q 2772 3150 2772 3378 
Q 2772 3750 2511 3984 
Q 2250 4219 1831 4219 
Q 1534 4219 1204 4116 
Q 875 4013 500 3803 
L 500 4441 
Q 881 4594 1212 4672 
Q 1544 4750 1819 4750 
Q 2544 4750 2975 4387 
Q 3406 4025 3406 3419 
Q 3406 3131 3298 2873 
Q 3191 2616 2906 2266 
Q 2828 2175 2409 1742 
Q 1991 1309 1228 531 
z
" id="DejaVuSans-32" transform="scale(0.015625)"/>
       </defs>
       <use xlink:href="#DejaVuSans-32"/>
       <use x="63.623047" xlink:href="#DejaVuSans-30"/>
      </g>
     </g>
    </g>
   </g>
   <g id="matplotlib.axis_2">
    <g id="ytick_1">
     <g id="text_6">
      <!-- constructeurs de bateaux -->
      <g transform="translate(86.274375 652.430491)scale(0.12 -0.12)">
       <defs>
        <path d="M 3122 3366 
L 3122 2828 
Q 2878 2963 2633 3030 
Q 2388 3097 2138 3097 
Q 1578 3097 1268 2742 
Q 959 2388 959 1747 
Q 959 1106 1268 751 
Q 1578 397 2138 397 
Q 2388 397 2633 464 
Q 2878 531 3122 666 
L 3122 134 
Q 2881 22 2623 -34 
Q 2366 -91 2075 -91 
Q 1284 -91 818 406 
Q 353 903 353 1747 
Q 353 2603 823 3093 
Q 1294 3584 2113 3584 
Q 2378 3584 2631 3529 
Q 2884 3475 3122 3366 
z
" id="DejaVuSans-63" transform="scale(0.015625)"/>
        <path d="M 1959 3097 
Q 1497 3097 1228 2736 
Q 959 2375 959 1747 
Q 959 1119 1226 758 
Q 1494 397 1959 397 
Q 2419 397 2687 759 
Q 2956 1122 2956 1747 
Q 2956 2369 2687 2733 
Q 2419 3097 1959 3097 
z
M 1959 3584 
Q 2709 3584 3137 3096 
Q 3566 2609 3566 1747 
Q 3566 888 3137 398 
Q 2709 -91 1959 -91 
Q 1206 -91 779 398 
Q 353 888 353 1747 
Q 353 2609 779 3096 
Q 1206 3584 1959 3584 
z
" id="DejaVuSans-6f" transform="scale(0.015625)"/>
        <path d="M 3513 2113 
L 3513 0 
L 2938 0 
L 2938 2094 
Q 2938 2591 2744 2837 
Q 2550 3084 2163 3084 
Q 1697 3084 1428 2787 
Q 1159 2491 1159 1978 
L 1159 0 
L 581 0 
L 581 3500 
L 1159 3500 
L 1159 2956 
Q 1366 3272 1645 3428 
Q 1925 3584 2291 3584 
Q 2894 3584 3203 3211 
Q 3513 2838 3513 2113 
z
" id="DejaVuSans-6e" transform="scale(0.015625)"/>
        <path d="M 2834 3397 
L 2834 2853 
Q 2591 2978 2328 3040 
Q 2066 3103 1784 3103 
Q 1356 3103 1142 2972 
Q 928 2841 928 2578 
Q 928 2378 1081 2264 
Q 1234 2150 1697 2047 
L 1894 2003 
Q 2506 1872 2764 1633 
Q 3022 1394 3022 966 
Q 3022 478 2636 193 
Q 2250 -91 1575 -91 
Q 1294 -91 989 -36 
Q 684 19 347 128 
L 347 722 
Q 666 556 975 473 
Q 1284 391 1588 391 
Q 1994 391 2212 530 
Q 2431 669 2431 922 
Q 2431 1156 2273 1281 
Q 2116 1406 1581 1522 
L 1381 1569 
Q 847 1681 609 1914 
Q 372 2147 372 2553 
Q 372 3047 722 3315 
Q 1072 3584 1716 3584 
Q 2034 3584 2315 3537 
Q 2597 3491 2834 3397 
z
" id="DejaVuSans-73" transform="scale(0.015625)"/>
        <path d="M 1172 4494 
L 1172 3500 
L 2356 3500 
L 2356 3053 
L 1172 3053 
L 1172 1153 
Q 1172 725 1289 603 
Q 1406 481 1766 481 
L 2356 481 
L 2356 0 
L 1766 0 
Q 1100 0 847 248 
Q 594 497 594 1153 
L 594 3053 
L 172 3053 
L 172 3500 
L 594 3500 
L 594 4494 
L 1172 4494 
z
" id="DejaVuSans-74" transform="scale(0.015625)"/>
        <path d="M 2631 2963 
Q 2534 3019 2420 3045 
Q 2306 3072 2169 3072 
Q 1681 3072 1420 2755 
Q 1159 2438 1159 1844 
L 1159 0 
L 581 0 
L 581 3500 
L 1159 3500 
L 1159 2956 
Q 1341 3275 1631 3429 
Q 1922 3584 2338 3584 
Q 2397 3584 2469 3576 
Q 2541 3569 2628 3553 
L 2631 2963 
z
" id="DejaVuSans-72" transform="scale(0.015625)"/>
        <path d="M 544 1381 
L 544 3500 
L 1119 3500 
L 1119 1403 
Q 1119 906 1312 657 
Q 1506 409 1894 409 
Q 2359 409 2629 706 
Q 2900 1003 2900 1516 
L 2900 3500 
L 3475 3500 
L 3475 0 
L 2900 0 
L 2900 538 
Q 2691 219 2414 64 
Q 2138 -91 1772 -91 
Q 1169 -91 856 284 
Q 544 659 544 1381 
z
M 1991 3584 
L 1991 3584 
z
" id="DejaVuSans-75" transform="scale(0.015625)"/>
        <path d="M 3597 1894 
L 3597 1613 
L 953 1613 
Q 991 1019 1311 708 
Q 1631 397 2203 397 
Q 2534 397 2845 478 
Q 3156 559 3463 722 
L 3463 178 
Q 3153 47 2828 -22 
Q 2503 -91 2169 -91 
Q 1331 -91 842 396 
Q 353 884 353 1716 
Q 353 2575 817 3079 
Q 1281 3584 2069 3584 
Q 2775 3584 3186 3129 
Q 3597 2675 3597 1894 
z
M 3022 2063 
Q 3016 2534 2758 2815 
Q 2500 3097 2075 3097 
Q 1594 3097 1305 2825 
Q 1016 2553 972 2059 
L 3022 2063 
z
" id="DejaVuSans-65" transform="scale(0.015625)"/>
        <path id="DejaVuSans-20" transform="scale(0.015625)"/>
        <path d="M 2906 2969 
L 2906 4863 
L 3481 4863 
L 3481 0 
L 2906 0 
L 2906 525 
Q 2725 213 2448 61 
Q 2172 -91 1784 -91 
Q 1150 -91 751 415 
Q 353 922 353 1747 
Q 353 2572 751 3078 
Q 1150 3584 1784 3584 
Q 2172 3584 2448 3432 
Q 2725 3281 2906 2969 
z
M 947 1747 
Q 947 1113 1208 752 
Q 1469 391 1925 391 
Q 2381 391 2643 752 
Q 2906 1113 2906 1747 
Q 2906 2381 2643 2742 
Q 2381 3103 1925 3103 
Q 1469 3103 1208 2742 
Q 947 2381 947 1747 
z
" id="DejaVuSans-64" transform="scale(0.015625)"/>
        <path d="M 3116 1747 
Q 3116 2381 2855 2742 
Q 2594 3103 2138 3103 
Q 1681 3103 1420 2742 
Q 1159 2381 1159 1747 
Q 1159 1113 1420 752 
Q 1681 391 2138 391 
Q 2594 391 2855 752 
Q 3116 1113 3116 1747 
z
M 1159 2969 
Q 1341 3281 1617 3432 
Q 1894 3584 2278 3584 
Q 2916 3584 3314 3078 
Q 3713 2572 3713 1747 
Q 3713 922 3314 415 
Q 2916 -91 2278 -91 
Q 1894 -91 1617 61 
Q 1341 213 1159 525 
L 1159 0 
L 581 0 
L 581 4863 
L 1159 4863 
L 1159 2969 
z
" id="DejaVuSans-62" transform="scale(0.015625)"/>
        <path d="M 2194 1759 
Q 1497 1759 1228 1600 
Q 959 1441 959 1056 
Q 959 750 1161 570 
Q 1363 391 1709 391 
Q 2188 391 2477 730 
Q 2766 1069 2766 1631 
L 2766 1759 
L 2194 1759 
z
M 3341 1997 
L 3341 0 
L 2766 0 
L 2766 531 
Q 2569 213 2275 61 
Q 1981 -91 1556 -91 
Q 1019 -91 701 211 
Q 384 513 384 1019 
Q 384 1609 779 1909 
Q 1175 2209 1959 2209 
L 2766 2209 
L 2766 2266 
Q 2766 2663 2505 2880 
Q 2244 3097 1772 3097 
Q 1472 3097 1187 3025 
Q 903 2953 641 2809 
L 641 3341 
Q 956 3463 1253 3523 
Q 1550 3584 1831 3584 
Q 2591 3584 2966 3190 
Q 3341 2797 3341 1997 
z
" id="DejaVuSans-61" transform="scale(0.015625)"/>
        <path d="M 3513 3500 
L 2247 1797 
L 3578 0 
L 2900 0 
L 1881 1375 
L 863 0 
L 184 0 
L 1544 1831 
L 300 3500 
L 978 3500 
L 1906 2253 
L 2834 3500 
L 3513 3500 
z
" id="DejaVuSans-78" transform="scale(0.015625)"/>
       </defs>
       <use xlink:href="#DejaVuSans-63"/>
       <use x="54.980469" xlink:href="#DejaVuSans-6f"/>
       <use x="116.162109" xlink:href="#DejaVuSans-6e"/>
       <use x="179.541016" xlink:href="#DejaVuSans-73"/>
       <use x="231.640625" xlink:href="#DejaVuSans-74"/>
       <use x="270.849609" xlink:href="#DejaVuSans-72"/>
       <use x="311.962891" xlink:href="#DejaVuSans-75"/>
       <use x="375.341797" xlink:href="#DejaVuSans-63"/>
       <use x="430.322266" xlink:href="#DejaVuSans-74"/>
       <use x="469.53125" xlink:href="#DejaVuSans-65"/>
       <use x="531.054688" xlink:href="#DejaVuSans-75"/>
       <use x="594.433594" xlink:href="#DejaVuSans-72"/>
       <use x="635.546875" xlink:href="#DejaVuSans-73"/>
       <use x="687.646484" xlink:href="#DejaVuSans-20"/>
       <use x="719.433594" xlink:href="#DejaVuSans-64"/>
       <use x="782.910156" xlink:href="#DejaVuSans-65"/>
       <use x="844.433594" xlink:href="#DejaVuSans-20"/>
       <use x="876.220703" xlink:href="#DejaVuSans-62"/>
       <use x="939.697266" xlink:href="#DejaVuSans-61"/>
       <use x="1000.976562" xlink:href="#DejaVuSans-74"/>
       <use x="1040.185547" xlink:href="#DejaVuSans-65"/>
       <use x="1101.708984" xlink:href="#DejaVuSans-61"/>
       <use x="1162.988281" xlink:href="#DejaVuSans-75"/>
       <use x="1226.367188" xlink:href="#DejaVuSans-78"/>
      </g>
     </g>
    </g>
    <g id="ytick_2">
     <g id="text_7">
      <!-- crieurs et mesureurs de vin -->
      <g transform="translate(75.350625 629.133348)scale(0.12 -0.12)">
       <defs>
        <path d="M 603 3500 
L 1178 3500 
L 1178 0 
L 603 0 
L 603 3500 
z
M 603 4863 
L 1178 4863 
L 1178 4134 
L 603 4134 
L 603 4863 
z
" id="DejaVuSans-69" transform="scale(0.015625)"/>
        <path d="M 3328 2828 
Q 3544 3216 3844 3400 
Q 4144 3584 4550 3584 
Q 5097 3584 5394 3201 
Q 5691 2819 5691 2113 
L 5691 0 
L 5113 0 
L 5113 2094 
Q 5113 2597 4934 2840 
Q 4756 3084 4391 3084 
Q 3944 3084 3684 2787 
Q 3425 2491 3425 1978 
L 3425 0 
L 2847 0 
L 2847 2094 
Q 2847 2600 2669 2842 
Q 2491 3084 2119 3084 
Q 1678 3084 1418 2786 
Q 1159 2488 1159 1978 
L 1159 0 
L 581 0 
L 581 3500 
L 1159 3500 
L 1159 2956 
Q 1356 3278 1631 3431 
Q 1906 3584 2284 3584 
Q 2666 3584 2933 3390 
Q 3200 3197 3328 2828 
z
" id="DejaVuSans-6d" transform="scale(0.015625)"/>
        <path d="M 191 3500 
L 800 3500 
L 1894 563 
L 2988 3500 
L 3597 3500 
L 2284 0 
L 1503 0 
L 191 3500 
z
" id="DejaVuSans-76" transform="scale(0.015625)"/>
       </defs>
       <use xlink:href="#DejaVuSans-63"/>
       <use x="54.980469" xlink:href="#DejaVuSans-72"/>
       <use x="96.09375" xlink:href="#DejaVuSans-69"/>
       <use x="123.876953" xlink:href="#DejaVuSans-65"/>
       <use x="185.400391" xlink:href="#DejaVuSans-75"/>
       <use x="248.779297" xlink:href="#DejaVuSans-72"/>
       <use x="289.892578" xlink:href="#DejaVuSans-73"/>
       <use x="341.992188" xlink:href="#DejaVuSans-20"/>
       <use x="373.779297" xlink:href="#DejaVuSans-65"/>
       <use x="435.302734" xlink:href="#DejaVuSans-74"/>
       <use x="474.511719" xlink:href="#DejaVuSans-20"/>
       <use x="506.298828" xlink:href="#DejaVuSans-6d"/>
       <use x="603.710938" xlink:href="#DejaVuSans-65"/>
       <use x="665.234375" xlink:href="#DejaVuSans-73"/>
       <use x="717.333984" xlink:href="#DejaVuSans-75"/>
       <use x="780.712891" xlink:href="#DejaVuSans-72"/>
       <use x="819.576172" xlink:href="#DejaVuSans-65"/>
       <use x="881.099609" xlink:href="#DejaVuSans-75"/>
       <use x="944.478516" xlink:href="#DejaVuSans-72"/>
       <use x="985.591797" xlink:href="#DejaVuSans-73"/>
       <use x="1037.691406" xlink:href="#DejaVuSans-20"/>
       <use x="1069.478516" xlink:href="#DejaVuSans-64"/>
       <use x="1132.955078" xlink:href="#DejaVuSans-65"/>
       <use x="1194.478516" xlink:href="#DejaVuSans-20"/>
       <use x="1226.265625" xlink:href="#DejaVuSans-76"/>
       <use x="1285.445312" xlink:href="#DejaVuSans-69"/>
       <use x="1313.228516" xlink:href="#DejaVuSans-6e"/>
      </g>
     </g>
    </g>
    <g id="ytick_3">
     <g id="text_8">
      <!-- huiliers meuniers et tondeurs de draps -->
      <g transform="translate(7.2 605.836205)scale(0.12 -0.12)">
       <defs>
        <path d="M 3513 2113 
L 3513 0 
L 2938 0 
L 2938 2094 
Q 2938 2591 2744 2837 
Q 2550 3084 2163 3084 
Q 1697 3084 1428 2787 
Q 1159 2491 1159 1978 
L 1159 0 
L 581 0 
L 581 4863 
L 1159 4863 
L 1159 2956 
Q 1366 3272 1645 3428 
Q 1925 3584 2291 3584 
Q 2894 3584 3203 3211 
Q 3513 2838 3513 2113 
z
" id="DejaVuSans-68" transform="scale(0.015625)"/>
        <path d="M 603 4863 
L 1178 4863 
L 1178 0 
L 603 0 
L 603 4863 
z
" id="DejaVuSans-6c" transform="scale(0.015625)"/>
        <path d="M 1159 525 
L 1159 -1331 
L 581 -1331 
L 581 3500 
L 1159 3500 
L 1159 2969 
Q 1341 3281 1617 3432 
Q 1894 3584 2278 3584 
Q 2916 3584 3314 3078 
Q 3713 2572 3713 1747 
Q 3713 922 3314 415 
Q 2916 -91 2278 -91 
Q 1894 -91 1617 61 
Q 1341 213 1159 525 
z
M 3116 1747 
Q 3116 2381 2855 2742 
Q 2594 3103 2138 3103 
Q 1681 3103 1420 2742 
Q 1159 2381 1159 1747 
Q 1159 1113 1420 752 
Q 1681 391 2138 391 
Q 2594 391 2855 752 
Q 3116 1113 3116 1747 
z
" id="DejaVuSans-70" transform="scale(0.015625)"/>
       </defs>
       <use xlink:href="#DejaVuSans-68"/>
       <use x="63.378906" xlink:href="#DejaVuSans-75"/>
       <use x="126.757812" xlink:href="#DejaVuSans-69"/>
       <use x="154.541016" xlink:href="#DejaVuSans-6c"/>
       <use x="182.324219" xlink:href="#DejaVuSans-69"/>
       <use x="210.107422" xlink:href="#DejaVuSans-65"/>
       <use x="271.630859" xlink:href="#DejaVuSans-72"/>
       <use x="312.744141" xlink:href="#DejaVuSans-73"/>
       <use x="364.84375" xlink:href="#DejaVuSans-20"/>
       <use x="396.630859" xlink:href="#DejaVuSans-6d"/>
       <use x="494.042969" xlink:href="#DejaVuSans-65"/>
       <use x="555.566406" xlink:href="#DejaVuSans-75"/>
       <use x="618.945312" xlink:href="#DejaVuSans-6e"/>
       <use x="682.324219" xlink:href="#DejaVuSans-69"/>
       <use x="710.107422" xlink:href="#DejaVuSans-65"/>
       <use x="771.630859" xlink:href="#DejaVuSans-72"/>
       <use x="812.744141" xlink:href="#DejaVuSans-73"/>
       <use x="864.84375" xlink:href="#DejaVuSans-20"/>
       <use x="896.630859" xlink:href="#DejaVuSans-65"/>
       <use x="958.154297" xlink:href="#DejaVuSans-74"/>
       <use x="997.363281" xlink:href="#DejaVuSans-20"/>
       <use x="1029.150391" xlink:href="#DejaVuSans-74"/>
       <use x="1068.359375" xlink:href="#DejaVuSans-6f"/>
       <use x="1129.541016" xlink:href="#DejaVuSans-6e"/>
       <use x="1192.919922" xlink:href="#DejaVuSans-64"/>
       <use x="1256.396484" xlink:href="#DejaVuSans-65"/>
       <use x="1317.919922" xlink:href="#DejaVuSans-75"/>
       <use x="1381.298828" xlink:href="#DejaVuSans-72"/>
       <use x="1422.412109" xlink:href="#DejaVuSans-73"/>
       <use x="1474.511719" xlink:href="#DejaVuSans-20"/>
       <use x="1506.298828" xlink:href="#DejaVuSans-64"/>
       <use x="1569.775391" xlink:href="#DejaVuSans-65"/>
       <use x="1631.298828" xlink:href="#DejaVuSans-20"/>
       <use x="1663.085938" xlink:href="#DejaVuSans-64"/>
       <use x="1726.5625" xlink:href="#DejaVuSans-72"/>
       <use x="1767.675781" xlink:href="#DejaVuSans-61"/>
       <use x="1828.955078" xlink:href="#DejaVuSans-70"/>
       <use x="1892.431641" xlink:href="#DejaVuSans-73"/>
      </g>
     </g>
    </g>
    <g id="ytick_4">
     <g id="text_9">
      <!-- charpentiers -->
      <g transform="translate(164.836875 582.539062)scale(0.12 -0.12)">
       <use xlink:href="#DejaVuSans-63"/>
       <use x="54.980469" xlink:href="#DejaVuSans-68"/>
       <use x="118.359375" xlink:href="#DejaVuSans-61"/>
       <use x="179.638672" xlink:href="#DejaVuSans-72"/>
       <use x="220.751953" xlink:href="#DejaVuSans-70"/>
       <use x="284.228516" xlink:href="#DejaVuSans-65"/>
       <use x="345.751953" xlink:href="#DejaVuSans-6e"/>
       <use x="409.130859" xlink:href="#DejaVuSans-74"/>
       <use x="448.339844" xlink:href="#DejaVuSans-69"/>
       <use x="476.123047" xlink:href="#DejaVuSans-65"/>
       <use x="537.646484" xlink:href="#DejaVuSans-72"/>
       <use x="578.759766" xlink:href="#DejaVuSans-73"/>
      </g>
     </g>
    </g>
    <g id="ytick_5">
     <g id="text_10">
      <!-- coltineurs de tonneaux -->
      <g transform="translate(102.118125 559.24192)scale(0.12 -0.12)">
       <use xlink:href="#DejaVuSans-63"/>
       <use x="54.980469" xlink:href="#DejaVuSans-6f"/>
       <use x="116.162109" xlink:href="#DejaVuSans-6c"/>
       <use x="143.945312" xlink:href="#DejaVuSans-74"/>
       <use x="183.154297" xlink:href="#DejaVuSans-69"/>
       <use x="210.9375" xlink:href="#DejaVuSans-6e"/>
       <use x="274.316406" xlink:href="#DejaVuSans-65"/>
       <use x="335.839844" xlink:href="#DejaVuSans-75"/>
       <use x="399.21875" xlink:href="#DejaVuSans-72"/>
       <use x="440.332031" xlink:href="#DejaVuSans-73"/>
       <use x="492.431641" xlink:href="#DejaVuSans-20"/>
       <use x="524.21875" xlink:href="#DejaVuSans-64"/>
       <use x="587.695312" xlink:href="#DejaVuSans-65"/>
       <use x="649.21875" xlink:href="#DejaVuSans-20"/>
       <use x="681.005859" xlink:href="#DejaVuSans-74"/>
       <use x="720.214844" xlink:href="#DejaVuSans-6f"/>
       <use x="781.396484" xlink:href="#DejaVuSans-6e"/>
       <use x="844.775391" xlink:href="#DejaVuSans-6e"/>
       <use x="908.154297" xlink:href="#DejaVuSans-65"/>
       <use x="969.677734" xlink:href="#DejaVuSans-61"/>
       <use x="1030.957031" xlink:href="#DejaVuSans-75"/>
       <use x="1094.335938" xlink:href="#DejaVuSans-78"/>
      </g>
     </g>
    </g>
    <g id="ytick_6">
     <g id="text_11">
      <!-- boulangers -->
      <g transform="translate(173.495625 535.944777)scale(0.12 -0.12)">
       <defs>
        <path d="M 2906 1791 
Q 2906 2416 2648 2759 
Q 2391 3103 1925 3103 
Q 1463 3103 1205 2759 
Q 947 2416 947 1791 
Q 947 1169 1205 825 
Q 1463 481 1925 481 
Q 2391 481 2648 825 
Q 2906 1169 2906 1791 
z
M 3481 434 
Q 3481 -459 3084 -895 
Q 2688 -1331 1869 -1331 
Q 1566 -1331 1297 -1286 
Q 1028 -1241 775 -1147 
L 775 -588 
Q 1028 -725 1275 -790 
Q 1522 -856 1778 -856 
Q 2344 -856 2625 -561 
Q 2906 -266 2906 331 
L 2906 616 
Q 2728 306 2450 153 
Q 2172 0 1784 0 
Q 1141 0 747 490 
Q 353 981 353 1791 
Q 353 2603 747 3093 
Q 1141 3584 1784 3584 
Q 2172 3584 2450 3431 
Q 2728 3278 2906 2969 
L 2906 3500 
L 3481 3500 
L 3481 434 
z
" id="DejaVuSans-67" transform="scale(0.015625)"/>
       </defs>
       <use xlink:href="#DejaVuSans-62"/>
       <use x="63.476562" xlink:href="#DejaVuSans-6f"/>
       <use x="124.658203" xlink:href="#DejaVuSans-75"/>
       <use x="188.037109" xlink:href="#DejaVuSans-6c"/>
       <use x="215.820312" xlink:href="#DejaVuSans-61"/>
       <use x="277.099609" xlink:href="#DejaVuSans-6e"/>
       <use x="340.478516" xlink:href="#DejaVuSans-67"/>
       <use x="403.955078" xlink:href="#DejaVuSans-65"/>
       <use x="465.478516" xlink:href="#DejaVuSans-72"/>
       <use x="506.591797" xlink:href="#DejaVuSans-73"/>
      </g>
     </g>
    </g>
    <g id="ytick_7">
     <g id="text_12">
      <!-- cabaretiers -->
      <g transform="translate(172.963125 512.647634)scale(0.12 -0.12)">
       <use xlink:href="#DejaVuSans-63"/>
       <use x="54.980469" xlink:href="#DejaVuSans-61"/>
       <use x="116.259766" xlink:href="#DejaVuSans-62"/>
       <use x="179.736328" xlink:href="#DejaVuSans-61"/>
       <use x="241.015625" xlink:href="#DejaVuSans-72"/>
       <use x="279.878906" xlink:href="#DejaVuSans-65"/>
       <use x="341.402344" xlink:href="#DejaVuSans-74"/>
       <use x="380.611328" xlink:href="#DejaVuSans-69"/>
       <use x="408.394531" xlink:href="#DejaVuSans-65"/>
       <use x="469.917969" xlink:href="#DejaVuSans-72"/>
       <use x="511.03125" xlink:href="#DejaVuSans-73"/>
      </g>
     </g>
    </g>
    <g id="ytick_8">
     <g id="text_13">
      <!-- marchands de grains -->
      <g transform="translate(114.07875 489.350491)scale(0.12 -0.12)">
       <use xlink:href="#DejaVuSans-6d"/>
       <use x="97.412109" xlink:href="#DejaVuSans-61"/>
       <use x="158.691406" xlink:href="#DejaVuSans-72"/>
       <use x="197.554688" xlink:href="#DejaVuSans-63"/>
       <use x="252.535156" xlink:href="#DejaVuSans-68"/>
       <use x="315.914062" xlink:href="#DejaVuSans-61"/>
       <use x="377.193359" xlink:href="#DejaVuSans-6e"/>
       <use x="440.572266" xlink:href="#DejaVuSans-64"/>
       <use x="504.048828" xlink:href="#DejaVuSans-73"/>
       <use x="556.148438" xlink:href="#DejaVuSans-20"/>
       <use x="587.935547" xlink:href="#DejaVuSans-64"/>
       <use x="651.412109" xlink:href="#DejaVuSans-65"/>
       <use x="712.935547" xlink:href="#DejaVuSans-20"/>
       <use x="744.722656" xlink:href="#DejaVuSans-67"/>
       <use x="808.199219" xlink:href="#DejaVuSans-72"/>
       <use x="849.3125" xlink:href="#DejaVuSans-61"/>
       <use x="910.591797" xlink:href="#DejaVuSans-69"/>
       <use x="938.375" xlink:href="#DejaVuSans-6e"/>
       <use x="1001.753906" xlink:href="#DejaVuSans-73"/>
      </g>
     </g>
    </g>
    <g id="ytick_9">
     <g id="text_14">
      <!-- charrons -->
      <g transform="translate(188.398125 466.053348)scale(0.12 -0.12)">
       <use xlink:href="#DejaVuSans-63"/>
       <use x="54.980469" xlink:href="#DejaVuSans-68"/>
       <use x="118.359375" xlink:href="#DejaVuSans-61"/>
       <use x="179.638672" xlink:href="#DejaVuSans-72"/>
       <use x="219.001953" xlink:href="#DejaVuSans-72"/>
       <use x="257.865234" xlink:href="#DejaVuSans-6f"/>
       <use x="319.046875" xlink:href="#DejaVuSans-6e"/>
       <use x="382.425781" xlink:href="#DejaVuSans-73"/>
      </g>
     </g>
    </g>
    <g id="ytick_10">
     <g id="text_15">
      <!-- drapiers -->
      <g transform="translate(191.115 442.756205)scale(0.12 -0.12)">
       <use xlink:href="#DejaVuSans-64"/>
       <use x="63.476562" xlink:href="#DejaVuSans-72"/>
       <use x="104.589844" xlink:href="#DejaVuSans-61"/>
       <use x="165.869141" xlink:href="#DejaVuSans-70"/>
       <use x="229.345703" xlink:href="#DejaVuSans-69"/>
       <use x="257.128906" xlink:href="#DejaVuSans-65"/>
       <use x="318.652344" xlink:href="#DejaVuSans-72"/>
       <use x="359.765625" xlink:href="#DejaVuSans-73"/>
      </g>
     </g>
    </g>
    <g id="ytick_11">
     <g id="text_16">
      <!-- tanneurs -->
      <g transform="translate(187.09875 419.459062)scale(0.12 -0.12)">
       <use xlink:href="#DejaVuSans-74"/>
       <use x="39.208984" xlink:href="#DejaVuSans-61"/>
       <use x="100.488281" xlink:href="#DejaVuSans-6e"/>
       <use x="163.867188" xlink:href="#DejaVuSans-6e"/>
       <use x="227.246094" xlink:href="#DejaVuSans-65"/>
       <use x="288.769531" xlink:href="#DejaVuSans-75"/>
       <use x="352.148438" xlink:href="#DejaVuSans-72"/>
       <use x="393.261719" xlink:href="#DejaVuSans-73"/>
      </g>
     </g>
    </g>
    <g id="ytick_12">
     <g id="text_17">
      <!-- jardiniers -->
      <g transform="translate(184.670625 396.16192)scale(0.12 -0.12)">
       <defs>
        <path d="M 603 3500 
L 1178 3500 
L 1178 -63 
Q 1178 -731 923 -1031 
Q 669 -1331 103 -1331 
L -116 -1331 
L -116 -844 
L 38 -844 
Q 366 -844 484 -692 
Q 603 -541 603 -63 
L 603 3500 
z
M 603 4863 
L 1178 4863 
L 1178 4134 
L 603 4134 
L 603 4863 
z
" id="DejaVuSans-6a" transform="scale(0.015625)"/>
       </defs>
       <use xlink:href="#DejaVuSans-6a"/>
       <use x="27.783203" xlink:href="#DejaVuSans-61"/>
       <use x="89.0625" xlink:href="#DejaVuSans-72"/>
       <use x="128.425781" xlink:href="#DejaVuSans-64"/>
       <use x="191.902344" xlink:href="#DejaVuSans-69"/>
       <use x="219.685547" xlink:href="#DejaVuSans-6e"/>
       <use x="283.064453" xlink:href="#DejaVuSans-69"/>
       <use x="310.847656" xlink:href="#DejaVuSans-65"/>
       <use x="372.371094" xlink:href="#DejaVuSans-72"/>
       <use x="413.484375" xlink:href="#DejaVuSans-73"/>
      </g>
     </g>
    </g>
    <g id="ytick_13">
     <g id="text_18">
      <!-- marchands -->
      <g transform="translate(173.803125 372.864777)scale(0.12 -0.12)">
       <use xlink:href="#DejaVuSans-6d"/>
       <use x="97.412109" xlink:href="#DejaVuSans-61"/>
       <use x="158.691406" xlink:href="#DejaVuSans-72"/>
       <use x="197.554688" xlink:href="#DejaVuSans-63"/>
       <use x="252.535156" xlink:href="#DejaVuSans-68"/>
       <use x="315.914062" xlink:href="#DejaVuSans-61"/>
       <use x="377.193359" xlink:href="#DejaVuSans-6e"/>
       <use x="440.572266" xlink:href="#DejaVuSans-64"/>
       <use x="504.048828" xlink:href="#DejaVuSans-73"/>
      </g>
     </g>
    </g>
    <g id="ytick_14">
     <g id="text_19">
      <!-- regrattiers, cordiers et fruitiers -->
      <g transform="translate(55.048125 349.567634)scale(0.12 -0.12)">
       <defs>
        <path d="M 750 794 
L 1409 794 
L 1409 256 
L 897 -744 
L 494 -744 
L 750 256 
L 750 794 
z
" id="DejaVuSans-2c" transform="scale(0.015625)"/>
        <path d="M 2375 4863 
L 2375 4384 
L 1825 4384 
Q 1516 4384 1395 4259 
Q 1275 4134 1275 3809 
L 1275 3500 
L 2222 3500 
L 2222 3053 
L 1275 3053 
L 1275 0 
L 697 0 
L 697 3053 
L 147 3053 
L 147 3500 
L 697 3500 
L 697 3744 
Q 697 4328 969 4595 
Q 1241 4863 1831 4863 
L 2375 4863 
z
" id="DejaVuSans-66" transform="scale(0.015625)"/>
       </defs>
       <use xlink:href="#DejaVuSans-72"/>
       <use x="38.863281" xlink:href="#DejaVuSans-65"/>
       <use x="100.386719" xlink:href="#DejaVuSans-67"/>
       <use x="163.863281" xlink:href="#DejaVuSans-72"/>
       <use x="204.976562" xlink:href="#DejaVuSans-61"/>
       <use x="266.255859" xlink:href="#DejaVuSans-74"/>
       <use x="305.464844" xlink:href="#DejaVuSans-74"/>
       <use x="344.673828" xlink:href="#DejaVuSans-69"/>
       <use x="372.457031" xlink:href="#DejaVuSans-65"/>
       <use x="433.980469" xlink:href="#DejaVuSans-72"/>
       <use x="475.09375" xlink:href="#DejaVuSans-73"/>
       <use x="527.193359" xlink:href="#DejaVuSans-2c"/>
       <use x="558.980469" xlink:href="#DejaVuSans-20"/>
       <use x="590.767578" xlink:href="#DejaVuSans-63"/>
       <use x="645.748047" xlink:href="#DejaVuSans-6f"/>
       <use x="706.929688" xlink:href="#DejaVuSans-72"/>
       <use x="746.292969" xlink:href="#DejaVuSans-64"/>
       <use x="809.769531" xlink:href="#DejaVuSans-69"/>
       <use x="837.552734" xlink:href="#DejaVuSans-65"/>
       <use x="899.076172" xlink:href="#DejaVuSans-72"/>
       <use x="940.189453" xlink:href="#DejaVuSans-73"/>
       <use x="992.289062" xlink:href="#DejaVuSans-20"/>
       <use x="1024.076172" xlink:href="#DejaVuSans-65"/>
       <use x="1085.599609" xlink:href="#DejaVuSans-74"/>
       <use x="1124.808594" xlink:href="#DejaVuSans-20"/>
       <use x="1156.595703" xlink:href="#DejaVuSans-66"/>
       <use x="1191.800781" xlink:href="#DejaVuSans-72"/>
       <use x="1232.914062" xlink:href="#DejaVuSans-75"/>
       <use x="1296.292969" xlink:href="#DejaVuSans-69"/>
       <use x="1324.076172" xlink:href="#DejaVuSans-74"/>
       <use x="1363.285156" xlink:href="#DejaVuSans-69"/>
       <use x="1391.068359" xlink:href="#DejaVuSans-65"/>
       <use x="1452.591797" xlink:href="#DejaVuSans-72"/>
       <use x="1493.705078" xlink:href="#DejaVuSans-73"/>
      </g>
     </g>
    </g>
    <g id="ytick_15">
     <g id="text_20">
      <!-- pêcheurs -->
      <g transform="translate(185.161875 326.510491)scale(0.12 -0.12)">
       <defs>
        <path d="M 3597 1894 
L 3597 1613 
L 953 1613 
Q 991 1019 1311 708 
Q 1631 397 2203 397 
Q 2534 397 2845 478 
Q 3156 559 3463 722 
L 3463 178 
Q 3153 47 2828 -22 
Q 2503 -91 2169 -91 
Q 1331 -91 842 396 
Q 353 884 353 1716 
Q 353 2575 817 3079 
Q 1281 3584 2069 3584 
Q 2775 3584 3186 3129 
Q 3597 2675 3597 1894 
z
M 3022 2063 
Q 3016 2534 2758 2815 
Q 2500 3097 2075 3097 
Q 1594 3097 1305 2825 
Q 1016 2553 972 2059 
L 3022 2063 
z
M 1803 5119 
L 2266 5119 
L 3031 3944 
L 2597 3944 
L 2034 4709 
L 1472 3944 
L 1038 3944 
L 1803 5119 
z
" id="DejaVuSans-ea" transform="scale(0.015625)"/>
       </defs>
       <use xlink:href="#DejaVuSans-70"/>
       <use x="63.476562" xlink:href="#DejaVuSans-ea"/>
       <use x="125" xlink:href="#DejaVuSans-63"/>
       <use x="179.980469" xlink:href="#DejaVuSans-68"/>
       <use x="243.359375" xlink:href="#DejaVuSans-65"/>
       <use x="304.882812" xlink:href="#DejaVuSans-75"/>
       <use x="368.261719" xlink:href="#DejaVuSans-72"/>
       <use x="409.375" xlink:href="#DejaVuSans-73"/>
      </g>
     </g>
    </g>
    <g id="ytick_16">
     <g id="text_21">
      <!-- orfèvres -->
      <g transform="translate(191.255625 302.973348)scale(0.12 -0.12)">
       <defs>
        <path d="M 3597 1894 
L 3597 1613 
L 953 1613 
Q 991 1019 1311 708 
Q 1631 397 2203 397 
Q 2534 397 2845 478 
Q 3156 559 3463 722 
L 3463 178 
Q 3153 47 2828 -22 
Q 2503 -91 2169 -91 
Q 1331 -91 842 396 
Q 353 884 353 1716 
Q 353 2575 817 3079 
Q 1281 3584 2069 3584 
Q 2775 3584 3186 3129 
Q 3597 2675 3597 1894 
z
M 3022 2063 
Q 3016 2534 2758 2815 
Q 2500 3097 2075 3097 
Q 1594 3097 1305 2825 
Q 1016 2553 972 2059 
L 3022 2063 
z
M 1581 5119 
L 2463 3950 
L 1984 3950 
L 966 5119 
L 1581 5119 
z
" id="DejaVuSans-e8" transform="scale(0.015625)"/>
       </defs>
       <use xlink:href="#DejaVuSans-6f"/>
       <use x="61.181641" xlink:href="#DejaVuSans-72"/>
       <use x="102.294922" xlink:href="#DejaVuSans-66"/>
       <use x="137.5" xlink:href="#DejaVuSans-e8"/>
       <use x="199.023438" xlink:href="#DejaVuSans-76"/>
       <use x="258.203125" xlink:href="#DejaVuSans-72"/>
       <use x="297.066406" xlink:href="#DejaVuSans-65"/>
       <use x="358.589844" xlink:href="#DejaVuSans-73"/>
      </g>
     </g>
    </g>
    <g id="ytick_17">
     <g id="text_22">
      <!-- maçons -->
      <g transform="translate(193.700625 279.676205)scale(0.12 -0.12)">
       <defs>
        <path d="M 3122 3366 
L 3122 2828 
Q 2878 2963 2633 3030 
Q 2388 3097 2138 3097 
Q 1578 3097 1268 2742 
Q 959 2388 959 1747 
Q 959 1106 1268 751 
Q 1578 397 2138 397 
Q 2388 397 2633 464 
Q 2878 531 3122 666 
L 3122 134 
Q 2881 22 2623 -34 
Q 2366 -91 2075 -91 
Q 1284 -91 818 406 
Q 353 903 353 1747 
Q 353 2603 823 3093 
Q 1294 3584 2113 3584 
Q 2378 3584 2631 3529 
Q 2884 3475 3122 3366 
z
M 2309 0 
Q 2481 -194 2565 -358 
Q 2650 -522 2650 -672 
Q 2650 -950 2462 -1092 
Q 2275 -1234 1906 -1234 
Q 1763 -1234 1627 -1215 
Q 1491 -1197 1356 -1159 
L 1356 -750 
Q 1463 -803 1578 -826 
Q 1694 -850 1841 -850 
Q 2025 -850 2119 -775 
Q 2213 -700 2213 -556 
Q 2213 -463 2145 -327 
Q 2078 -191 1938 0 
L 2309 0 
z
" id="DejaVuSans-e7" transform="scale(0.015625)"/>
       </defs>
       <use xlink:href="#DejaVuSans-6d"/>
       <use x="97.412109" xlink:href="#DejaVuSans-61"/>
       <use x="158.691406" xlink:href="#DejaVuSans-e7"/>
       <use x="213.671875" xlink:href="#DejaVuSans-6f"/>
       <use x="274.853516" xlink:href="#DejaVuSans-6e"/>
       <use x="338.232422" xlink:href="#DejaVuSans-73"/>
      </g>
     </g>
    </g>
    <g id="ytick_18">
     <g id="text_23">
      <!-- tisserands -->
      <g transform="translate(178.854375 256.379062)scale(0.12 -0.12)">
       <use xlink:href="#DejaVuSans-74"/>
       <use x="39.208984" xlink:href="#DejaVuSans-69"/>
       <use x="66.992188" xlink:href="#DejaVuSans-73"/>
       <use x="119.091797" xlink:href="#DejaVuSans-73"/>
       <use x="171.191406" xlink:href="#DejaVuSans-65"/>
       <use x="232.714844" xlink:href="#DejaVuSans-72"/>
       <use x="273.828125" xlink:href="#DejaVuSans-61"/>
       <use x="335.107422" xlink:href="#DejaVuSans-6e"/>
       <use x="398.486328" xlink:href="#DejaVuSans-64"/>
       <use x="461.962891" xlink:href="#DejaVuSans-73"/>
      </g>
     </g>
    </g>
    <g id="ytick_19">
     <g id="text_24">
      <!-- pelletiers -->
      <g transform="translate(184.880625 233.08192)scale(0.12 -0.12)">
       <use xlink:href="#DejaVuSans-70"/>
       <use x="63.476562" xlink:href="#DejaVuSans-65"/>
       <use x="125" xlink:href="#DejaVuSans-6c"/>
       <use x="152.783203" xlink:href="#DejaVuSans-6c"/>
       <use x="180.566406" xlink:href="#DejaVuSans-65"/>
       <use x="242.089844" xlink:href="#DejaVuSans-74"/>
       <use x="281.298828" xlink:href="#DejaVuSans-69"/>
       <use x="309.082031" xlink:href="#DejaVuSans-65"/>
       <use x="370.605469" xlink:href="#DejaVuSans-72"/>
       <use x="411.71875" xlink:href="#DejaVuSans-73"/>
      </g>
     </g>
    </g>
    <g id="ytick_20">
     <g id="text_25">
      <!-- gourmets et courtiers -->
      <g transform="translate(110.4225 209.784777)scale(0.12 -0.12)">
       <use xlink:href="#DejaVuSans-67"/>
       <use x="63.476562" xlink:href="#DejaVuSans-6f"/>
       <use x="124.658203" xlink:href="#DejaVuSans-75"/>
       <use x="188.037109" xlink:href="#DejaVuSans-72"/>
       <use x="227.400391" xlink:href="#DejaVuSans-6d"/>
       <use x="324.8125" xlink:href="#DejaVuSans-65"/>
       <use x="386.335938" xlink:href="#DejaVuSans-74"/>
       <use x="425.544922" xlink:href="#DejaVuSans-73"/>
       <use x="477.644531" xlink:href="#DejaVuSans-20"/>
       <use x="509.431641" xlink:href="#DejaVuSans-65"/>
       <use x="570.955078" xlink:href="#DejaVuSans-74"/>
       <use x="610.164062" xlink:href="#DejaVuSans-20"/>
       <use x="641.951172" xlink:href="#DejaVuSans-63"/>
       <use x="696.931641" xlink:href="#DejaVuSans-6f"/>
       <use x="758.113281" xlink:href="#DejaVuSans-75"/>
       <use x="821.492188" xlink:href="#DejaVuSans-72"/>
       <use x="862.605469" xlink:href="#DejaVuSans-74"/>
       <use x="901.814453" xlink:href="#DejaVuSans-69"/>
       <use x="929.597656" xlink:href="#DejaVuSans-65"/>
       <use x="991.121094" xlink:href="#DejaVuSans-72"/>
       <use x="1032.234375" xlink:href="#DejaVuSans-73"/>
      </g>
     </g>
    </g>
    <g id="ytick_21">
     <g id="text_26">
      <!-- tailleurs -->
      <g transform="translate(192.3075 186.487634)scale(0.12 -0.12)">
       <use xlink:href="#DejaVuSans-74"/>
       <use x="39.208984" xlink:href="#DejaVuSans-61"/>
       <use x="100.488281" xlink:href="#DejaVuSans-69"/>
       <use x="128.271484" xlink:href="#DejaVuSans-6c"/>
       <use x="156.054688" xlink:href="#DejaVuSans-6c"/>
       <use x="183.837891" xlink:href="#DejaVuSans-65"/>
       <use x="245.361328" xlink:href="#DejaVuSans-75"/>
       <use x="308.740234" xlink:href="#DejaVuSans-72"/>
       <use x="349.853516" xlink:href="#DejaVuSans-73"/>
      </g>
     </g>
    </g>
    <g id="ytick_22">
     <g id="text_27">
      <!-- barbiers et baigneurs -->
      <g transform="translate(111.6975 163.190491)scale(0.12 -0.12)">
       <use xlink:href="#DejaVuSans-62"/>
       <use x="63.476562" xlink:href="#DejaVuSans-61"/>
       <use x="124.755859" xlink:href="#DejaVuSans-72"/>
       <use x="165.869141" xlink:href="#DejaVuSans-62"/>
       <use x="229.345703" xlink:href="#DejaVuSans-69"/>
       <use x="257.128906" xlink:href="#DejaVuSans-65"/>
       <use x="318.652344" xlink:href="#DejaVuSans-72"/>
       <use x="359.765625" xlink:href="#DejaVuSans-73"/>
       <use x="411.865234" xlink:href="#DejaVuSans-20"/>
       <use x="443.652344" xlink:href="#DejaVuSans-65"/>
       <use x="505.175781" xlink:href="#DejaVuSans-74"/>
       <use x="544.384766" xlink:href="#DejaVuSans-20"/>
       <use x="576.171875" xlink:href="#DejaVuSans-62"/>
       <use x="639.648438" xlink:href="#DejaVuSans-61"/>
       <use x="700.927734" xlink:href="#DejaVuSans-69"/>
       <use x="728.710938" xlink:href="#DejaVuSans-67"/>
       <use x="792.1875" xlink:href="#DejaVuSans-6e"/>
       <use x="855.566406" xlink:href="#DejaVuSans-65"/>
       <use x="917.089844" xlink:href="#DejaVuSans-75"/>
       <use x="980.46875" xlink:href="#DejaVuSans-72"/>
       <use x="1021.582031" xlink:href="#DejaVuSans-73"/>
      </g>
     </g>
    </g>
    <g id="ytick_23">
     <g id="text_28">
      <!-- sauniers -->
      <g transform="translate(189.823125 139.893348)scale(0.12 -0.12)">
       <use xlink:href="#DejaVuSans-73"/>
       <use x="52.099609" xlink:href="#DejaVuSans-61"/>
       <use x="113.378906" xlink:href="#DejaVuSans-75"/>
       <use x="176.757812" xlink:href="#DejaVuSans-6e"/>
       <use x="240.136719" xlink:href="#DejaVuSans-69"/>
       <use x="267.919922" xlink:href="#DejaVuSans-65"/>
       <use x="329.443359" xlink:href="#DejaVuSans-72"/>
       <use x="370.556641" xlink:href="#DejaVuSans-73"/>
      </g>
     </g>
    </g>
    <g id="ytick_24">
     <g id="text_29">
      <!-- bouchers -->
      <g transform="translate(185.203125 116.596205)scale(0.12 -0.12)">
       <use xlink:href="#DejaVuSans-62"/>
       <use x="63.476562" xlink:href="#DejaVuSans-6f"/>
       <use x="124.658203" xlink:href="#DejaVuSans-75"/>
       <use x="188.037109" xlink:href="#DejaVuSans-63"/>
       <use x="243.017578" xlink:href="#DejaVuSans-68"/>
       <use x="306.396484" xlink:href="#DejaVuSans-65"/>
       <use x="367.919922" xlink:href="#DejaVuSans-72"/>
       <use x="409.033203" xlink:href="#DejaVuSans-73"/>
      </g>
     </g>
    </g>
    <g id="ytick_25">
     <g id="text_30">
      <!-- tonneliers -->
      <g transform="translate(180.66375 93.299062)scale(0.12 -0.12)">
       <use xlink:href="#DejaVuSans-74"/>
       <use x="39.208984" xlink:href="#DejaVuSans-6f"/>
       <use x="100.390625" xlink:href="#DejaVuSans-6e"/>
       <use x="163.769531" xlink:href="#DejaVuSans-6e"/>
       <use x="227.148438" xlink:href="#DejaVuSans-65"/>
       <use x="288.671875" xlink:href="#DejaVuSans-6c"/>
       <use x="316.455078" xlink:href="#DejaVuSans-69"/>
       <use x="344.238281" xlink:href="#DejaVuSans-65"/>
       <use x="405.761719" xlink:href="#DejaVuSans-72"/>
       <use x="446.875" xlink:href="#DejaVuSans-73"/>
      </g>
     </g>
    </g>
    <g id="ytick_26">
     <g id="text_31">
      <!-- bateliers -->
      <g transform="translate(188.244375 70.00192)scale(0.12 -0.12)">
       <use xlink:href="#DejaVuSans-62"/>
       <use x="63.476562" xlink:href="#DejaVuSans-61"/>
       <use x="124.755859" xlink:href="#DejaVuSans-74"/>
       <use x="163.964844" xlink:href="#DejaVuSans-65"/>
       <use x="225.488281" xlink:href="#DejaVuSans-6c"/>
       <use x="253.271484" xlink:href="#DejaVuSans-69"/>
       <use x="281.054688" xlink:href="#DejaVuSans-65"/>
       <use x="342.578125" xlink:href="#DejaVuSans-72"/>
       <use x="383.691406" xlink:href="#DejaVuSans-73"/>
      </g>
     </g>
    </g>
    <g id="ytick_27">
     <g id="text_32">
      <!-- forgerons -->
      <g transform="translate(183.38625 46.704777)scale(0.12 -0.12)">
       <use xlink:href="#DejaVuSans-66"/>
       <use x="35.205078" xlink:href="#DejaVuSans-6f"/>
       <use x="96.386719" xlink:href="#DejaVuSans-72"/>
       <use x="135.75" xlink:href="#DejaVuSans-67"/>
       <use x="199.226562" xlink:href="#DejaVuSans-65"/>
       <use x="260.75" xlink:href="#DejaVuSans-72"/>
       <use x="299.613281" xlink:href="#DejaVuSans-6f"/>
       <use x="360.794922" xlink:href="#DejaVuSans-6e"/>
       <use x="424.173828" xlink:href="#DejaVuSans-73"/>
      </g>
     </g>
    </g>
    <g id="ytick_28">
     <g id="text_33">
      <!-- cordonniers -->
      <g transform="translate(169.80375 23.407634)scale(0.12 -0.12)">
       <use xlink:href="#DejaVuSans-63"/>
       <use x="54.980469" xlink:href="#DejaVuSans-6f"/>
       <use x="116.162109" xlink:href="#DejaVuSans-72"/>
       <use x="155.525391" xlink:href="#DejaVuSans-64"/>
       <use x="219.001953" xlink:href="#DejaVuSans-6f"/>
       <use x="280.183594" xlink:href="#DejaVuSans-6e"/>
       <use x="343.5625" xlink:href="#DejaVuSans-6e"/>
       <use x="406.941406" xlink:href="#DejaVuSans-69"/>
       <use x="434.724609" xlink:href="#DejaVuSans-65"/>
       <use x="496.248047" xlink:href="#DejaVuSans-72"/>
       <use x="537.361328" xlink:href="#DejaVuSans-73"/>
      </g>
     </g>
    </g>
   </g>
   <g id="LineCollection_1">
    <path clip-path="url(#p63b736b671)" d="M 247.54 624.574286 
L 403.672608 624.574286 
L 403.672608 601.277143 
L 247.54 601.277143 
" style="fill:none;stroke:#ff7f0e;stroke-width:1.5;"/>
    <path clip-path="url(#p63b736b671)" d="M 247.54 577.98 
L 430.78736 577.98 
L 430.78736 554.682857 
L 247.54 554.682857 
" style="fill:none;stroke:#ff7f0e;stroke-width:1.5;"/>
    <path clip-path="url(#p63b736b671)" d="M 403.672608 612.925714 
L 457.905867 612.925714 
L 457.905867 566.331429 
L 430.78736 566.331429 
" style="fill:none;stroke:#ff7f0e;stroke-width:1.5;"/>
   </g>
   <g id="LineCollection_2">
    <path clip-path="url(#p63b736b671)" d="M 247.54 484.791429 
L 453.110794 484.791429 
L 453.110794 461.494286 
L 247.54 461.494286 
" style="fill:none;stroke:#2ca02c;stroke-width:1.5;"/>
    <path clip-path="url(#p63b736b671)" d="M 247.54 508.088571 
L 477.874446 508.088571 
L 477.874446 473.142857 
L 453.110794 473.142857 
" style="fill:none;stroke:#2ca02c;stroke-width:1.5;"/>
   </g>
   <g id="LineCollection_3">
    <path clip-path="url(#p63b736b671)" d="M 247.54 414.9 
L 445.658264 414.9 
L 445.658264 391.602857 
L 247.54 391.602857 
" style="fill:none;stroke:#d62728;stroke-width:1.5;"/>
    <path clip-path="url(#p63b736b671)" d="M 247.54 438.197143 
L 455.368113 438.197143 
L 455.368113 403.251429 
L 445.658264 403.251429 
" style="fill:none;stroke:#d62728;stroke-width:1.5;"/>
    <path clip-path="url(#p63b736b671)" d="M 247.54 298.414286 
L 375.204677 298.414286 
L 375.204677 275.117143 
L 247.54 275.117143 
" style="fill:none;stroke:#d62728;stroke-width:1.5;"/>
    <path clip-path="url(#p63b736b671)" d="M 247.54 321.711429 
L 394.176749 321.711429 
L 394.176749 286.765714 
L 375.204677 286.765714 
" style="fill:none;stroke:#d62728;stroke-width:1.5;"/>
    <path clip-path="url(#p63b736b671)" d="M 247.54 345.008571 
L 398.732783 345.008571 
L 398.732783 304.238571 
L 394.176749 304.238571 
" style="fill:none;stroke:#d62728;stroke-width:1.5;"/>
    <path clip-path="url(#p63b736b671)" d="M 247.54 181.928571 
L 389.088442 181.928571 
L 389.088442 158.631429 
L 247.54 158.631429 
" style="fill:none;stroke:#d62728;stroke-width:1.5;"/>
    <path clip-path="url(#p63b736b671)" d="M 247.54 205.225714 
L 404.350234 205.225714 
L 404.350234 170.28 
L 389.088442 170.28 
" style="fill:none;stroke:#d62728;stroke-width:1.5;"/>
    <path clip-path="url(#p63b736b671)" d="M 247.54 228.522857 
L 431.012223 228.522857 
L 431.012223 187.752857 
L 404.350234 187.752857 
" style="fill:none;stroke:#d62728;stroke-width:1.5;"/>
    <path clip-path="url(#p63b736b671)" d="M 247.54 251.82 
L 440.129084 251.82 
L 440.129084 208.137857 
L 431.012223 208.137857 
" style="fill:none;stroke:#d62728;stroke-width:1.5;"/>
    <path clip-path="url(#p63b736b671)" d="M 398.732783 324.623571 
L 460.816078 324.623571 
L 460.816078 229.978929 
L 440.129084 229.978929 
" style="fill:none;stroke:#d62728;stroke-width:1.5;"/>
    <path clip-path="url(#p63b736b671)" d="M 247.54 368.305714 
L 465.570627 368.305714 
L 465.570627 277.30125 
L 460.816078 277.30125 
" style="fill:none;stroke:#d62728;stroke-width:1.5;"/>
    <path clip-path="url(#p63b736b671)" d="M 455.368113 420.724286 
L 489.33197 420.724286 
L 489.33197 322.803482 
L 465.570627 322.803482 
" style="fill:none;stroke:#d62728;stroke-width:1.5;"/>
   </g>
   <g id="LineCollection_4">
    <path clip-path="url(#p63b736b671)" d="M 247.54 42.145714 
L 440.563164 42.145714 
L 440.563164 18.848571 
L 247.54 18.848571 
" style="fill:none;stroke:#9467bd;stroke-width:1.5;"/>
    <path clip-path="url(#p63b736b671)" d="M 247.54 65.442857 
L 458.823047 65.442857 
L 458.823047 30.497143 
L 440.563164 30.497143 
" style="fill:none;stroke:#9467bd;stroke-width:1.5;"/>
    <path clip-path="url(#p63b736b671)" d="M 247.54 88.74 
L 476.6578 88.74 
L 476.6578 47.97 
L 458.823047 47.97 
" style="fill:none;stroke:#9467bd;stroke-width:1.5;"/>
    <path clip-path="url(#p63b736b671)" d="M 247.54 112.037143 
L 489.719482 112.037143 
L 489.719482 68.355 
L 476.6578 68.355 
" style="fill:none;stroke:#9467bd;stroke-width:1.5;"/>
    <path clip-path="url(#p63b736b671)" d="M 247.54 135.334286 
L 496.112971 135.334286 
L 496.112971 90.196071 
L 489.719482 90.196071 
" style="fill:none;stroke:#9467bd;stroke-width:1.5;"/>
   </g>
   <g id="LineCollection_5">
    <path clip-path="url(#p63b736b671)" d="M 247.54 647.871429 
L 535.029418 647.871429 
L 535.029418 589.628571 
L 457.905867 589.628571 
" style="fill:none;stroke:#1f77b4;stroke-width:1.5;"/>
    <path clip-path="url(#p63b736b671)" d="M 489.33197 371.763884 
L 521.291197 371.763884 
L 521.291197 112.765179 
L 496.112971 112.765179 
" style="fill:none;stroke:#1f77b4;stroke-width:1.5;"/>
    <path clip-path="url(#p63b736b671)" d="M 477.874446 490.615714 
L 534.729435 490.615714 
L 534.729435 242.264531 
L 521.291197 242.264531 
" style="fill:none;stroke:#1f77b4;stroke-width:1.5;"/>
    <path clip-path="url(#p63b736b671)" d="M 247.54 531.385714 
L 600.057061 531.385714 
L 600.057061 366.440123 
L 534.729435 366.440123 
" style="fill:none;stroke:#1f77b4;stroke-width:1.5;"/>
    <path clip-path="url(#p63b736b671)" d="M 535.029418 618.75 
L 619.54 618.75 
L 619.54 448.912919 
L 600.057061 448.912919 
" style="fill:none;stroke:#1f77b4;stroke-width:1.5;"/>
   </g>
   <g id="patch_3">
    <path d="M 247.54 659.52 
L 247.54 7.2 
" style="fill:none;stroke:#000000;stroke-linecap:square;stroke-linejoin:miter;stroke-width:0.8;"/>
   </g>
   <g id="patch_4">
    <path d="M 638.14 659.52 
L 638.14 7.2 
" style="fill:none;stroke:#000000;stroke-linecap:square;stroke-linejoin:miter;stroke-width:0.8;"/>
   </g>
   <g id="patch_5">
    <path d="M 247.54 659.52 
L 638.14 659.52 
" style="fill:none;stroke:#000000;stroke-linecap:square;stroke-linejoin:miter;stroke-width:0.8;"/>
   </g>
   <g id="patch_6">
    <path d="M 247.54 7.2 
L 638.14 7.2 
" style="fill:none;stroke:#000000;stroke-linecap:square;stroke-linejoin:miter;stroke-width:0.8;"/>
   </g>
  </g>
 </g>
 <defs>
  <clipPath id="p63b736b671">
   <rect height="652.32" width="390.6" x="247.54" y="7.2"/>
  </clipPath>
 </defs>
</svg>
