<?xml version="1.0" encoding="utf-8" standalone="no"?>
<!DOCTYPE svg PUBLIC "-//W3C//DTD SVG 1.1//EN"
  "http://www.w3.org/Graphics/SVG/1.1/DTD/svg11.dtd">
<svg height="864pt" version="1.1" viewBox="0 0 504 864" width="504pt" xmlns="http://www.w3.org/2000/svg" xmlns:xlink="http://www.w3.org/1999/xlink">
 <metadata>
  <rdf:RDF xmlns:cc="http://creativecommons.org/ns#" xmlns:dc="http://purl.org/dc/elements/1.1/" xmlns:rdf="http://www.w3.org/1999/02/22-rdf-syntax-ns#">
   <cc:Work>
    <dc:type rdf:resource="http://purl.org/dc/dcmitype/StillImage"/>
    <dc:date>2022-07-08T19:26:59.104082</dc:date>
    <dc:format>image/svg+xml</dc:format>
    <dc:creator>
     <cc:Agent>
      <dc:title>Matplotlib v3.4.3, https://matplotlib.org/</dc:title>
     </cc:Agent>
    </dc:creator>
   </cc:Work>
  </rdf:RDF>
 </metadata>
 <defs>
  <style type="text/css">*{stroke-linecap:butt;stroke-linejoin:round;}</style>
 </defs>
 <g id="figure_1">
  <g id="patch_1">
   <path d="M 0 864 
L 504 864 
L 504 0 
L 0 0 
z
" style="fill:none;"/>
  </g>
  <g id="axes_1">
   <g id="patch_2">
    <path d="M 45.5375 824.2 
L 493.2 824.2 
L 493.2 10.8 
L 45.5375 10.8 
z
" style="fill:#ffffff;"/>
   </g>
   <g id="PolyCollection_1">
    <defs>
     <path d="M 101.495313 -183.043185 
L 96.657401 -183.043185 
L 94.909252 -184.264388 
L 92.757971 -185.485592 
L 90.199469 -186.706795 
L 87.264038 -187.927999 
L 84.022824 -189.149203 
L 80.590241 -190.370406 
L 77.120873 -191.59161 
L 73.800144 -192.812813 
L 70.829086 -194.034017 
L 68.404705 -195.255221 
L 66.698517 -196.476424 
L 65.836424 -197.697628 
L 65.883195 -198.918831 
L 66.834141 -200.140035 
L 68.615403 -201.361239 
L 71.092763 -202.582442 
L 74.087395 -203.803646 
L 77.39586 -205.024849 
L 80.811098 -206.246053 
L 84.141326 -207.467257 
L 87.224476 -208.68846 
L 89.936919 -209.909664 
L 92.196405 -211.130867 
L 93.960164 -212.352071 
L 95.219747 -213.573275 
L 95.994369 -214.794478 
L 96.324276 -216.015682 
L 96.265147 -217.236885 
L 95.883906 -218.458089 
L 95.255732 -219.679293 
L 94.461679 -220.900496 
L 93.586185 -222.1217 
L 92.71388 -223.342904 
L 91.925442 -224.564107 
L 91.29266 -225.785311 
L 90.873283 -227.006514 
L 90.706439 -228.227718 
L 90.809509 -229.448922 
L 91.177099 -230.670125 
L 91.782445 -231.891329 
L 92.581112 -233.112532 
L 93.51643 -234.333736 
L 94.525839 -235.55494 
L 95.547172 -236.776143 
L 96.524042 -237.997347 
L 97.40972 -239.21855 
L 98.169268 -240.439754 
L 98.78002 -241.660958 
L 99.230784 -242.882161 
L 99.520273 -244.103365 
L 99.655288 -245.324568 
L 99.649054 -246.545772 
L 99.51992 -247.766976 
L 99.290435 -248.988179 
L 98.986646 -250.209383 
L 98.637374 -251.430586 
L 98.273217 -252.65179 
L 97.925134 -253.872994 
L 97.622594 -255.094197 
L 97.391435 -256.315401 
L 97.251733 -257.536604 
L 97.21601 -258.757808 
L 97.288131 -259.979012 
L 97.46311 -261.200215 
L 97.7279 -262.421419 
L 98.063056 -263.642623 
L 98.445019 -264.863826 
L 98.848635 -266.08503 
L 99.249569 -267.306233 
L 99.626272 -268.527437 
L 99.961311 -269.748641 
L 100.242018 -270.969844 
L 100.460525 -272.191048 
L 100.613351 -273.412251 
L 100.700772 -274.633455 
L 100.726145 -275.854659 
L 100.695331 -277.075862 
L 100.616275 -278.297066 
L 100.49871 -279.518269 
L 100.3539 -280.739473 
L 100.194317 -281.960677 
L 100.033161 -283.18188 
L 99.883661 -284.403084 
L 99.758206 -285.624287 
L 99.667371 -286.845491 
L 99.618998 -288.066695 
L 99.617475 -289.287898 
L 99.663359 -290.509102 
L 99.753428 -291.730305 
L 99.881167 -292.951509 
L 100.037608 -294.172713 
L 100.212418 -295.393916 
L 100.395032 -296.61512 
L 100.575702 -297.836324 
L 100.746295 -299.057527 
L 100.900793 -300.278731 
L 101.035452 -301.499934 
L 101.148678 -302.721138 
L 101.240686 -303.942342 
L 101.495313 -303.942342 
L 101.495313 -303.942342 
L 101.495313 -302.721138 
L 101.495313 -301.499934 
L 101.495313 -300.278731 
L 101.495313 -299.057527 
L 101.495313 -297.836324 
L 101.495313 -296.61512 
L 101.495313 -295.393916 
L 101.495313 -294.172713 
L 101.495313 -292.951509 
L 101.495313 -291.730305 
L 101.495313 -290.509102 
L 101.495313 -289.287898 
L 101.495313 -288.066695 
L 101.495313 -286.845491 
L 101.495313 -285.624287 
L 101.495313 -284.403084 
L 101.495313 -283.18188 
L 101.495313 -281.960677 
L 101.495313 -280.739473 
L 101.495313 -279.518269 
L 101.495313 -278.297066 
L 101.495313 -277.075862 
L 101.495313 -275.854659 
L 101.495313 -274.633455 
L 101.495313 -273.412251 
L 101.495313 -272.191048 
L 101.495313 -270.969844 
L 101.495313 -269.748641 
L 101.495313 -268.527437 
L 101.495313 -267.306233 
L 101.495313 -266.08503 
L 101.495313 -264.863826 
L 101.495313 -263.642623 
L 101.495313 -262.421419 
L 101.495313 -261.200215 
L 101.495313 -259.979012 
L 101.495313 -258.757808 
L 101.495313 -257.536604 
L 101.495313 -256.315401 
L 101.495313 -255.094197 
L 101.495313 -253.872994 
L 101.495313 -252.65179 
L 101.495313 -251.430586 
L 101.495313 -250.209383 
L 101.495313 -248.988179 
L 101.495313 -247.766976 
L 101.495313 -246.545772 
L 101.495313 -245.324568 
L 101.495313 -244.103365 
L 101.495313 -242.882161 
L 101.495313 -241.660958 
L 101.495313 -240.439754 
L 101.495313 -239.21855 
L 101.495313 -237.997347 
L 101.495313 -236.776143 
L 101.495313 -235.55494 
L 101.495313 -234.333736 
L 101.495313 -233.112532 
L 101.495313 -231.891329 
L 101.495313 -230.670125 
L 101.495313 -229.448922 
L 101.495313 -228.227718 
L 101.495313 -227.006514 
L 101.495313 -225.785311 
L 101.495313 -224.564107 
L 101.495313 -223.342904 
L 101.495313 -222.1217 
L 101.495313 -220.900496 
L 101.495313 -219.679293 
L 101.495313 -218.458089 
L 101.495313 -217.236885 
L 101.495313 -216.015682 
L 101.495313 -214.794478 
L 101.495313 -213.573275 
L 101.495313 -212.352071 
L 101.495313 -211.130867 
L 101.495313 -209.909664 
L 101.495313 -208.68846 
L 101.495313 -207.467257 
L 101.495313 -206.246053 
L 101.495313 -205.024849 
L 101.495313 -203.803646 
L 101.495313 -202.582442 
L 101.495313 -201.361239 
L 101.495313 -200.140035 
L 101.495313 -198.918831 
L 101.495313 -197.697628 
L 101.495313 -196.476424 
L 101.495313 -195.255221 
L 101.495313 -194.034017 
L 101.495313 -192.812813 
L 101.495313 -191.59161 
L 101.495313 -190.370406 
L 101.495313 -189.149203 
L 101.495313 -187.927999 
L 101.495313 -186.706795 
L 101.495313 -185.485592 
L 101.495313 -184.264388 
L 101.495313 -183.043185 
z
" id="m8ab86bbad2" style="stroke:#4a4a4a;stroke-width:1.5;"/>
    </defs>
    <g clip-path="url(#pa73c9eedff)">
     <use style="fill:#a55c53;stroke:#4a4a4a;stroke-width:1.5;" x="0" xlink:href="#m8ab86bbad2" y="864"/>
    </g>
   </g>
   <g id="PolyCollection_2">
    <defs>
     <path d="M 107.566939 -184.740863 
L 101.495313 -184.740863 
L 101.495313 -185.92777 
L 101.495313 -187.114677 
L 101.495313 -188.301584 
L 101.495313 -189.488491 
L 101.495313 -190.675398 
L 101.495313 -191.862306 
L 101.495313 -193.049213 
L 101.495313 -194.23612 
L 101.495313 -195.423027 
L 101.495313 -196.609934 
L 101.495313 -197.796841 
L 101.495313 -198.983748 
L 101.495313 -200.170655 
L 101.495313 -201.357562 
L 101.495313 -202.544469 
L 101.495313 -203.731376 
L 101.495313 -204.918283 
L 101.495313 -206.10519 
L 101.495313 -207.292097 
L 101.495313 -208.479004 
L 101.495313 -209.665912 
L 101.495313 -210.852819 
L 101.495313 -212.039726 
L 101.495313 -213.226633 
L 101.495313 -214.41354 
L 101.495313 -215.600447 
L 101.495313 -216.787354 
L 101.495313 -217.974261 
L 101.495313 -219.161168 
L 101.495313 -220.348075 
L 101.495313 -221.534982 
L 101.495313 -222.721889 
L 101.495313 -223.908796 
L 101.495313 -225.095703 
L 101.495313 -226.282611 
L 101.495313 -227.469518 
L 101.495313 -228.656425 
L 101.495313 -229.843332 
L 101.495313 -231.030239 
L 101.495313 -232.217146 
L 101.495313 -233.404053 
L 101.495313 -234.59096 
L 101.495313 -235.777867 
L 101.495313 -236.964774 
L 101.495313 -238.151681 
L 101.495313 -239.338588 
L 101.495313 -240.525495 
L 101.495313 -241.712402 
L 101.495313 -242.899309 
L 101.495313 -244.086217 
L 101.495313 -245.273124 
L 101.495313 -246.460031 
L 101.495313 -247.646938 
L 101.495313 -248.833845 
L 101.495313 -250.020752 
L 101.495313 -251.207659 
L 101.495313 -252.394566 
L 101.495313 -253.581473 
L 101.495313 -254.76838 
L 101.495313 -255.955287 
L 101.495313 -257.142194 
L 101.495313 -258.329101 
L 101.495313 -259.516008 
L 101.495313 -260.702916 
L 101.495313 -261.889823 
L 101.495313 -263.07673 
L 101.495313 -264.263637 
L 101.495313 -265.450544 
L 101.495313 -266.637451 
L 101.495313 -267.824358 
L 101.495313 -269.011265 
L 101.495313 -270.198172 
L 101.495313 -271.385079 
L 101.495313 -272.571986 
L 101.495313 -273.758893 
L 101.495313 -274.9458 
L 101.495313 -276.132707 
L 101.495313 -277.319614 
L 101.495313 -278.506522 
L 101.495313 -279.693429 
L 101.495313 -280.880336 
L 101.495313 -282.067243 
L 101.495313 -283.25415 
L 101.495313 -284.441057 
L 101.495313 -285.627964 
L 101.495313 -286.814871 
L 101.495313 -288.001778 
L 101.495313 -289.188685 
L 101.495313 -290.375592 
L 101.495313 -291.562499 
L 101.495313 -292.749406 
L 101.495313 -293.936313 
L 101.495313 -295.123221 
L 101.495313 -296.310128 
L 101.495313 -297.497035 
L 101.495313 -298.683942 
L 101.495313 -299.870849 
L 101.495313 -301.057756 
L 101.495313 -302.244663 
L 101.70378 -302.244663 
L 101.70378 -302.244663 
L 101.787081 -301.057756 
L 101.891239 -299.870849 
L 102.016225 -298.683942 
L 102.159806 -297.497035 
L 102.317161 -296.310128 
L 102.48084 -295.123221 
L 102.641146 -293.936313 
L 102.786979 -292.749406 
L 102.907059 -291.562499 
L 102.991351 -290.375592 
L 103.032452 -289.188685 
L 103.026681 -288.001778 
L 102.974649 -286.814871 
L 102.881201 -285.627964 
L 102.754766 -284.441057 
L 102.606241 -283.25415 
L 102.447677 -282.067243 
L 102.29101 -280.880336 
L 102.147093 -279.693429 
L 102.02515 -278.506522 
L 101.932674 -277.319614 
L 101.875691 -276.132707 
L 101.859185 -274.9458 
L 101.887483 -273.758893 
L 101.96438 -272.571986 
L 102.092869 -271.385079 
L 102.27443 -270.198172 
L 102.507988 -269.011265 
L 102.788727 -267.824358 
L 103.107099 -266.637451 
L 103.448355 -265.450544 
L 103.792882 -264.263637 
L 104.11751 -263.07673 
L 104.39773 -261.889823 
L 104.610533 -260.702916 
L 104.737421 -259.516008 
L 104.767013 -258.329101 
L 104.696751 -257.142194 
L 104.533351 -255.955287 
L 104.291938 -254.76838 
L 103.994077 -253.581473 
L 103.66515 -252.394566 
L 103.33165 -251.207659 
L 103.018935 -250.020752 
L 102.749811 -248.833845 
L 102.544098 -247.646938 
L 102.419014 -246.460031 
L 102.39004 -245.273124 
L 102.471732 -244.086217 
L 102.677957 -242.899309 
L 103.021137 -241.712402 
L 103.510308 -240.525495 
L 104.148138 -239.338588 
L 104.927373 -238.151681 
L 105.82752 -236.964774 
L 106.812725 -235.777867 
L 107.831754 -234.59096 
L 108.820708 -233.404053 
L 109.708559 -232.217146 
L 110.424952 -231.030239 
L 110.909093 -229.843332 
L 111.118179 -228.656425 
L 111.033743 -227.469518 
L 110.664692 -226.282611 
L 110.046506 -225.095703 
L 109.236911 -223.908796 
L 108.309143 -222.721889 
L 107.344408 -221.534982 
L 106.425245 -220.348075 
L 105.631106 -219.161168 
L 105.036825 -217.974261 
L 104.713701 -216.787354 
L 104.732136 -215.600447 
L 105.164073 -214.41354 
L 106.083272 -213.226633 
L 107.561643 -212.039726 
L 109.660597 -210.852819 
L 112.41758 -209.665912 
L 115.829391 -208.479004 
L 119.835383 -207.292097 
L 124.304668 -206.10519 
L 129.031688 -204.918283 
L 133.743644 -203.731376 
L 138.12124 -202.544469 
L 141.831377 -201.357562 
L 144.567379 -200.170655 
L 146.090013 -198.983748 
L 146.261563 -197.796841 
L 145.06612 -196.609934 
L 142.611876 -195.423027 
L 139.11488 -194.23612 
L 134.867627 -193.049213 
L 130.198776 -191.862306 
L 125.431649 -190.675398 
L 120.848675 -189.488491 
L 116.666883 -188.301584 
L 113.026659 -187.114677 
L 109.99308 -185.92777 
L 107.566939 -184.740863 
z
" id="m2e9f09e6ad" style="stroke:#4a4a4a;stroke-width:1.5;"/>
    </defs>
    <g clip-path="url(#pa73c9eedff)">
     <use style="fill:#6e8a7f;stroke:#4a4a4a;stroke-width:1.5;" x="0" xlink:href="#m2e9f09e6ad" y="864"/>
    </g>
   </g>
   <g id="PolyCollection_3">
    <defs>
     <path d="M 213.410937 -123.228259 
L 208.646694 -123.228259 
L 207.813773 -127.486137 
L 206.876672 -131.744015 
L 205.830583 -136.001893 
L 204.672048 -140.259771 
L 203.399234 -144.51765 
L 202.012209 -148.775528 
L 200.513175 -153.033406 
L 198.906676 -157.291284 
L 197.199746 -161.549162 
L 195.401991 -165.80704 
L 193.525603 -170.064918 
L 191.585296 -174.322796 
L 189.598145 -178.580674 
L 187.583355 -182.838552 
L 185.561939 -187.096431 
L 183.556328 -191.354309 
L 181.58991 -195.612187 
L 179.686531 -199.870065 
L 177.869961 -204.127943 
L 176.163342 -208.385821 
L 174.588655 -212.643699 
L 173.166209 -216.901577 
L 171.914175 -221.159455 
L 170.848185 -225.417333 
L 169.981009 -229.675212 
L 169.322311 -233.93309 
L 168.878504 -238.190968 
L 168.652689 -242.448846 
L 168.644688 -246.706724 
L 168.851151 -250.964602 
L 169.265751 -255.22248 
L 169.879417 -259.480358 
L 170.680634 -263.738236 
L 171.655761 -267.996114 
L 172.789376 -272.253993 
L 174.064622 -276.511871 
L 175.463555 -280.769749 
L 176.967472 -285.027627 
L 178.557224 -289.285505 
L 180.213502 -293.543383 
L 181.917102 -297.801261 
L 183.649161 -302.059139 
L 185.391367 -306.317017 
L 187.126152 -310.574895 
L 188.836859 -314.832774 
L 190.507898 -319.090652 
L 192.124882 -323.34853 
L 193.674753 -327.606408 
L 195.145893 -331.864286 
L 196.528227 -336.122164 
L 197.813305 -340.380042 
L 198.994376 -344.63792 
L 200.066444 -348.895798 
L 201.026296 -353.153676 
L 201.872521 -357.411555 
L 202.605495 -361.669433 
L 203.227337 -365.927311 
L 203.741847 -370.185189 
L 204.154404 -374.443067 
L 204.471842 -378.700945 
L 204.702294 -382.958823 
L 204.855007 -387.216701 
L 204.940143 -391.474579 
L 204.968548 -395.732457 
L 204.951518 -399.990336 
L 204.900545 -404.248214 
L 204.827068 -408.506092 
L 204.742223 -412.76397 
L 204.656604 -417.021848 
L 204.580042 -421.279726 
L 204.521406 -425.537604 
L 204.48843 -429.795482 
L 204.487586 -434.05336 
L 204.523977 -438.311238 
L 204.601288 -442.569117 
L 204.721764 -446.826995 
L 204.886243 -451.084873 
L 205.094216 -455.342751 
L 205.343933 -459.600629 
L 205.632533 -463.858507 
L 205.956206 -468.116385 
L 206.310367 -472.374263 
L 206.689848 -476.632141 
L 207.089093 -480.890019 
L 207.502346 -485.147898 
L 207.923838 -489.405776 
L 208.34795 -493.663654 
L 208.769364 -497.921532 
L 209.183188 -502.17941 
L 209.585049 -506.437288 
L 209.971171 -510.695166 
L 210.338416 -514.953044 
L 210.684303 -519.210922 
L 211.007005 -523.4688 
L 211.305323 -527.726679 
L 211.578644 -531.984557 
L 211.826886 -536.242435 
L 212.05043 -540.500313 
L 212.250053 -544.758191 
L 213.410937 -544.758191 
L 213.410937 -544.758191 
L 213.410937 -540.500313 
L 213.410937 -536.242435 
L 213.410937 -531.984557 
L 213.410937 -527.726679 
L 213.410937 -523.4688 
L 213.410937 -519.210922 
L 213.410937 -514.953044 
L 213.410937 -510.695166 
L 213.410937 -506.437288 
L 213.410937 -502.17941 
L 213.410937 -497.921532 
L 213.410937 -493.663654 
L 213.410937 -489.405776 
L 213.410937 -485.147898 
L 213.410937 -480.890019 
L 213.410937 -476.632141 
L 213.410937 -472.374263 
L 213.410937 -468.116385 
L 213.410937 -463.858507 
L 213.410937 -459.600629 
L 213.410937 -455.342751 
L 213.410937 -451.084873 
L 213.410937 -446.826995 
L 213.410937 -442.569117 
L 213.410937 -438.311238 
L 213.410937 -434.05336 
L 213.410937 -429.795482 
L 213.410937 -425.537604 
L 213.410937 -421.279726 
L 213.410937 -417.021848 
L 213.410937 -412.76397 
L 213.410937 -408.506092 
L 213.410937 -404.248214 
L 213.410937 -399.990336 
L 213.410937 -395.732457 
L 213.410937 -391.474579 
L 213.410937 -387.216701 
L 213.410937 -382.958823 
L 213.410937 -378.700945 
L 213.410937 -374.443067 
L 213.410937 -370.185189 
L 213.410937 -365.927311 
L 213.410937 -361.669433 
L 213.410937 -357.411555 
L 213.410937 -353.153676 
L 213.410937 -348.895798 
L 213.410937 -344.63792 
L 213.410937 -340.380042 
L 213.410937 -336.122164 
L 213.410937 -331.864286 
L 213.410937 -327.606408 
L 213.410937 -323.34853 
L 213.410937 -319.090652 
L 213.410937 -314.832774 
L 213.410937 -310.574895 
L 213.410937 -306.317017 
L 213.410937 -302.059139 
L 213.410937 -297.801261 
L 213.410937 -293.543383 
L 213.410937 -289.285505 
L 213.410937 -285.027627 
L 213.410937 -280.769749 
L 213.410937 -276.511871 
L 213.410937 -272.253993 
L 213.410937 -267.996114 
L 213.410937 -263.738236 
L 213.410937 -259.480358 
L 213.410937 -255.22248 
L 213.410937 -250.964602 
L 213.410937 -246.706724 
L 213.410937 -242.448846 
L 213.410937 -238.190968 
L 213.410937 -233.93309 
L 213.410937 -229.675212 
L 213.410937 -225.417333 
L 213.410937 -221.159455 
L 213.410937 -216.901577 
L 213.410937 -212.643699 
L 213.410937 -208.385821 
L 213.410937 -204.127943 
L 213.410937 -199.870065 
L 213.410937 -195.612187 
L 213.410937 -191.354309 
L 213.410937 -187.096431 
L 213.410937 -182.838552 
L 213.410937 -178.580674 
L 213.410937 -174.322796 
L 213.410937 -170.064918 
L 213.410937 -165.80704 
L 213.410937 -161.549162 
L 213.410937 -157.291284 
L 213.410937 -153.033406 
L 213.410937 -148.775528 
L 213.410937 -144.51765 
L 213.410937 -140.259771 
L 213.410937 -136.001893 
L 213.410937 -131.744015 
L 213.410937 -127.486137 
L 213.410937 -123.228259 
z
" id="me32b312183" style="stroke:#4a4a4a;stroke-width:1.5;"/>
    </defs>
    <g clip-path="url(#pa73c9eedff)">
     <use style="fill:#a55c53;stroke:#4a4a4a;stroke-width:1.5;" x="0" xlink:href="#me32b312183" y="864"/>
    </g>
   </g>
   <g id="PolyCollection_4">
    <defs>
     <path d="M 214.968027 -246.578197 
L 213.410937 -246.578197 
L 213.410937 -250.78188 
L 213.410937 -254.985563 
L 213.410937 -259.189246 
L 213.410937 -263.392929 
L 213.410937 -267.596612 
L 213.410937 -271.800296 
L 213.410937 -276.003979 
L 213.410937 -280.207662 
L 213.410937 -284.411345 
L 213.410937 -288.615028 
L 213.410937 -292.818711 
L 213.410937 -297.022394 
L 213.410937 -301.226077 
L 213.410937 -305.42976 
L 213.410937 -309.633443 
L 213.410937 -313.837126 
L 213.410937 -318.040809 
L 213.410937 -322.244492 
L 213.410937 -326.448175 
L 213.410937 -330.651858 
L 213.410937 -334.855541 
L 213.410937 -339.059224 
L 213.410937 -343.262907 
L 213.410937 -347.46659 
L 213.410937 -351.670273 
L 213.410937 -355.873956 
L 213.410937 -360.077639 
L 213.410937 -364.281322 
L 213.410937 -368.485005 
L 213.410937 -372.688688 
L 213.410937 -376.892372 
L 213.410937 -381.096055 
L 213.410937 -385.299738 
L 213.410937 -389.503421 
L 213.410937 -393.707104 
L 213.410937 -397.910787 
L 213.410937 -402.11447 
L 213.410937 -406.318153 
L 213.410937 -410.521836 
L 213.410937 -414.725519 
L 213.410937 -418.929202 
L 213.410937 -423.132885 
L 213.410937 -427.336568 
L 213.410937 -431.540251 
L 213.410937 -435.743934 
L 213.410937 -439.947617 
L 213.410937 -444.1513 
L 213.410937 -448.354983 
L 213.410937 -452.558666 
L 213.410937 -456.762349 
L 213.410937 -460.966032 
L 213.410937 -465.169715 
L 213.410937 -469.373398 
L 213.410937 -473.577081 
L 213.410937 -477.780764 
L 213.410937 -481.984447 
L 213.410937 -486.188131 
L 213.410937 -490.391814 
L 213.410937 -494.595497 
L 213.410937 -498.79918 
L 213.410937 -503.002863 
L 213.410937 -507.206546 
L 213.410937 -511.410229 
L 213.410937 -515.613912 
L 213.410937 -519.817595 
L 213.410937 -524.021278 
L 213.410937 -528.224961 
L 213.410937 -532.428644 
L 213.410937 -536.632327 
L 213.410937 -540.83601 
L 213.410937 -545.039693 
L 213.410937 -549.243376 
L 213.410937 -553.447059 
L 213.410937 -557.650742 
L 213.410937 -561.854425 
L 213.410937 -566.058108 
L 213.410937 -570.261791 
L 213.410937 -574.465474 
L 213.410937 -578.669157 
L 213.410937 -582.87284 
L 213.410937 -587.076523 
L 213.410937 -591.280207 
L 213.410937 -595.48389 
L 213.410937 -599.687573 
L 213.410937 -603.891256 
L 213.410937 -608.094939 
L 213.410937 -612.298622 
L 213.410937 -616.502305 
L 213.410937 -620.705988 
L 213.410937 -624.909671 
L 213.410937 -629.113354 
L 213.410937 -633.317037 
L 213.410937 -637.52072 
L 213.410937 -641.724403 
L 213.410937 -645.928086 
L 213.410937 -650.131769 
L 213.410937 -654.335452 
L 213.410937 -658.539135 
L 213.410937 -662.742818 
L 214.722558 -662.742818 
L 214.722558 -662.742818 
L 214.966014 -658.539135 
L 215.243971 -654.335452 
L 215.559254 -650.131769 
L 215.914577 -645.928086 
L 216.312485 -641.724403 
L 216.755295 -637.52072 
L 217.245039 -633.317037 
L 217.783411 -629.113354 
L 218.371719 -624.909671 
L 219.01084 -620.705988 
L 219.701183 -616.502305 
L 220.442662 -612.298622 
L 221.234671 -608.094939 
L 222.076069 -603.891256 
L 222.965167 -599.687573 
L 223.899727 -595.48389 
L 224.87695 -591.280207 
L 225.893481 -587.076523 
L 226.945404 -582.87284 
L 228.028245 -578.669157 
L 229.136972 -574.465474 
L 230.265998 -570.261791 
L 231.409191 -566.058108 
L 232.559893 -561.854425 
L 233.71094 -557.650742 
L 234.854711 -553.447059 
L 235.983188 -549.243376 
L 237.088035 -545.039693 
L 238.160709 -540.83601 
L 239.192593 -536.632327 
L 240.175152 -532.428644 
L 241.10012 -528.224961 
L 241.959696 -524.021278 
L 242.746759 -519.817595 
L 243.455085 -515.613912 
L 244.07956 -511.410229 
L 244.616373 -507.206546 
L 245.063181 -503.002863 
L 245.419243 -498.79918 
L 245.68549 -494.595497 
L 245.864558 -490.391814 
L 245.960738 -486.188131 
L 245.979874 -481.984447 
L 245.929196 -477.780764 
L 245.817085 -473.577081 
L 245.652792 -469.373398 
L 245.446111 -465.169715 
L 245.20703 -460.966032 
L 244.945358 -456.762349 
L 244.67036 -452.558666 
L 244.390414 -448.354983 
L 244.112698 -444.1513 
L 243.842923 -439.947617 
L 243.585135 -435.743934 
L 243.34158 -431.540251 
L 243.112645 -427.336568 
L 242.896874 -423.132885 
L 242.691066 -418.929202 
L 242.490439 -414.725519 
L 242.288851 -410.521836 
L 242.079087 -406.318153 
L 241.853167 -402.11447 
L 241.602696 -397.910787 
L 241.319214 -393.707104 
L 240.994546 -389.503421 
L 240.621134 -385.299738 
L 240.19234 -381.096055 
L 239.702708 -376.892372 
L 239.148174 -372.688688 
L 238.526229 -368.485005 
L 237.836008 -364.281322 
L 237.078338 -360.077639 
L 236.255708 -355.873956 
L 235.372196 -351.670273 
L 234.433339 -347.46659 
L 233.445963 -343.262907 
L 232.417971 -339.059224 
L 231.358114 -334.855541 
L 230.275737 -330.651858 
L 229.180523 -326.448175 
L 228.082233 -322.244492 
L 226.990465 -318.040809 
L 225.914423 -313.837126 
L 224.862719 -309.633443 
L 223.843195 -305.42976 
L 222.862793 -301.226077 
L 221.927444 -297.022394 
L 221.042011 -292.818711 
L 220.210251 -288.615028 
L 219.434825 -284.411345 
L 218.71733 -280.207662 
L 218.05836 -276.003979 
L 217.457588 -271.800296 
L 216.91387 -267.596612 
L 216.42535 -263.392929 
L 215.989585 -259.189246 
L 215.603659 -254.985563 
L 215.264308 -250.78188 
L 214.968027 -246.578197 
z
" id="m0c62bab867" style="stroke:#4a4a4a;stroke-width:1.5;"/>
    </defs>
    <g clip-path="url(#pa73c9eedff)">
     <use style="fill:#6e8a7f;stroke:#4a4a4a;stroke-width:1.5;" x="0" xlink:href="#m0c62bab867" y="864"/>
    </g>
   </g>
   <g id="PolyCollection_5">
    <defs>
     <path d="M 325.326563 -334.428308 
L 321.510181 -334.428308 
L 320.920477 -339.294964 
L 320.265119 -344.161621 
L 319.541338 -349.028277 
L 318.747031 -353.894933 
L 317.880898 -358.761589 
L 316.942574 -363.628245 
L 315.932746 -368.494902 
L 314.853266 -373.361558 
L 313.707243 -378.228214 
L 312.499106 -383.09487 
L 311.234651 -387.961526 
L 309.921049 -392.828183 
L 308.566821 -397.694839 
L 307.181778 -402.561495 
L 305.776917 -407.428151 
L 304.364291 -412.294807 
L 302.956828 -417.161464 
L 301.568126 -422.02812 
L 300.212211 -426.894776 
L 298.90328 -431.761432 
L 297.655415 -436.628088 
L 296.482293 -441.494745 
L 295.396892 -446.361401 
L 294.411202 -451.228057 
L 293.53595 -456.094713 
L 292.780351 -460.96137 
L 292.151883 -465.828026 
L 291.656109 -470.694682 
L 291.296528 -475.561338 
L 291.074491 -480.427994 
L 290.98915 -485.294651 
L 291.037475 -490.161307 
L 291.214311 -495.027963 
L 291.512491 -499.894619 
L 291.922995 -504.761275 
L 292.435156 -509.627932 
L 293.036895 -514.494588 
L 293.714993 -519.361244 
L 294.455386 -524.2279 
L 295.243476 -529.094556 
L 296.064447 -533.961213 
L 296.903586 -538.827869 
L 297.746592 -543.694525 
L 298.579872 -548.561181 
L 299.39082 -553.427837 
L 300.168056 -558.294494 
L 300.901649 -563.16115 
L 301.583286 -568.027806 
L 302.206412 -572.894462 
L 302.766318 -577.761119 
L 303.260193 -582.627775 
L 303.687123 -587.494431 
L 304.048049 -592.361087 
L 304.345682 -597.227743 
L 304.584377 -602.0944 
L 304.769971 -606.961056 
L 304.909589 -611.827712 
L 305.011422 -616.694368 
L 305.084485 -621.561024 
L 305.138362 -626.427681 
L 305.18294 -631.294337 
L 305.228147 -636.160993 
L 305.283691 -641.027649 
L 305.358815 -645.894305 
L 305.462073 -650.760962 
L 305.601128 -655.627618 
L 305.78258 -660.494274 
L 306.011832 -665.36093 
L 306.292985 -670.227586 
L 306.628782 -675.094243 
L 307.020578 -679.960899 
L 307.468361 -684.827555 
L 307.970799 -689.694211 
L 308.525326 -694.560868 
L 309.128255 -699.427524 
L 309.774914 -704.29418 
L 310.459804 -709.160836 
L 311.176772 -714.027492 
L 311.919184 -718.894149 
L 312.680108 -723.760805 
L 313.452491 -728.627461 
L 314.229325 -733.494117 
L 315.003804 -738.360773 
L 315.76946 -743.22743 
L 316.520286 -748.094086 
L 317.25083 -752.960742 
L 317.956273 -757.827398 
L 318.632481 -762.694054 
L 319.276035 -767.560711 
L 319.884239 -772.427367 
L 320.455115 -777.294023 
L 320.987371 -782.160679 
L 321.480364 -787.027335 
L 321.934041 -791.893992 
L 322.348888 -796.760648 
L 322.72585 -801.627304 
L 323.066271 -806.49396 
L 323.371815 -811.360617 
L 323.644399 -816.227273 
L 325.326563 -816.227273 
L 325.326563 -816.227273 
L 325.326563 -811.360617 
L 325.326563 -806.49396 
L 325.326563 -801.627304 
L 325.326563 -796.760648 
L 325.326563 -791.893992 
L 325.326563 -787.027335 
L 325.326563 -782.160679 
L 325.326563 -777.294023 
L 325.326563 -772.427367 
L 325.326563 -767.560711 
L 325.326563 -762.694054 
L 325.326563 -757.827398 
L 325.326563 -752.960742 
L 325.326563 -748.094086 
L 325.326563 -743.22743 
L 325.326563 -738.360773 
L 325.326563 -733.494117 
L 325.326563 -728.627461 
L 325.326563 -723.760805 
L 325.326563 -718.894149 
L 325.326563 -714.027492 
L 325.326563 -709.160836 
L 325.326563 -704.29418 
L 325.326563 -699.427524 
L 325.326563 -694.560868 
L 325.326563 -689.694211 
L 325.326563 -684.827555 
L 325.326563 -679.960899 
L 325.326563 -675.094243 
L 325.326563 -670.227586 
L 325.326563 -665.36093 
L 325.326563 -660.494274 
L 325.326563 -655.627618 
L 325.326563 -650.760962 
L 325.326563 -645.894305 
L 325.326563 -641.027649 
L 325.326563 -636.160993 
L 325.326563 -631.294337 
L 325.326563 -626.427681 
L 325.326563 -621.561024 
L 325.326563 -616.694368 
L 325.326563 -611.827712 
L 325.326563 -606.961056 
L 325.326563 -602.0944 
L 325.326563 -597.227743 
L 325.326563 -592.361087 
L 325.326563 -587.494431 
L 325.326563 -582.627775 
L 325.326563 -577.761119 
L 325.326563 -572.894462 
L 325.326563 -568.027806 
L 325.326563 -563.16115 
L 325.326563 -558.294494 
L 325.326563 -553.427837 
L 325.326563 -548.561181 
L 325.326563 -543.694525 
L 325.326563 -538.827869 
L 325.326563 -533.961213 
L 325.326563 -529.094556 
L 325.326563 -524.2279 
L 325.326563 -519.361244 
L 325.326563 -514.494588 
L 325.326563 -509.627932 
L 325.326563 -504.761275 
L 325.326563 -499.894619 
L 325.326563 -495.027963 
L 325.326563 -490.161307 
L 325.326563 -485.294651 
L 325.326563 -480.427994 
L 325.326563 -475.561338 
L 325.326563 -470.694682 
L 325.326563 -465.828026 
L 325.326563 -460.96137 
L 325.326563 -456.094713 
L 325.326563 -451.228057 
L 325.326563 -446.361401 
L 325.326563 -441.494745 
L 325.326563 -436.628088 
L 325.326563 -431.761432 
L 325.326563 -426.894776 
L 325.326563 -422.02812 
L 325.326563 -417.161464 
L 325.326563 -412.294807 
L 325.326563 -407.428151 
L 325.326563 -402.561495 
L 325.326563 -397.694839 
L 325.326563 -392.828183 
L 325.326563 -387.961526 
L 325.326563 -383.09487 
L 325.326563 -378.228214 
L 325.326563 -373.361558 
L 325.326563 -368.494902 
L 325.326563 -363.628245 
L 325.326563 -358.761589 
L 325.326563 -353.894933 
L 325.326563 -349.028277 
L 325.326563 -344.161621 
L 325.326563 -339.294964 
L 325.326563 -334.428308 
z
" id="m0a34c046a6" style="stroke:#4a4a4a;stroke-width:1.5;"/>
    </defs>
    <g clip-path="url(#pa73c9eedff)">
     <use style="fill:#a55c53;stroke:#4a4a4a;stroke-width:1.5;" x="0" xlink:href="#m0a34c046a6" y="864"/>
    </g>
   </g>
   <g id="PolyCollection_6">
    <defs>
     <path d="M 327.723498 -76.772727 
L 325.326563 -76.772727 
L 325.326563 -81.664386 
L 325.326563 -86.556044 
L 325.326563 -91.447702 
L 325.326563 -96.339361 
L 325.326563 -101.231019 
L 325.326563 -106.122677 
L 325.326563 -111.014336 
L 325.326563 -115.905994 
L 325.326563 -120.797652 
L 325.326563 -125.689311 
L 325.326563 -130.580969 
L 325.326563 -135.472627 
L 325.326563 -140.364286 
L 325.326563 -145.255944 
L 325.326563 -150.147602 
L 325.326563 -155.039261 
L 325.326563 -159.930919 
L 325.326563 -164.822577 
L 325.326563 -169.714236 
L 325.326563 -174.605894 
L 325.326563 -179.497552 
L 325.326563 -184.389211 
L 325.326563 -189.280869 
L 325.326563 -194.172527 
L 325.326563 -199.064186 
L 325.326563 -203.955844 
L 325.326563 -208.847502 
L 325.326563 -213.739161 
L 325.326563 -218.630819 
L 325.326563 -223.522477 
L 325.326563 -228.414136 
L 325.326563 -233.305794 
L 325.326563 -238.197452 
L 325.326563 -243.089111 
L 325.326563 -247.980769 
L 325.326563 -252.872427 
L 325.326563 -257.764086 
L 325.326563 -262.655744 
L 325.326563 -267.547402 
L 325.326563 -272.439061 
L 325.326563 -277.330719 
L 325.326563 -282.222377 
L 325.326563 -287.114036 
L 325.326563 -292.005694 
L 325.326563 -296.897352 
L 325.326563 -301.789011 
L 325.326563 -306.680669 
L 325.326563 -311.572327 
L 325.326563 -316.463986 
L 325.326563 -321.355644 
L 325.326563 -326.247302 
L 325.326563 -331.138961 
L 325.326563 -336.030619 
L 325.326563 -340.922277 
L 325.326563 -345.813936 
L 325.326563 -350.705594 
L 325.326563 -355.597252 
L 325.326563 -360.488911 
L 325.326563 -365.380569 
L 325.326563 -370.272227 
L 325.326563 -375.163886 
L 325.326563 -380.055544 
L 325.326563 -384.947202 
L 325.326563 -389.838861 
L 325.326563 -394.730519 
L 325.326563 -399.622177 
L 325.326563 -404.513836 
L 325.326563 -409.405494 
L 325.326563 -414.297152 
L 325.326563 -419.188811 
L 325.326563 -424.080469 
L 325.326563 -428.972127 
L 325.326563 -433.863786 
L 325.326563 -438.755444 
L 325.326563 -443.647102 
L 325.326563 -448.538761 
L 325.326563 -453.430419 
L 325.326563 -458.322077 
L 325.326563 -463.213735 
L 325.326563 -468.105394 
L 325.326563 -472.997052 
L 325.326563 -477.88871 
L 325.326563 -482.780369 
L 325.326563 -487.672027 
L 325.326563 -492.563685 
L 325.326563 -497.455344 
L 325.326563 -502.347002 
L 325.326563 -507.23866 
L 325.326563 -512.130319 
L 325.326563 -517.021977 
L 325.326563 -521.913635 
L 325.326563 -526.805294 
L 325.326563 -531.696952 
L 325.326563 -536.58861 
L 325.326563 -541.480269 
L 325.326563 -546.371927 
L 325.326563 -551.263585 
L 325.326563 -556.155244 
L 325.326563 -561.046902 
L 326.692708 -561.046902 
L 326.692708 -561.046902 
L 326.926416 -556.155244 
L 327.188026 -551.263585 
L 327.478458 -546.371927 
L 327.798189 -541.480269 
L 328.147166 -536.58861 
L 328.524739 -531.696952 
L 328.929593 -526.805294 
L 329.359709 -521.913635 
L 329.812333 -517.021977 
L 330.283974 -512.130319 
L 330.770431 -507.23866 
L 331.266845 -502.347002 
L 331.767785 -497.455344 
L 332.267367 -492.563685 
L 332.759394 -487.672027 
L 333.237537 -482.780369 
L 333.695524 -477.88871 
L 334.127356 -472.997052 
L 334.52753 -468.105394 
L 334.891261 -463.213735 
L 335.214706 -458.322077 
L 335.495161 -453.430419 
L 335.731248 -448.538761 
L 335.923062 -443.647102 
L 336.072279 -438.755444 
L 336.182222 -433.863786 
L 336.257882 -428.972127 
L 336.30588 -424.080469 
L 336.334382 -419.188811 
L 336.352962 -414.297152 
L 336.372414 -409.405494 
L 336.404529 -404.513836 
L 336.461826 -399.622177 
L 336.557257 -394.730519 
L 336.703889 -389.838861 
L 336.914573 -384.947202 
L 337.201609 -380.055544 
L 337.57641 -375.163886 
L 338.049186 -370.272227 
L 338.628639 -365.380569 
L 339.321692 -360.488911 
L 340.133244 -355.597252 
L 341.06597 -350.705594 
L 342.120157 -345.813936 
L 343.293591 -340.922277 
L 344.581491 -336.030619 
L 345.976493 -331.138961 
L 347.468684 -326.247302 
L 349.045694 -321.355644 
L 350.692836 -316.463986 
L 352.393291 -311.572327 
L 354.128355 -306.680669 
L 355.877716 -301.789011 
L 357.619784 -296.897352 
L 359.332051 -292.005694 
L 360.991489 -287.114036 
L 362.574963 -282.222377 
L 364.059668 -277.330719 
L 365.423568 -272.439061 
L 366.64584 -267.547402 
L 367.707294 -262.655744 
L 368.590781 -257.764086 
L 369.28156 -252.872427 
L 369.767625 -247.980769 
L 370.039973 -243.089111 
L 370.092812 -238.197452 
L 369.9237 -233.305794 
L 369.533603 -228.414136 
L 368.926877 -223.522477 
L 368.111176 -218.630819 
L 367.097267 -213.739161 
L 365.898788 -208.847502 
L 364.531927 -203.955844 
L 363.015049 -199.064186 
L 361.368276 -194.172527 
L 359.613031 -189.280869 
L 357.771565 -184.389211 
L 355.866478 -179.497552 
L 353.920249 -174.605894 
L 351.954788 -169.714236 
L 349.991023 -164.822577 
L 348.04854 -159.930919 
L 346.145263 -155.039261 
L 344.297213 -150.147602 
L 342.518319 -145.255944 
L 340.820303 -140.364286 
L 339.212621 -135.472627 
L 337.702481 -130.580969 
L 336.294902 -125.689311 
L 334.992828 -120.797652 
L 333.797291 -115.905994 
L 332.707593 -111.014336 
L 331.721518 -106.122677 
L 330.835565 -101.231019 
L 330.045172 -96.339361 
L 329.344947 -91.447702 
L 328.728895 -86.556044 
L 328.190616 -81.664386 
L 327.723498 -76.772727 
z
" id="m9700d8354d" style="stroke:#4a4a4a;stroke-width:1.5;"/>
    </defs>
    <g clip-path="url(#pa73c9eedff)">
     <use style="fill:#6e8a7f;stroke:#4a4a4a;stroke-width:1.5;" x="0" xlink:href="#m9700d8354d" y="864"/>
    </g>
   </g>
   <g id="PolyCollection_7">
    <defs>
     <path d="M 437.242188 -135.352081 
L 435.949206 -135.352081 
L 435.459366 -139.974464 
L 434.825998 -144.596847 
L 434.022536 -149.219231 
L 433.02244 -153.841614 
L 431.800869 -158.463997 
L 430.336675 -163.08638 
L 428.614629 -167.708763 
L 426.62775 -172.331146 
L 424.379527 -176.953529 
L 421.885815 -181.575912 
L 419.176154 -186.198296 
L 416.294215 -190.820679 
L 413.297189 -195.443062 
L 410.253931 -200.065445 
L 407.241852 -204.687828 
L 404.342669 -209.310211 
L 401.637323 -213.932594 
L 399.200483 -218.554977 
L 397.095216 -223.177361 
L 395.368379 -227.799744 
L 394.047282 -232.422127 
L 393.138007 -237.04451 
L 392.625576 -241.666893 
L 392.475937 -246.289276 
L 392.639519 -250.911659 
L 393.055916 -255.534042 
L 393.659194 -260.156425 
L 394.383254 -264.778809 
L 395.166762 -269.401192 
L 395.957228 -274.023575 
L 396.713996 -278.645958 
L 397.409972 -283.268341 
L 398.03211 -287.890724 
L 398.580727 -292.513107 
L 399.067821 -297.13549 
L 399.514616 -301.757874 
L 399.94857 -306.380257 
L 400.400135 -311.00264 
L 400.899519 -315.625023 
L 401.473693 -320.247406 
L 402.143883 -324.869789 
L 402.923696 -329.492172 
L 403.818009 -334.114555 
L 404.822698 -338.736939 
L 405.92519 -343.359322 
L 407.105796 -347.981705 
L 408.339709 -352.604088 
L 409.599476 -357.226471 
L 410.857745 -361.848854 
L 412.089979 -366.471237 
L 413.276889 -371.09362 
L 414.40627 -375.716004 
L 415.474033 -380.338387 
L 416.484274 -384.96077 
L 417.448343 -389.583153 
L 418.383037 -394.205536 
L 419.308118 -398.827919 
L 420.243506 -403.450302 
L 421.206512 -408.072685 
L 422.209485 -412.695068 
L 423.258162 -417.317452 
L 424.350913 -421.939835 
L 425.478915 -426.562218 
L 426.627161 -431.184601 
L 427.7761 -435.806984 
L 428.903636 -440.429367 
L 429.987188 -445.05175 
L 431.005579 -449.674133 
L 431.940539 -454.296517 
L 432.77776 -458.9189 
L 433.507459 -463.541283 
L 434.124514 -468.163666 
L 434.628279 -472.786049 
L 435.02217 -477.408432 
L 435.313133 -482.030815 
L 435.511059 -486.653198 
L 435.628195 -491.275582 
L 435.678541 -495.897965 
L 435.677249 -500.520348 
L 435.639977 -505.142731 
L 435.582217 -509.765114 
L 435.518586 -514.387497 
L 435.462133 -519.00988 
L 435.42369 -523.632263 
L 435.411363 -528.254647 
L 435.430198 -532.87703 
L 435.482089 -537.499413 
L 435.56594 -542.121796 
L 435.67807 -546.744179 
L 435.812813 -551.366562 
L 435.963249 -555.988945 
L 436.121964 -560.611328 
L 436.281764 -565.233711 
L 436.436266 -569.856095 
L 436.580315 -574.478478 
L 436.710207 -579.100861 
L 436.823734 -583.723244 
L 436.920062 -588.345627 
L 436.999513 -592.96801 
L 437.242188 -592.96801 
L 437.242188 -592.96801 
L 437.242188 -588.345627 
L 437.242188 -583.723244 
L 437.242188 -579.100861 
L 437.242188 -574.478478 
L 437.242188 -569.856095 
L 437.242188 -565.233711 
L 437.242188 -560.611328 
L 437.242188 -555.988945 
L 437.242188 -551.366562 
L 437.242188 -546.744179 
L 437.242188 -542.121796 
L 437.242188 -537.499413 
L 437.242188 -532.87703 
L 437.242188 -528.254647 
L 437.242188 -523.632263 
L 437.242188 -519.00988 
L 437.242188 -514.387497 
L 437.242188 -509.765114 
L 437.242188 -505.142731 
L 437.242188 -500.520348 
L 437.242188 -495.897965 
L 437.242188 -491.275582 
L 437.242188 -486.653198 
L 437.242188 -482.030815 
L 437.242188 -477.408432 
L 437.242188 -472.786049 
L 437.242188 -468.163666 
L 437.242188 -463.541283 
L 437.242188 -458.9189 
L 437.242188 -454.296517 
L 437.242188 -449.674133 
L 437.242188 -445.05175 
L 437.242188 -440.429367 
L 437.242188 -435.806984 
L 437.242188 -431.184601 
L 437.242188 -426.562218 
L 437.242188 -421.939835 
L 437.242188 -417.317452 
L 437.242188 -412.695068 
L 437.242188 -408.072685 
L 437.242188 -403.450302 
L 437.242188 -398.827919 
L 437.242188 -394.205536 
L 437.242188 -389.583153 
L 437.242188 -384.96077 
L 437.242188 -380.338387 
L 437.242188 -375.716004 
L 437.242188 -371.09362 
L 437.242188 -366.471237 
L 437.242188 -361.848854 
L 437.242188 -357.226471 
L 437.242188 -352.604088 
L 437.242188 -347.981705 
L 437.242188 -343.359322 
L 437.242188 -338.736939 
L 437.242188 -334.114555 
L 437.242188 -329.492172 
L 437.242188 -324.869789 
L 437.242188 -320.247406 
L 437.242188 -315.625023 
L 437.242188 -311.00264 
L 437.242188 -306.380257 
L 437.242188 -301.757874 
L 437.242188 -297.13549 
L 437.242188 -292.513107 
L 437.242188 -287.890724 
L 437.242188 -283.268341 
L 437.242188 -278.645958 
L 437.242188 -274.023575 
L 437.242188 -269.401192 
L 437.242188 -264.778809 
L 437.242188 -260.156425 
L 437.242188 -255.534042 
L 437.242188 -250.911659 
L 437.242188 -246.289276 
L 437.242188 -241.666893 
L 437.242188 -237.04451 
L 437.242188 -232.422127 
L 437.242188 -227.799744 
L 437.242188 -223.177361 
L 437.242188 -218.554977 
L 437.242188 -213.932594 
L 437.242188 -209.310211 
L 437.242188 -204.687828 
L 437.242188 -200.065445 
L 437.242188 -195.443062 
L 437.242188 -190.820679 
L 437.242188 -186.198296 
L 437.242188 -181.575912 
L 437.242188 -176.953529 
L 437.242188 -172.331146 
L 437.242188 -167.708763 
L 437.242188 -163.08638 
L 437.242188 -158.463997 
L 437.242188 -153.841614 
L 437.242188 -149.219231 
L 437.242188 -144.596847 
L 437.242188 -139.974464 
L 437.242188 -135.352081 
z
" id="m309e91b388" style="stroke:#4a4a4a;stroke-width:1.5;"/>
    </defs>
    <g clip-path="url(#pa73c9eedff)">
     <use style="fill:#a55c53;stroke:#4a4a4a;stroke-width:1.5;" x="0" xlink:href="#m309e91b388" y="864"/>
    </g>
   </g>
   <g id="PolyCollection_8">
    <defs>
     <path d="M 440.274072 -128.889342 
L 437.242188 -128.889342 
L 437.242188 -133.032855 
L 437.242188 -137.176368 
L 437.242188 -141.31988 
L 437.242188 -145.463393 
L 437.242188 -149.606906 
L 437.242188 -153.750419 
L 437.242188 -157.893931 
L 437.242188 -162.037444 
L 437.242188 -166.180957 
L 437.242188 -170.32447 
L 437.242188 -174.467983 
L 437.242188 -178.611495 
L 437.242188 -182.755008 
L 437.242188 -186.898521 
L 437.242188 -191.042034 
L 437.242188 -195.185547 
L 437.242188 -199.329059 
L 437.242188 -203.472572 
L 437.242188 -207.616085 
L 437.242188 -211.759598 
L 437.242188 -215.903111 
L 437.242188 -220.046623 
L 437.242188 -224.190136 
L 437.242188 -228.333649 
L 437.242188 -232.477162 
L 437.242188 -236.620674 
L 437.242188 -240.764187 
L 437.242188 -244.9077 
L 437.242188 -249.051213 
L 437.242188 -253.194726 
L 437.242188 -257.338238 
L 437.242188 -261.481751 
L 437.242188 -265.625264 
L 437.242188 -269.768777 
L 437.242188 -273.91229 
L 437.242188 -278.055802 
L 437.242188 -282.199315 
L 437.242188 -286.342828 
L 437.242188 -290.486341 
L 437.242188 -294.629854 
L 437.242188 -298.773366 
L 437.242188 -302.916879 
L 437.242188 -307.060392 
L 437.242188 -311.203905 
L 437.242188 -315.347417 
L 437.242188 -319.49093 
L 437.242188 -323.634443 
L 437.242188 -327.777956 
L 437.242188 -331.921469 
L 437.242188 -336.064981 
L 437.242188 -340.208494 
L 437.242188 -344.352007 
L 437.242188 -348.49552 
L 437.242188 -352.639033 
L 437.242188 -356.782545 
L 437.242188 -360.926058 
L 437.242188 -365.069571 
L 437.242188 -369.213084 
L 437.242188 -373.356597 
L 437.242188 -377.500109 
L 437.242188 -381.643622 
L 437.242188 -385.787135 
L 437.242188 -389.930648 
L 437.242188 -394.07416 
L 437.242188 -398.217673 
L 437.242188 -402.361186 
L 437.242188 -406.504699 
L 437.242188 -410.648212 
L 437.242188 -414.791724 
L 437.242188 -418.935237 
L 437.242188 -423.07875 
L 437.242188 -427.222263 
L 437.242188 -431.365776 
L 437.242188 -435.509288 
L 437.242188 -439.652801 
L 437.242188 -443.796314 
L 437.242188 -447.939827 
L 437.242188 -452.08334 
L 437.242188 -456.226852 
L 437.242188 -460.370365 
L 437.242188 -464.513878 
L 437.242188 -468.657391 
L 437.242188 -472.800903 
L 437.242188 -476.944416 
L 437.242188 -481.087929 
L 437.242188 -485.231442 
L 437.242188 -489.374955 
L 437.242188 -493.518467 
L 437.242188 -497.66198 
L 437.242188 -501.805493 
L 437.242188 -505.949006 
L 437.242188 -510.092519 
L 437.242188 -514.236031 
L 437.242188 -518.379544 
L 437.242188 -522.523057 
L 437.242188 -526.66657 
L 437.242188 -530.810083 
L 437.242188 -534.953595 
L 437.242188 -539.097108 
L 437.792675 -539.097108 
L 437.792675 -539.097108 
L 437.952268 -534.953595 
L 438.147071 -530.810083 
L 438.381583 -526.66657 
L 438.660033 -522.523057 
L 438.98614 -518.379544 
L 439.36286 -514.236031 
L 439.792125 -510.092519 
L 440.274604 -505.949006 
L 440.809491 -501.805493 
L 441.39434 -497.66198 
L 442.024962 -493.518467 
L 442.695407 -489.374955 
L 443.398018 -485.231442 
L 444.12358 -481.087929 
L 444.861555 -476.944416 
L 445.600395 -472.800903 
L 446.327928 -468.657391 
L 447.031785 -464.513878 
L 447.69987 -460.370365 
L 448.320836 -456.226852 
L 448.88454 -452.08334 
L 449.382473 -447.939827 
L 449.808125 -443.796314 
L 450.157281 -439.652801 
L 450.428232 -435.509288 
L 450.621893 -431.365776 
L 450.741833 -427.222263 
L 450.794219 -423.07875 
L 450.787685 -418.935237 
L 450.733136 -414.791724 
L 450.64351 -410.648212 
L 450.533501 -406.504699 
L 450.419259 -402.361186 
L 450.318081 -398.217673 
L 450.248078 -394.07416 
L 450.227837 -389.930648 
L 450.276062 -385.787135 
L 450.411182 -381.643622 
L 450.650923 -377.500109 
L 451.011834 -373.356597 
L 451.508762 -369.213084 
L 452.154279 -365.069571 
L 452.958066 -360.926058 
L 453.926282 -356.782545 
L 455.060941 -352.639033 
L 456.359335 -348.49552 
L 457.813561 -344.352007 
L 459.410188 -340.208494 
L 461.13014 -336.064981 
L 462.948827 -331.921469 
L 464.836573 -327.777956 
L 466.75937 -323.634443 
L 468.679949 -319.49093 
L 470.559153 -315.347417 
L 472.357556 -311.203905 
L 474.037245 -307.060392 
L 475.563657 -302.916879 
L 476.907348 -298.773366 
L 478.045552 -294.629854 
L 478.963415 -290.486341 
L 479.654767 -286.342828 
L 480.122366 -282.199315 
L 480.377554 -278.055802 
L 480.439321 -273.91229 
L 480.332829 -269.768777 
L 480.087477 -265.625264 
L 479.734654 -261.481751 
L 479.305319 -257.338238 
L 478.82762 -253.194726 
L 478.324714 -249.051213 
L 477.812982 -244.9077 
L 477.300787 -240.764187 
L 476.787887 -236.620674 
L 476.265569 -232.477162 
L 475.717514 -228.333649 
L 475.121336 -224.190136 
L 474.450677 -220.046623 
L 473.677693 -215.903111 
L 472.775725 -211.759598 
L 471.721926 -207.616085 
L 470.499598 -203.472572 
L 469.100057 -199.329059 
L 467.52384 -195.185547 
L 465.781152 -191.042034 
L 463.891538 -186.898521 
L 461.88281 -182.755008 
L 459.789338 -178.611495 
L 457.6499 -174.467983 
L 455.505275 -170.32447 
L 453.395804 -166.180957 
L 451.359131 -162.037444 
L 449.428301 -157.893931 
L 447.630328 -153.750419 
L 445.985316 -149.606906 
L 444.506139 -145.463393 
L 443.198629 -141.31988 
L 442.062205 -137.176368 
L 441.090815 -133.032855 
L 440.274072 -128.889342 
z
" id="m334d6cadc7" style="stroke:#4a4a4a;stroke-width:1.5;"/>
    </defs>
    <g clip-path="url(#pa73c9eedff)">
     <use style="fill:#6e8a7f;stroke:#4a4a4a;stroke-width:1.5;" x="0" xlink:href="#m334d6cadc7" y="864"/>
    </g>
   </g>
   <g id="patch_3">
    <path clip-path="url(#pa73c9eedff)" d="M 101.495313 665.757468 
L 101.495313 665.757468 
L 101.495313 665.757468 
L 101.495313 665.757468 
z
" style="fill:#a55c53;stroke:#4a4a4a;stroke-linejoin:miter;stroke-width:0.75;"/>
   </g>
   <g id="patch_4">
    <path clip-path="url(#pa73c9eedff)" d="M 101.495313 665.757468 
L 101.495313 665.757468 
L 101.495313 665.757468 
L 101.495313 665.757468 
z
" style="fill:#6e8a7f;stroke:#4a4a4a;stroke-linejoin:miter;stroke-width:0.75;"/>
   </g>
   <g id="matplotlib.axis_1">
    <g id="xtick_1">
     <g id="line2d_1">
      <defs>
       <path d="M 0 0 
L 0 3.5 
" id="mf7311cc6ef" style="stroke:#000000;stroke-width:0.8;"/>
      </defs>
      <g>
       <use style="stroke:#000000;stroke-width:0.8;" x="101.495313" xlink:href="#mf7311cc6ef" y="824.2"/>
      </g>
     </g>
     <g id="text_1">
      <!-- 0 -->
      <g transform="translate(98.314063 838.798437)scale(0.1 -0.1)">
       <defs>
        <path d="M 2034 4250 
Q 1547 4250 1301 3770 
Q 1056 3291 1056 2328 
Q 1056 1369 1301 889 
Q 1547 409 2034 409 
Q 2525 409 2770 889 
Q 3016 1369 3016 2328 
Q 3016 3291 2770 3770 
Q 2525 4250 2034 4250 
z
M 2034 4750 
Q 2819 4750 3233 4129 
Q 3647 3509 3647 2328 
Q 3647 1150 3233 529 
Q 2819 -91 2034 -91 
Q 1250 -91 836 529 
Q 422 1150 422 2328 
Q 422 3509 836 4129 
Q 1250 4750 2034 4750 
z
" id="DejaVuSans-30" transform="scale(0.015625)"/>
       </defs>
       <use xlink:href="#DejaVuSans-30"/>
      </g>
     </g>
    </g>
    <g id="xtick_2">
     <g id="line2d_2">
      <g>
       <use style="stroke:#000000;stroke-width:0.8;" x="213.410937" xlink:href="#mf7311cc6ef" y="824.2"/>
      </g>
     </g>
     <g id="text_2">
      <!-- 1 -->
      <g transform="translate(210.229687 838.798437)scale(0.1 -0.1)">
       <defs>
        <path d="M 794 531 
L 1825 531 
L 1825 4091 
L 703 3866 
L 703 4441 
L 1819 4666 
L 2450 4666 
L 2450 531 
L 3481 531 
L 3481 0 
L 794 0 
L 794 531 
z
" id="DejaVuSans-31" transform="scale(0.015625)"/>
       </defs>
       <use xlink:href="#DejaVuSans-31"/>
      </g>
     </g>
    </g>
    <g id="xtick_3">
     <g id="line2d_3">
      <g>
       <use style="stroke:#000000;stroke-width:0.8;" x="325.326563" xlink:href="#mf7311cc6ef" y="824.2"/>
      </g>
     </g>
     <g id="text_3">
      <!-- 2 -->
      <g transform="translate(322.145313 838.798437)scale(0.1 -0.1)">
       <defs>
        <path d="M 1228 531 
L 3431 531 
L 3431 0 
L 469 0 
L 469 531 
Q 828 903 1448 1529 
Q 2069 2156 2228 2338 
Q 2531 2678 2651 2914 
Q 2772 3150 2772 3378 
Q 2772 3750 2511 3984 
Q 2250 4219 1831 4219 
Q 1534 4219 1204 4116 
Q 875 4013 500 3803 
L 500 4441 
Q 881 4594 1212 4672 
Q 1544 4750 1819 4750 
Q 2544 4750 2975 4387 
Q 3406 4025 3406 3419 
Q 3406 3131 3298 2873 
Q 3191 2616 2906 2266 
Q 2828 2175 2409 1742 
Q 1991 1309 1228 531 
z
" id="DejaVuSans-32" transform="scale(0.015625)"/>
       </defs>
       <use xlink:href="#DejaVuSans-32"/>
      </g>
     </g>
    </g>
    <g id="xtick_4">
     <g id="line2d_4">
      <g>
       <use style="stroke:#000000;stroke-width:0.8;" x="437.242188" xlink:href="#mf7311cc6ef" y="824.2"/>
      </g>
     </g>
     <g id="text_4">
      <!-- 3 -->
      <g transform="translate(434.060938 838.798437)scale(0.1 -0.1)">
       <defs>
        <path d="M 2597 2516 
Q 3050 2419 3304 2112 
Q 3559 1806 3559 1356 
Q 3559 666 3084 287 
Q 2609 -91 1734 -91 
Q 1441 -91 1130 -33 
Q 819 25 488 141 
L 488 750 
Q 750 597 1062 519 
Q 1375 441 1716 441 
Q 2309 441 2620 675 
Q 2931 909 2931 1356 
Q 2931 1769 2642 2001 
Q 2353 2234 1838 2234 
L 1294 2234 
L 1294 2753 
L 1863 2753 
Q 2328 2753 2575 2939 
Q 2822 3125 2822 3475 
Q 2822 3834 2567 4026 
Q 2313 4219 1838 4219 
Q 1578 4219 1281 4162 
Q 984 4106 628 3988 
L 628 4550 
Q 988 4650 1302 4700 
Q 1616 4750 1894 4750 
Q 2613 4750 3031 4423 
Q 3450 4097 3450 3541 
Q 3450 3153 3228 2886 
Q 3006 2619 2597 2516 
z
" id="DejaVuSans-33" transform="scale(0.015625)"/>
       </defs>
       <use xlink:href="#DejaVuSans-33"/>
      </g>
     </g>
    </g>
    <g id="text_5">
     <!-- cluster -->
     <g transform="translate(252.364844 852.476562)scale(0.1 -0.1)">
      <defs>
       <path d="M 3122 3366 
L 3122 2828 
Q 2878 2963 2633 3030 
Q 2388 3097 2138 3097 
Q 1578 3097 1268 2742 
Q 959 2388 959 1747 
Q 959 1106 1268 751 
Q 1578 397 2138 397 
Q 2388 397 2633 464 
Q 2878 531 3122 666 
L 3122 134 
Q 2881 22 2623 -34 
Q 2366 -91 2075 -91 
Q 1284 -91 818 406 
Q 353 903 353 1747 
Q 353 2603 823 3093 
Q 1294 3584 2113 3584 
Q 2378 3584 2631 3529 
Q 2884 3475 3122 3366 
z
" id="DejaVuSans-63" transform="scale(0.015625)"/>
       <path d="M 603 4863 
L 1178 4863 
L 1178 0 
L 603 0 
L 603 4863 
z
" id="DejaVuSans-6c" transform="scale(0.015625)"/>
       <path d="M 544 1381 
L 544 3500 
L 1119 3500 
L 1119 1403 
Q 1119 906 1312 657 
Q 1506 409 1894 409 
Q 2359 409 2629 706 
Q 2900 1003 2900 1516 
L 2900 3500 
L 3475 3500 
L 3475 0 
L 2900 0 
L 2900 538 
Q 2691 219 2414 64 
Q 2138 -91 1772 -91 
Q 1169 -91 856 284 
Q 544 659 544 1381 
z
M 1991 3584 
L 1991 3584 
z
" id="DejaVuSans-75" transform="scale(0.015625)"/>
       <path d="M 2834 3397 
L 2834 2853 
Q 2591 2978 2328 3040 
Q 2066 3103 1784 3103 
Q 1356 3103 1142 2972 
Q 928 2841 928 2578 
Q 928 2378 1081 2264 
Q 1234 2150 1697 2047 
L 1894 2003 
Q 2506 1872 2764 1633 
Q 3022 1394 3022 966 
Q 3022 478 2636 193 
Q 2250 -91 1575 -91 
Q 1294 -91 989 -36 
Q 684 19 347 128 
L 347 722 
Q 666 556 975 473 
Q 1284 391 1588 391 
Q 1994 391 2212 530 
Q 2431 669 2431 922 
Q 2431 1156 2273 1281 
Q 2116 1406 1581 1522 
L 1381 1569 
Q 847 1681 609 1914 
Q 372 2147 372 2553 
Q 372 3047 722 3315 
Q 1072 3584 1716 3584 
Q 2034 3584 2315 3537 
Q 2597 3491 2834 3397 
z
" id="DejaVuSans-73" transform="scale(0.015625)"/>
       <path d="M 1172 4494 
L 1172 3500 
L 2356 3500 
L 2356 3053 
L 1172 3053 
L 1172 1153 
Q 1172 725 1289 603 
Q 1406 481 1766 481 
L 2356 481 
L 2356 0 
L 1766 0 
Q 1100 0 847 248 
Q 594 497 594 1153 
L 594 3053 
L 172 3053 
L 172 3500 
L 594 3500 
L 594 4494 
L 1172 4494 
z
" id="DejaVuSans-74" transform="scale(0.015625)"/>
       <path d="M 3597 1894 
L 3597 1613 
L 953 1613 
Q 991 1019 1311 708 
Q 1631 397 2203 397 
Q 2534 397 2845 478 
Q 3156 559 3463 722 
L 3463 178 
Q 3153 47 2828 -22 
Q 2503 -91 2169 -91 
Q 1331 -91 842 396 
Q 353 884 353 1716 
Q 353 2575 817 3079 
Q 1281 3584 2069 3584 
Q 2775 3584 3186 3129 
Q 3597 2675 3597 1894 
z
M 3022 2063 
Q 3016 2534 2758 2815 
Q 2500 3097 2075 3097 
Q 1594 3097 1305 2825 
Q 1016 2553 972 2059 
L 3022 2063 
z
" id="DejaVuSans-65" transform="scale(0.015625)"/>
       <path d="M 2631 2963 
Q 2534 3019 2420 3045 
Q 2306 3072 2169 3072 
Q 1681 3072 1420 2755 
Q 1159 2438 1159 1844 
L 1159 0 
L 581 0 
L 581 3500 
L 1159 3500 
L 1159 2956 
Q 1341 3275 1631 3429 
Q 1922 3584 2338 3584 
Q 2397 3584 2469 3576 
Q 2541 3569 2628 3553 
L 2631 2963 
z
" id="DejaVuSans-72" transform="scale(0.015625)"/>
      </defs>
      <use xlink:href="#DejaVuSans-63"/>
      <use x="54.980469" xlink:href="#DejaVuSans-6c"/>
      <use x="82.763672" xlink:href="#DejaVuSans-75"/>
      <use x="146.142578" xlink:href="#DejaVuSans-73"/>
      <use x="198.242188" xlink:href="#DejaVuSans-74"/>
      <use x="237.451172" xlink:href="#DejaVuSans-65"/>
      <use x="298.974609" xlink:href="#DejaVuSans-72"/>
     </g>
    </g>
   </g>
   <g id="matplotlib.axis_2">
    <g id="ytick_1">
     <g id="line2d_5">
      <defs>
       <path d="M 0 0 
L -3.5 0 
" id="m6f5d8a4f7d" style="stroke:#000000;stroke-width:0.8;"/>
      </defs>
      <g>
       <use style="stroke:#000000;stroke-width:0.8;" x="45.5375" xlink:href="#m6f5d8a4f7d" y="816.591571"/>
      </g>
     </g>
     <g id="text_6">
      <!-- 5 -->
      <g transform="translate(23.795313 820.39079)scale(0.1 -0.1)">
       <defs>
        <path d="M 678 2272 
L 4684 2272 
L 4684 1741 
L 678 1741 
L 678 2272 
z
" id="DejaVuSans-2212" transform="scale(0.015625)"/>
        <path d="M 691 4666 
L 3169 4666 
L 3169 4134 
L 1269 4134 
L 1269 2991 
Q 1406 3038 1543 3061 
Q 1681 3084 1819 3084 
Q 2600 3084 3056 2656 
Q 3513 2228 3513 1497 
Q 3513 744 3044 326 
Q 2575 -91 1722 -91 
Q 1428 -91 1123 -41 
Q 819 9 494 109 
L 494 744 
Q 775 591 1075 516 
Q 1375 441 1709 441 
Q 2250 441 2565 725 
Q 2881 1009 2881 1497 
Q 2881 1984 2565 2268 
Q 2250 2553 1709 2553 
Q 1456 2553 1204 2497 
Q 953 2441 691 2322 
L 691 4666 
z
" id="DejaVuSans-35" transform="scale(0.015625)"/>
       </defs>
       <use xlink:href="#DejaVuSans-2212"/>
       <use x="83.789062" xlink:href="#DejaVuSans-35"/>
      </g>
     </g>
    </g>
    <g id="ytick_2">
     <g id="line2d_6">
      <g>
       <use style="stroke:#000000;stroke-width:0.8;" x="45.5375" xlink:href="#m6f5d8a4f7d" y="665.757468"/>
      </g>
     </g>
     <g id="text_7">
      <!-- 0 -->
      <g transform="translate(32.175 669.556687)scale(0.1 -0.1)">
       <use xlink:href="#DejaVuSans-30"/>
      </g>
     </g>
    </g>
    <g id="ytick_3">
     <g id="line2d_7">
      <g>
       <use style="stroke:#000000;stroke-width:0.8;" x="45.5375" xlink:href="#m6f5d8a4f7d" y="514.923365"/>
      </g>
     </g>
     <g id="text_8">
      <!-- 5 -->
      <g transform="translate(32.175 518.722583)scale(0.1 -0.1)">
       <use xlink:href="#DejaVuSans-35"/>
      </g>
     </g>
    </g>
    <g id="ytick_4">
     <g id="line2d_8">
      <g>
       <use style="stroke:#000000;stroke-width:0.8;" x="45.5375" xlink:href="#m6f5d8a4f7d" y="364.089261"/>
      </g>
     </g>
     <g id="text_9">
      <!-- 10 -->
      <g transform="translate(25.8125 367.88848)scale(0.1 -0.1)">
       <use xlink:href="#DejaVuSans-31"/>
       <use x="63.623047" xlink:href="#DejaVuSans-30"/>
      </g>
     </g>
    </g>
    <g id="ytick_5">
     <g id="line2d_9">
      <g>
       <use style="stroke:#000000;stroke-width:0.8;" x="45.5375" xlink:href="#m6f5d8a4f7d" y="213.255158"/>
      </g>
     </g>
     <g id="text_10">
      <!-- 15 -->
      <g transform="translate(25.8125 217.054377)scale(0.1 -0.1)">
       <use xlink:href="#DejaVuSans-31"/>
       <use x="63.623047" xlink:href="#DejaVuSans-35"/>
      </g>
     </g>
    </g>
    <g id="ytick_6">
     <g id="line2d_10">
      <g>
       <use style="stroke:#000000;stroke-width:0.8;" x="45.5375" xlink:href="#m6f5d8a4f7d" y="62.421055"/>
      </g>
     </g>
     <g id="text_11">
      <!-- 20 -->
      <g transform="translate(25.8125 66.220273)scale(0.1 -0.1)">
       <use xlink:href="#DejaVuSans-32"/>
       <use x="63.623047" xlink:href="#DejaVuSans-30"/>
      </g>
     </g>
    </g>
    <g id="text_12">
     <!-- total -->
     <g transform="translate(17.715625 428.932813)rotate(-90)scale(0.1 -0.1)">
      <defs>
       <path d="M 1959 3097 
Q 1497 3097 1228 2736 
Q 959 2375 959 1747 
Q 959 1119 1226 758 
Q 1494 397 1959 397 
Q 2419 397 2687 759 
Q 2956 1122 2956 1747 
Q 2956 2369 2687 2733 
Q 2419 3097 1959 3097 
z
M 1959 3584 
Q 2709 3584 3137 3096 
Q 3566 2609 3566 1747 
Q 3566 888 3137 398 
Q 2709 -91 1959 -91 
Q 1206 -91 779 398 
Q 353 888 353 1747 
Q 353 2609 779 3096 
Q 1206 3584 1959 3584 
z
" id="DejaVuSans-6f" transform="scale(0.015625)"/>
       <path d="M 2194 1759 
Q 1497 1759 1228 1600 
Q 959 1441 959 1056 
Q 959 750 1161 570 
Q 1363 391 1709 391 
Q 2188 391 2477 730 
Q 2766 1069 2766 1631 
L 2766 1759 
L 2194 1759 
z
M 3341 1997 
L 3341 0 
L 2766 0 
L 2766 531 
Q 2569 213 2275 61 
Q 1981 -91 1556 -91 
Q 1019 -91 701 211 
Q 384 513 384 1019 
Q 384 1609 779 1909 
Q 1175 2209 1959 2209 
L 2766 2209 
L 2766 2266 
Q 2766 2663 2505 2880 
Q 2244 3097 1772 3097 
Q 1472 3097 1187 3025 
Q 903 2953 641 2809 
L 641 3341 
Q 956 3463 1253 3523 
Q 1550 3584 1831 3584 
Q 2591 3584 2966 3190 
Q 3341 2797 3341 1997 
z
" id="DejaVuSans-61" transform="scale(0.015625)"/>
      </defs>
      <use xlink:href="#DejaVuSans-74"/>
      <use x="39.208984" xlink:href="#DejaVuSans-6f"/>
      <use x="100.390625" xlink:href="#DejaVuSans-74"/>
      <use x="139.599609" xlink:href="#DejaVuSans-61"/>
      <use x="200.878906" xlink:href="#DejaVuSans-6c"/>
     </g>
    </g>
   </g>
   <g id="line2d_11">
    <path clip-path="url(#pa73c9eedff)" d="M 66.193012 665.757468 
L 101.495313 665.757468 
" style="fill:none;stroke:#4a4a4a;stroke-dasharray:3.375,3.375;stroke-dashoffset:0;stroke-width:1.5;"/>
   </g>
   <g id="line2d_12">
    <path clip-path="url(#pa73c9eedff)" d="M 66.193012 665.757468 
L 101.495313 665.757468 
" style="fill:none;stroke:#4a4a4a;stroke-dasharray:6.75,6.75;stroke-dashoffset:0;stroke-width:1.5;"/>
   </g>
   <g id="line2d_13">
    <path clip-path="url(#pa73c9eedff)" d="M 90.814328 635.590647 
L 101.495313 635.590647 
" style="fill:none;stroke:#4a4a4a;stroke-dasharray:3.375,3.375;stroke-dashoffset:0;stroke-width:1.5;"/>
   </g>
   <g id="line2d_14">
    <path clip-path="url(#pa73c9eedff)" d="M 101.495313 665.757468 
L 145.8139 665.757468 
" style="fill:none;stroke:#4a4a4a;stroke-dasharray:3.375,3.375;stroke-dashoffset:0;stroke-width:1.5;"/>
   </g>
   <g id="line2d_15">
    <path clip-path="url(#pa73c9eedff)" d="M 101.495313 665.757468 
L 145.8139 665.757468 
" style="fill:none;stroke:#4a4a4a;stroke-dasharray:6.75,6.75;stroke-dashoffset:0;stroke-width:1.5;"/>
   </g>
   <g id="line2d_16">
    <path clip-path="url(#pa73c9eedff)" d="M 101.495313 665.757468 
L 145.8139 665.757468 
" style="fill:none;stroke:#4a4a4a;stroke-dasharray:3.375,3.375;stroke-dashoffset:0;stroke-width:1.5;"/>
   </g>
   <g id="line2d_17">
    <path clip-path="url(#pa73c9eedff)" d="M 170.415308 635.590647 
L 213.410937 635.590647 
" style="fill:none;stroke:#4a4a4a;stroke-dasharray:3.375,3.375;stroke-dashoffset:0;stroke-width:1.5;"/>
   </g>
   <g id="line2d_18">
    <path clip-path="url(#pa73c9eedff)" d="M 170.415308 635.590647 
L 213.410937 635.590647 
" style="fill:none;stroke:#4a4a4a;stroke-dasharray:6.75,6.75;stroke-dashoffset:0;stroke-width:1.5;"/>
   </g>
   <g id="line2d_19">
    <path clip-path="url(#pa73c9eedff)" d="M 178.905761 575.257006 
L 213.410937 575.257006 
" style="fill:none;stroke:#4a4a4a;stroke-dasharray:3.375,3.375;stroke-dashoffset:0;stroke-width:1.5;"/>
   </g>
   <g id="line2d_20">
    <path clip-path="url(#pa73c9eedff)" d="M 213.410937 469.673134 
L 241.040131 469.673134 
" style="fill:none;stroke:#4a4a4a;stroke-dasharray:3.375,3.375;stroke-dashoffset:0;stroke-width:1.5;"/>
   </g>
   <g id="line2d_21">
    <path clip-path="url(#pa73c9eedff)" d="M 213.410937 394.256082 
L 245.330373 394.256082 
" style="fill:none;stroke:#4a4a4a;stroke-dasharray:6.75,6.75;stroke-dashoffset:0;stroke-width:1.5;"/>
   </g>
   <g id="line2d_22">
    <path clip-path="url(#pa73c9eedff)" d="M 213.410937 364.089261 
L 245.099159 364.089261 
" style="fill:none;stroke:#4a4a4a;stroke-dasharray:3.375,3.375;stroke-dashoffset:0;stroke-width:1.5;"/>
   </g>
   <g id="line2d_23">
    <path clip-path="url(#pa73c9eedff)" d="M 291.992813 394.256082 
L 325.326563 394.256082 
" style="fill:none;stroke:#4a4a4a;stroke-dasharray:3.375,3.375;stroke-dashoffset:0;stroke-width:1.5;"/>
   </g>
   <g id="line2d_24">
    <path clip-path="url(#pa73c9eedff)" d="M 291.850631 364.089261 
L 325.326563 364.089261 
" style="fill:none;stroke:#4a4a4a;stroke-dasharray:6.75,6.75;stroke-dashoffset:0;stroke-width:1.5;"/>
   </g>
   <g id="line2d_25">
    <path clip-path="url(#pa73c9eedff)" d="M 305.286906 243.421979 
L 325.326563 243.421979 
" style="fill:none;stroke:#4a4a4a;stroke-dasharray:3.375,3.375;stroke-dashoffset:0;stroke-width:1.5;"/>
   </g>
   <g id="line2d_26">
    <path clip-path="url(#pa73c9eedff)" d="M 325.326563 635.590647 
L 369.091532 635.590647 
" style="fill:none;stroke:#4a4a4a;stroke-dasharray:3.375,3.375;stroke-dashoffset:0;stroke-width:1.5;"/>
   </g>
   <g id="line2d_27">
    <path clip-path="url(#pa73c9eedff)" d="M 325.326563 620.507237 
L 369.592839 620.507237 
" style="fill:none;stroke:#4a4a4a;stroke-dasharray:6.75,6.75;stroke-dashoffset:0;stroke-width:1.5;"/>
   </g>
   <g id="line2d_28">
    <path clip-path="url(#pa73c9eedff)" d="M 325.326563 582.798711 
L 362.202479 582.798711 
" style="fill:none;stroke:#4a4a4a;stroke-dasharray:3.375,3.375;stroke-dashoffset:0;stroke-width:1.5;"/>
   </g>
   <g id="line2d_29">
    <path clip-path="url(#pa73c9eedff)" d="M 395.787117 635.590647 
L 437.242188 635.590647 
" style="fill:none;stroke:#4a4a4a;stroke-dasharray:3.375,3.375;stroke-dashoffset:0;stroke-width:1.5;"/>
   </g>
   <g id="line2d_30">
    <path clip-path="url(#pa73c9eedff)" d="M 398.424211 575.257006 
L 437.242188 575.257006 
" style="fill:none;stroke:#4a4a4a;stroke-dasharray:6.75,6.75;stroke-dashoffset:0;stroke-width:1.5;"/>
   </g>
   <g id="line2d_31">
    <path clip-path="url(#pa73c9eedff)" d="M 407.40716 514.923365 
L 437.242188 514.923365 
" style="fill:none;stroke:#4a4a4a;stroke-dasharray:3.375,3.375;stroke-dashoffset:0;stroke-width:1.5;"/>
   </g>
   <g id="line2d_32">
    <path clip-path="url(#pa73c9eedff)" d="M 437.242188 635.590647 
L 475.332761 635.590647 
" style="fill:none;stroke:#4a4a4a;stroke-dasharray:3.375,3.375;stroke-dashoffset:0;stroke-width:1.5;"/>
   </g>
   <g id="line2d_33">
    <path clip-path="url(#pa73c9eedff)" d="M 437.242188 575.257006 
L 478.546203 575.257006 
" style="fill:none;stroke:#4a4a4a;stroke-dasharray:6.75,6.75;stroke-dashoffset:0;stroke-width:1.5;"/>
   </g>
   <g id="line2d_34">
    <path clip-path="url(#pa73c9eedff)" d="M 437.242188 545.090185 
L 468.365572 545.090185 
" style="fill:none;stroke:#4a4a4a;stroke-dasharray:3.375,3.375;stroke-dashoffset:0;stroke-width:1.5;"/>
   </g>
   <g id="patch_5">
    <path d="M 45.5375 824.2 
L 45.5375 10.8 
" style="fill:none;stroke:#000000;stroke-linecap:square;stroke-linejoin:miter;stroke-width:0.8;"/>
   </g>
   <g id="patch_6">
    <path d="M 493.2 824.2 
L 493.2 10.8 
" style="fill:none;stroke:#000000;stroke-linecap:square;stroke-linejoin:miter;stroke-width:0.8;"/>
   </g>
   <g id="patch_7">
    <path d="M 45.5375 824.2 
L 493.2 824.2 
" style="fill:none;stroke:#000000;stroke-linecap:square;stroke-linejoin:miter;stroke-width:0.8;"/>
   </g>
   <g id="patch_8">
    <path d="M 45.5375 10.8 
L 493.2 10.8 
" style="fill:none;stroke:#000000;stroke-linecap:square;stroke-linejoin:miter;stroke-width:0.8;"/>
   </g>
   <g id="legend_1">
    <g id="patch_9">
     <path d="M 328.590625 63.634375 
L 486.2 63.634375 
Q 488.2 63.634375 488.2 61.634375 
L 488.2 17.8 
Q 488.2 15.8 486.2 15.8 
L 328.590625 15.8 
Q 326.590625 15.8 326.590625 17.8 
L 326.590625 61.634375 
Q 326.590625 63.634375 328.590625 63.634375 
z
" style="fill:#ffffff;opacity:0.8;stroke:#cccccc;stroke-linejoin:miter;"/>
    </g>
    <g id="text_13">
     <!-- poque -->
     <g transform="translate(388.665625 27.798437)scale(0.1 -0.1)">
      <defs>
       <path d="M 3597 1894 
L 3597 1613 
L 953 1613 
Q 991 1019 1311 708 
Q 1631 397 2203 397 
Q 2534 397 2845 478 
Q 3156 559 3463 722 
L 3463 178 
Q 3153 47 2828 -22 
Q 2503 -91 2169 -91 
Q 1331 -91 842 396 
Q 353 884 353 1716 
Q 353 2575 817 3079 
Q 1281 3584 2069 3584 
Q 2775 3584 3186 3129 
Q 3597 2675 3597 1894 
z
M 3022 2063 
Q 3016 2534 2758 2815 
Q 2500 3097 2075 3097 
Q 1594 3097 1305 2825 
Q 1016 2553 972 2059 
L 3022 2063 
z
M 2469 5119 
L 3091 5119 
L 2072 3944 
L 1594 3944 
L 2469 5119 
z
" id="DejaVuSans-e9" transform="scale(0.015625)"/>
       <path d="M 1159 525 
L 1159 -1331 
L 581 -1331 
L 581 3500 
L 1159 3500 
L 1159 2969 
Q 1341 3281 1617 3432 
Q 1894 3584 2278 3584 
Q 2916 3584 3314 3078 
Q 3713 2572 3713 1747 
Q 3713 922 3314 415 
Q 2916 -91 2278 -91 
Q 1894 -91 1617 61 
Q 1341 213 1159 525 
z
M 3116 1747 
Q 3116 2381 2855 2742 
Q 2594 3103 2138 3103 
Q 1681 3103 1420 2742 
Q 1159 2381 1159 1747 
Q 1159 1113 1420 752 
Q 1681 391 2138 391 
Q 2594 391 2855 752 
Q 3116 1113 3116 1747 
z
" id="DejaVuSans-70" transform="scale(0.015625)"/>
       <path d="M 947 1747 
Q 947 1113 1208 752 
Q 1469 391 1925 391 
Q 2381 391 2643 752 
Q 2906 1113 2906 1747 
Q 2906 2381 2643 2742 
Q 2381 3103 1925 3103 
Q 1469 3103 1208 2742 
Q 947 2381 947 1747 
z
M 2906 525 
Q 2725 213 2448 61 
Q 2172 -91 1784 -91 
Q 1150 -91 751 415 
Q 353 922 353 1747 
Q 353 2572 751 3078 
Q 1150 3584 1784 3584 
Q 2172 3584 2448 3432 
Q 2725 3281 2906 2969 
L 2906 3500 
L 3481 3500 
L 3481 -1331 
L 2906 -1331 
L 2906 525 
z
" id="DejaVuSans-71" transform="scale(0.015625)"/>
      </defs>
      <use xlink:href="#DejaVuSans-e9"/>
      <use x="61.523438" xlink:href="#DejaVuSans-70"/>
      <use x="125" xlink:href="#DejaVuSans-6f"/>
      <use x="186.181641" xlink:href="#DejaVuSans-71"/>
      <use x="249.658203" xlink:href="#DejaVuSans-75"/>
      <use x="313.037109" xlink:href="#DejaVuSans-65"/>
     </g>
    </g>
    <g id="patch_10">
     <path d="M 330.590625 42.476562 
L 350.590625 42.476562 
L 350.590625 35.476562 
L 330.590625 35.476562 
z
" style="fill:#a55c53;stroke:#4a4a4a;stroke-linejoin:miter;stroke-width:0.75;"/>
    </g>
    <g id="text_14">
     <!-- avant 1444 (1444 inclus) -->
     <g transform="translate(358.590625 42.476562)scale(0.1 -0.1)">
      <defs>
       <path d="M 191 3500 
L 800 3500 
L 1894 563 
L 2988 3500 
L 3597 3500 
L 2284 0 
L 1503 0 
L 191 3500 
z
" id="DejaVuSans-76" transform="scale(0.015625)"/>
       <path d="M 3513 2113 
L 3513 0 
L 2938 0 
L 2938 2094 
Q 2938 2591 2744 2837 
Q 2550 3084 2163 3084 
Q 1697 3084 1428 2787 
Q 1159 2491 1159 1978 
L 1159 0 
L 581 0 
L 581 3500 
L 1159 3500 
L 1159 2956 
Q 1366 3272 1645 3428 
Q 1925 3584 2291 3584 
Q 2894 3584 3203 3211 
Q 3513 2838 3513 2113 
z
" id="DejaVuSans-6e" transform="scale(0.015625)"/>
       <path id="DejaVuSans-20" transform="scale(0.015625)"/>
       <path d="M 2419 4116 
L 825 1625 
L 2419 1625 
L 2419 4116 
z
M 2253 4666 
L 3047 4666 
L 3047 1625 
L 3713 1625 
L 3713 1100 
L 3047 1100 
L 3047 0 
L 2419 0 
L 2419 1100 
L 313 1100 
L 313 1709 
L 2253 4666 
z
" id="DejaVuSans-34" transform="scale(0.015625)"/>
       <path d="M 1984 4856 
Q 1566 4138 1362 3434 
Q 1159 2731 1159 2009 
Q 1159 1288 1364 580 
Q 1569 -128 1984 -844 
L 1484 -844 
Q 1016 -109 783 600 
Q 550 1309 550 2009 
Q 550 2706 781 3412 
Q 1013 4119 1484 4856 
L 1984 4856 
z
" id="DejaVuSans-28" transform="scale(0.015625)"/>
       <path d="M 603 3500 
L 1178 3500 
L 1178 0 
L 603 0 
L 603 3500 
z
M 603 4863 
L 1178 4863 
L 1178 4134 
L 603 4134 
L 603 4863 
z
" id="DejaVuSans-69" transform="scale(0.015625)"/>
       <path d="M 513 4856 
L 1013 4856 
Q 1481 4119 1714 3412 
Q 1947 2706 1947 2009 
Q 1947 1309 1714 600 
Q 1481 -109 1013 -844 
L 513 -844 
Q 928 -128 1133 580 
Q 1338 1288 1338 2009 
Q 1338 2731 1133 3434 
Q 928 4138 513 4856 
z
" id="DejaVuSans-29" transform="scale(0.015625)"/>
      </defs>
      <use xlink:href="#DejaVuSans-61"/>
      <use x="61.279297" xlink:href="#DejaVuSans-76"/>
      <use x="120.458984" xlink:href="#DejaVuSans-61"/>
      <use x="181.738281" xlink:href="#DejaVuSans-6e"/>
      <use x="245.117188" xlink:href="#DejaVuSans-74"/>
      <use x="284.326172" xlink:href="#DejaVuSans-20"/>
      <use x="316.113281" xlink:href="#DejaVuSans-31"/>
      <use x="379.736328" xlink:href="#DejaVuSans-34"/>
      <use x="443.359375" xlink:href="#DejaVuSans-34"/>
      <use x="506.982422" xlink:href="#DejaVuSans-34"/>
      <use x="570.605469" xlink:href="#DejaVuSans-20"/>
      <use x="602.392578" xlink:href="#DejaVuSans-28"/>
      <use x="641.40625" xlink:href="#DejaVuSans-31"/>
      <use x="705.029297" xlink:href="#DejaVuSans-34"/>
      <use x="768.652344" xlink:href="#DejaVuSans-34"/>
      <use x="832.275391" xlink:href="#DejaVuSans-34"/>
      <use x="895.898438" xlink:href="#DejaVuSans-20"/>
      <use x="927.685547" xlink:href="#DejaVuSans-69"/>
      <use x="955.46875" xlink:href="#DejaVuSans-6e"/>
      <use x="1018.847656" xlink:href="#DejaVuSans-63"/>
      <use x="1073.828125" xlink:href="#DejaVuSans-6c"/>
      <use x="1101.611328" xlink:href="#DejaVuSans-75"/>
      <use x="1164.990234" xlink:href="#DejaVuSans-73"/>
      <use x="1217.089844" xlink:href="#DejaVuSans-29"/>
     </g>
    </g>
    <g id="patch_11">
     <path d="M 330.590625 57.554688 
L 350.590625 57.554688 
L 350.590625 50.554688 
L 330.590625 50.554688 
z
" style="fill:#6e8a7f;stroke:#4a4a4a;stroke-linejoin:miter;stroke-width:0.75;"/>
    </g>
    <g id="text_15">
     <!-- aprs 1444 -->
     <g transform="translate(358.590625 57.554688)scale(0.1 -0.1)">
      <defs>
       <path d="M 3597 1894 
L 3597 1613 
L 953 1613 
Q 991 1019 1311 708 
Q 1631 397 2203 397 
Q 2534 397 2845 478 
Q 3156 559 3463 722 
L 3463 178 
Q 3153 47 2828 -22 
Q 2503 -91 2169 -91 
Q 1331 -91 842 396 
Q 353 884 353 1716 
Q 353 2575 817 3079 
Q 1281 3584 2069 3584 
Q 2775 3584 3186 3129 
Q 3597 2675 3597 1894 
z
M 3022 2063 
Q 3016 2534 2758 2815 
Q 2500 3097 2075 3097 
Q 1594 3097 1305 2825 
Q 1016 2553 972 2059 
L 3022 2063 
z
M 1581 5119 
L 2463 3950 
L 1984 3950 
L 966 5119 
L 1581 5119 
z
" id="DejaVuSans-e8" transform="scale(0.015625)"/>
      </defs>
      <use xlink:href="#DejaVuSans-61"/>
      <use x="61.279297" xlink:href="#DejaVuSans-70"/>
      <use x="124.755859" xlink:href="#DejaVuSans-72"/>
      <use x="163.619141" xlink:href="#DejaVuSans-e8"/>
      <use x="225.142578" xlink:href="#DejaVuSans-73"/>
      <use x="277.242188" xlink:href="#DejaVuSans-20"/>
      <use x="309.029297" xlink:href="#DejaVuSans-31"/>
      <use x="372.652344" xlink:href="#DejaVuSans-34"/>
      <use x="436.275391" xlink:href="#DejaVuSans-34"/>
      <use x="499.898438" xlink:href="#DejaVuSans-34"/>
     </g>
    </g>
   </g>
  </g>
 </g>
 <defs>
  <clipPath id="pa73c9eedff">
   <rect height="813.4" width="447.6625" x="45.5375" y="10.8"/>
  </clipPath>
 </defs>
</svg>
